<svg width="1440" height="3046" viewBox="0 0 1440 3046" fill="none" xmlns="http://www.w3.org/2000/svg">
<g clip-path="url(#clip0)">
<path d="M-14.541 2572.29C-14.6311 2570.43 -14.632 2568.82 -14.541 2567.48L-14.541 2572.29C-12.3514 2617.36 42.5149 2807.94 111.503 2861.01C183.331 2916.26 58.5535 2979.57 -14.54 3004.32L-14.541 2572.29Z" fill="#C9F1FF"/>
<path d="M47.6168 2645.18C91.8182 2595.45 24.5952 2486.33 -14.5415 2437.99V2962.88L33.8038 2943.89C88.7265 2922.31 66.6096 2852.95 47.6168 2817.84C29.1995 2781.01 3.41534 2694.91 47.6168 2645.18Z" fill="#1AB5EB"/>
<path d="M1418.5 1269.49C1418.22 1310.88 1446 1343.38 1459.92 1354.45V967.689C1449.48 967.689 1417.45 980.638 1385.43 1031.06C1345.39 1094.1 1395.17 1127.67 1408.05 1149.94C1420.93 1172.2 1418.85 1217.77 1418.5 1269.49Z" fill="#1AB5EB"/>
<circle r="112.23" transform="matrix(-1 0 0 1 16.0369 611.521)" fill="#C9F1FF"/>
<path fill-rule="evenodd" clip-rule="evenodd" d="M108.144 630.866L149.991 674.199L106.657 716.045L64.8111 672.712L108.144 630.866ZM107.988 639.814L141.042 674.043L106.814 707.097L73.7596 672.868L107.988 639.814Z" fill="#1AB5EB"/>
<g opacity="0.2">
<rect x="410.935" y="1120.06" width="145.057" height="145.057" transform="rotate(-54.8635 410.935 1120.06)" fill="#1AB5EB" fill-opacity="0.5"/>
<path fill-rule="evenodd" clip-rule="evenodd" d="M579.742 1177.27C600.267 1185.78 623.801 1176.03 632.307 1155.51C640.812 1134.98 631.069 1111.45 610.544 1102.95C590.019 1094.44 566.485 1104.18 557.98 1124.71C549.474 1145.23 559.217 1168.77 579.742 1177.27ZM581.734 1172.46C599.604 1179.87 620.094 1171.39 627.499 1153.52C634.905 1135.65 626.422 1115.16 608.552 1107.75C590.682 1100.35 570.192 1108.83 562.787 1126.7C555.381 1144.57 563.864 1165.06 581.734 1172.46Z" fill="#1AB5EB"/>
</g>
<path fill-rule="evenodd" clip-rule="evenodd" d="M1414.53 2104.19L1400.81 2130.69C1399.35 2133.5 1400.44 2136.95 1403.23 2138.4L1410.11 2141.96C1412.9 2143.41 1416.35 2142.31 1417.81 2139.49L1420.96 2133.41L1420.98 2133.37L1427.77 2120.27C1430.21 2115.56 1436 2113.7 1440.69 2116.14C1445.37 2118.56 1447.2 2124.32 1444.8 2129.03L1419.16 2178.53C1417.7 2181.34 1418.79 2184.79 1421.59 2186.24L1428.46 2189.8C1431.26 2191.25 1434.7 2190.15 1436.16 2187.34L1449.86 2160.89L1449.89 2160.84L1458.71 2143.8C1461.15 2139.09 1466.94 2137.23 1471.64 2139.67C1476.32 2142.09 1478.15 2147.85 1475.74 2152.56L1468.82 2165.92C1467.36 2168.73 1468.45 2172.18 1471.25 2173.63L1478.12 2177.19C1480.92 2178.64 1484.37 2177.54 1485.82 2174.73L1486.59 2173.25L1486.62 2173.2L1499.53 2148.28C1501.97 2143.56 1507.76 2141.71 1512.45 2144.14C1517.13 2146.56 1518.96 2152.33 1516.56 2157.03L1482.07 2223.61C1480.61 2226.43 1481.7 2229.88 1484.5 2231.33L1491.37 2234.89C1494.17 2236.34 1497.62 2235.23 1499.07 2232.42L1500.86 2228.97L1500.89 2228.92L1511.07 2209.26C1513.51 2204.54 1519.3 2202.69 1524 2205.12C1528.69 2207.55 1530.52 2213.35 1528.07 2218.07L1480.08 2310.71C1477.64 2315.43 1471.85 2317.28 1467.16 2314.85C1462.46 2312.42 1460.64 2306.62 1463.08 2301.9L1469.86 2288.82L1469.89 2288.76L1471.68 2285.31C1473.13 2282.5 1472.04 2279.05 1469.25 2277.6L1462.37 2274.04C1459.58 2272.59 1456.13 2273.69 1454.67 2276.5L1443.33 2298.41C1440.87 2303.08 1435.11 2304.91 1430.43 2302.49C1425.73 2300.06 1423.91 2294.26 1426.35 2289.55L1428.34 2285.71C1429.79 2282.9 1428.7 2279.45 1425.91 2278L1419.03 2274.44C1416.24 2272.99 1412.79 2274.09 1411.33 2276.9L1411.31 2276.94L1386.54 2324.76C1384.1 2329.48 1378.31 2331.33 1373.61 2328.9C1368.92 2326.47 1367.09 2320.67 1369.54 2315.95L1388.23 2279.86L1388.26 2279.81L1392.43 2271.76C1393.88 2268.95 1392.8 2265.5 1390 2264.05L1383.13 2260.49C1380.33 2259.04 1376.88 2260.14 1375.42 2262.95L1359.32 2294.05C1356.86 2298.73 1351.09 2300.57 1346.41 2298.14C1341.72 2295.71 1339.89 2289.91 1342.34 2285.2L1347.42 2275.39L1347.44 2275.34L1351.27 2267.94C1352.73 2265.13 1351.64 2261.68 1348.84 2260.23L1341.97 2256.67C1339.17 2255.22 1335.72 2256.33 1334.27 2259.14L1322.93 2281.04C1320.47 2285.72 1314.7 2287.55 1310.02 2285.12C1305.33 2282.69 1303.5 2276.9 1305.95 2272.18L1324.3 2236.75L1324.33 2236.7L1324.41 2236.53C1325.87 2233.72 1324.78 2230.27 1321.98 2228.82L1315.11 2225.26C1312.31 2223.81 1308.86 2224.91 1307.41 2227.72L1303.21 2235.82C1300.75 2240.5 1294.99 2242.34 1290.31 2239.91C1285.62 2237.48 1283.79 2231.68 1286.23 2226.97L1336.95 2129.06C1339.39 2124.35 1345.18 2122.49 1349.87 2124.93C1354.55 2127.35 1356.38 2133.11 1353.98 2137.82L1346.38 2152.49C1344.92 2155.31 1346.01 2158.76 1348.81 2160.21L1355.68 2163.77C1358.48 2165.22 1361.92 2164.11 1363.38 2161.3L1364.83 2158.51L1364.85 2158.46L1397.5 2095.43C1399.95 2090.71 1405.73 2088.86 1410.43 2091.29C1415.11 2093.72 1416.94 2099.48 1414.53 2104.19ZM1447.48 2331.68C1449.94 2326.92 1455.78 2325.05 1460.51 2327.5C1465.25 2329.96 1467.09 2335.8 1464.62 2340.56C1462.16 2345.31 1456.33 2347.18 1451.59 2344.73C1446.86 2342.28 1445.02 2336.43 1447.48 2331.68Z" fill="#C9F1FF"/>
<path d="M1363.82 2098.17C1359.09 2095.71 1353.25 2097.58 1350.79 2102.34C1348.33 2107.1 1350.17 2112.94 1354.9 2115.39C1359.64 2117.84 1365.47 2115.98 1367.94 2111.22C1370.4 2106.46 1368.56 2100.62 1363.82 2098.17Z" fill="#1AB5EB"/>
<path d="M-12.8701 1618.77L-5.43694 1625.66C-3.99074 1627 -2.12464 1627.65 -0.252949 1627.65C1.9292 1627.65 4.08457 1626.77 5.54417 1625.02L10.076 1619.62C12.0192 1617.31 14.9194 1616.11 17.8163 1616.12C20.3044 1616.11 22.8194 1616.99 24.738 1618.77L32.1711 1625.66C33.6173 1627 35.4834 1627.65 37.3551 1627.65C39.5373 1627.65 41.6926 1626.77 43.1522 1625.02L47.684 1619.62C49.6272 1617.31 52.5274 1616.11 55.4243 1616.12C57.9135 1616.11 60.4274 1616.99 62.346 1618.77L69.7791 1625.66C71.2265 1627 73.0914 1627.65 74.9631 1627.65C77.1453 1627.65 79.3007 1626.77 80.7592 1625.02L85.2921 1619.62C87.2352 1617.31 90.1355 1616.11 93.0323 1616.12C95.5205 1616.11 98.0354 1616.99 99.9551 1618.77L107.387 1625.66C108.833 1627 110.699 1627.65 112.571 1627.65C114.754 1627.65 116.909 1626.77 118.368 1625.02L122.9 1619.62C124.843 1617.31 127.743 1616.11 130.64 1616.12C133.128 1616.11 135.642 1616.99 137.562 1618.77L144.995 1625.66C146.441 1627 148.308 1627.65 150.178 1627.65C152.361 1627.65 154.516 1626.77 155.976 1625.02L160.508 1619.62C162.451 1617.31 165.352 1616.11 168.248 1616.12C170.737 1616.11 173.252 1616.99 175.17 1618.77L182.603 1625.66C184.049 1627 185.914 1627.65 187.787 1627.65C189.971 1627.65 192.125 1626.77 193.584 1625.02L198.117 1619.62C200.059 1617.31 202.96 1616.11 205.856 1616.12C208.346 1616.11 210.86 1616.99 212.779 1618.77L220.211 1625.66L218.471 1627.27L211.039 1620.38C209.594 1619.05 207.729 1618.4 205.856 1618.39C203.674 1618.4 201.52 1619.28 200.058 1621.02L195.526 1626.42C193.587 1628.74 190.685 1629.93 187.787 1629.93C185.299 1629.93 182.785 1629.05 180.864 1627.27L173.431 1620.38C171.986 1619.05 170.121 1618.4 168.248 1618.39C166.066 1618.4 163.912 1619.28 162.45 1621.02L157.918 1626.42C155.976 1628.74 153.076 1629.93 150.178 1629.93C147.69 1629.93 145.176 1629.05 143.256 1627.27L135.823 1620.38C134.378 1619.05 132.513 1618.4 130.64 1618.39C128.458 1618.4 126.303 1619.28 124.842 1621.02L120.31 1626.42C118.369 1628.74 115.469 1629.93 112.571 1629.93C110.083 1629.93 107.569 1629.05 105.648 1627.27L98.2153 1620.38C96.7702 1619.05 94.9052 1618.4 93.0323 1618.39C90.8513 1618.4 88.696 1619.28 87.2341 1621.02L82.7023 1626.42C80.7614 1628.74 77.8611 1629.93 74.9631 1629.93C72.475 1629.93 69.9612 1629.05 68.0404 1627.27L60.6072 1620.38C59.1621 1619.05 57.2971 1618.4 55.4243 1618.39C53.2444 1618.4 51.0879 1619.28 49.625 1621.02L45.0942 1626.42C43.1533 1628.74 40.252 1629.93 37.3551 1629.93C34.867 1629.93 32.3531 1629.05 30.4323 1627.27L22.9992 1620.38C21.5541 1619.05 19.6891 1618.4 17.8163 1618.39C15.6352 1618.4 13.4799 1619.28 12.0181 1621.02L7.48624 1626.42C5.54531 1628.74 2.64504 1629.93 -0.252949 1629.93C-2.74221 1629.93 -5.25489 1629.05 -7.17572 1627.27L-14.6089 1620.38L-12.8701 1618.77Z" fill="#C9F1FF"/>
<path d="M-54.3346 1663.67L-47.0108 1670.55C-45.5859 1671.89 -43.7472 1672.54 -41.903 1672.54C-39.753 1672.54 -37.6293 1671.66 -36.1912 1669.92L-31.726 1664.51C-29.8114 1662.2 -26.9538 1661.01 -24.0995 1661.01C-21.648 1661.01 -19.17 1661.89 -17.2796 1663.67L-9.95579 1670.55C-8.53085 1671.89 -6.6922 1672.54 -4.84803 1672.54C-2.69797 1672.54 -0.574303 1671.66 0.863839 1669.92L5.32896 1664.51C7.24355 1662.2 10.1011 1661.01 12.9554 1661.01C15.4081 1661.01 17.8849 1661.89 19.7753 1663.67L27.0992 1670.55C28.5252 1671.89 30.3627 1672.54 32.2069 1672.54C34.357 1672.54 36.4807 1671.66 37.9177 1669.92L42.384 1664.51C44.2986 1662.2 47.1561 1661.01 50.0104 1661.01C52.462 1661.01 54.9399 1661.89 56.8314 1663.67L64.1542 1670.55C65.5791 1671.89 67.4177 1672.54 69.2619 1672.54C71.4131 1672.54 73.5356 1671.66 74.9738 1669.92L79.4389 1664.51C81.3535 1662.2 84.2111 1661.01 87.0654 1661.01C89.5169 1661.01 91.9938 1661.89 93.8852 1663.67L101.209 1670.55C102.634 1671.89 104.473 1672.54 106.316 1672.54C108.467 1672.54 110.589 1671.66 112.029 1669.92L116.494 1664.51C118.409 1662.2 121.266 1661.01 124.12 1661.01C126.572 1661.01 129.05 1661.89 130.94 1663.67L138.264 1670.55C139.689 1671.89 141.527 1672.54 143.372 1672.54C145.523 1672.54 147.646 1671.66 149.084 1669.92L153.55 1664.51C155.463 1662.2 158.321 1661.01 161.175 1661.01C163.628 1661.01 166.105 1661.89 167.996 1663.67L175.319 1670.55L173.605 1672.16L166.282 1665.28C164.858 1663.94 163.021 1663.29 161.175 1663.29C159.025 1663.29 156.903 1664.17 155.462 1665.91L150.997 1671.31C149.086 1673.63 146.227 1674.82 143.372 1674.82C140.92 1674.82 138.443 1673.94 136.551 1672.16L129.227 1665.28C127.803 1663.94 125.966 1663.29 124.12 1663.29C121.97 1663.29 119.848 1664.17 118.407 1665.91L113.942 1671.31C112.029 1673.63 109.171 1674.82 106.316 1674.82C103.864 1674.82 101.387 1673.94 99.4959 1672.16L92.172 1665.28C90.7482 1663.94 88.9106 1663.29 87.0654 1663.29C84.9153 1663.29 82.7917 1664.17 81.3524 1665.91L76.8872 1671.31C74.9748 1673.63 72.1173 1674.82 69.2619 1674.82C66.8104 1674.82 64.3335 1673.94 62.4409 1672.16L55.1171 1665.28C53.6933 1663.94 51.8557 1663.29 50.0104 1663.29C47.8615 1663.29 45.7378 1664.17 44.2975 1665.91L39.8323 1671.31C37.9199 1673.63 35.0623 1674.82 32.2069 1674.82C29.7554 1674.82 27.2785 1673.94 25.3859 1672.16L18.0621 1665.28C16.6383 1663.94 14.8007 1663.29 12.9554 1663.29C10.8076 1663.29 8.68283 1664.17 7.24139 1665.91L2.77729 1671.31C0.864897 1673.63 -1.99376 1674.82 -4.84803 1674.82C-7.29958 1674.82 -9.77647 1673.94 -11.669 1672.16L-18.9929 1665.28C-20.4167 1663.94 -22.2543 1663.29 -24.0995 1663.29C-26.2485 1663.29 -28.3721 1664.17 -29.8125 1665.91L-34.2777 1671.31C-36.19 1673.63 -39.0477 1674.82 -41.903 1674.82C-44.3557 1674.82 -46.8314 1673.94 -48.724 1672.16L-56.0479 1665.28L-54.3346 1663.67Z" fill="#C9F1FF"/>
<path fill-rule="evenodd" clip-rule="evenodd" d="M973.783 1906.19C973.803 1905.61 973.812 1905.04 973.812 1904.46C973.812 1903.88 973.803 1903.31 973.783 1902.73H873.698C873.678 1903.31 873.668 1903.88 873.668 1904.46C873.668 1905.04 873.678 1905.61 873.698 1906.19H973.783ZM973.548 1909.64H873.933C874.053 1910.8 874.212 1911.96 874.41 1913.09H973.071C973.269 1911.96 973.428 1910.8 973.548 1909.64ZM972.344 1916.55H875.137C875.426 1917.71 875.757 1918.87 876.127 1920H971.354C971.724 1918.87 972.054 1917.71 972.344 1916.55ZM970.085 1923.45H877.396C877.878 1924.63 878.403 1925.78 878.969 1926.91H968.512C969.078 1925.78 969.603 1924.63 970.085 1923.45ZM966.603 1930.36H880.878C881.595 1931.54 882.36 1932.7 883.17 1933.81H964.311C965.121 1932.7 965.886 1931.54 966.603 1930.36ZM961.57 1937.27H885.911C886.955 1938.47 888.055 1939.62 889.208 1940.72H958.273C959.425 1939.62 960.526 1938.47 961.57 1937.27ZM954.243 1944.17H893.238C894.865 1945.42 896.572 1946.58 898.349 1947.63H949.132C950.909 1946.58 952.615 1945.42 954.243 1944.17ZM942.05 1951.08H905.431C911.102 1953.31 917.278 1954.53 923.74 1954.53C930.203 1954.53 936.379 1953.31 942.05 1951.08ZM873.933 1899.28H973.548C973.428 1898.12 973.269 1896.97 973.071 1895.83H874.41C874.212 1896.97 874.053 1898.12 873.933 1899.28ZM875.137 1892.37H972.344C972.054 1891.21 971.724 1890.05 971.354 1888.92H876.127C875.757 1890.05 875.426 1891.21 875.137 1892.37ZM877.396 1885.47H970.085C969.603 1884.29 969.078 1883.14 968.512 1882.01H878.969C878.403 1883.14 877.878 1884.29 877.396 1885.47ZM880.878 1878.56H966.603C965.886 1877.38 965.121 1876.23 964.311 1875.11H883.17C882.36 1876.23 881.595 1877.38 880.878 1878.56ZM885.911 1871.65H961.57C960.526 1870.45 959.425 1869.3 958.273 1868.2H889.208C888.055 1869.3 886.955 1870.45 885.911 1871.65ZM893.238 1864.75H954.243C952.615 1863.5 950.909 1862.34 949.132 1861.3H898.349C896.572 1862.34 894.865 1863.5 893.238 1864.75ZM905.431 1857.84H942.05C936.379 1855.61 930.203 1854.39 923.74 1854.39C917.278 1854.39 911.102 1855.61 905.431 1857.84Z" fill="#C9F1FF"/>
<path d="M438.023 -40.3337C435.818 -40.3337 434.031 -42.1271 434.031 -44.3395C434.031 -46.5518 435.818 -48.3452 438.023 -48.3452C440.227 -48.3452 442.015 -46.5518 442.015 -44.3395C442.015 -42.1271 440.227 -40.3337 438.023 -40.3337Z" fill="#C9F1FF"/>
<path d="M418.9 -40.3337C416.695 -40.3337 414.908 -42.1271 414.908 -44.3395C414.908 -46.5518 416.695 -48.3452 418.9 -48.3452C421.105 -48.3452 422.892 -46.5518 422.892 -44.3395C422.892 -42.1271 421.105 -40.3337 418.9 -40.3337Z" fill="#C9F1FF"/>
<path d="M395.786 -44.3395C395.786 -42.1271 397.573 -40.3337 399.777 -40.3337C401.982 -40.3337 403.769 -42.1271 403.769 -44.3395C403.769 -46.5518 401.982 -48.3452 399.777 -48.3452C397.573 -48.3452 395.786 -46.5518 395.786 -44.3395Z" fill="#C9F1FF"/>
<path d="M380.655 -40.3337C378.45 -40.3337 376.663 -42.1271 376.663 -44.3395C376.663 -46.5518 378.45 -48.3452 380.655 -48.3452C382.859 -48.3452 384.647 -46.5518 384.647 -44.3395C384.647 -42.1271 382.859 -40.3337 380.655 -40.3337Z" fill="#C9F1FF"/>
<path d="M357.54 -44.3395C357.54 -42.1271 359.327 -40.3337 361.532 -40.3337C363.737 -40.3337 365.524 -42.1271 365.524 -44.3395C365.524 -46.5518 363.737 -48.3452 361.532 -48.3452C359.327 -48.3452 357.54 -46.5518 357.54 -44.3395Z" fill="#C9F1FF"/>
<path d="M342.409 -40.3337C340.205 -40.3337 338.418 -42.1271 338.418 -44.3395C338.418 -46.5518 340.205 -48.3452 342.409 -48.3452C344.614 -48.3452 346.401 -46.5518 346.401 -44.3395C346.401 -42.1271 344.614 -40.3337 342.409 -40.3337Z" fill="#C9F1FF"/>
<path d="M434.031 -28.3164C434.031 -26.1041 435.818 -24.3107 438.023 -24.3107C440.227 -24.3107 442.015 -26.1041 442.015 -28.3164C442.015 -30.5288 440.227 -32.3222 438.023 -32.3222C435.818 -32.3222 434.031 -30.5288 434.031 -28.3164Z" fill="#C9F1FF"/>
<path d="M418.9 -24.3107C416.695 -24.3107 414.908 -26.1041 414.908 -28.3165C414.908 -30.5288 416.695 -32.3222 418.9 -32.3222C421.105 -32.3222 422.892 -30.5288 422.892 -28.3165C422.892 -26.1041 421.105 -24.3107 418.9 -24.3107Z" fill="#C9F1FF"/>
<path d="M395.786 -28.3165C395.786 -26.1041 397.573 -24.3107 399.777 -24.3107C401.982 -24.3107 403.769 -26.1041 403.769 -28.3165C403.769 -30.5288 401.982 -32.3222 399.777 -32.3222C397.573 -32.3222 395.786 -30.5288 395.786 -28.3165Z" fill="#C9F1FF"/>
<path d="M380.655 -24.3107C378.45 -24.3107 376.663 -26.1041 376.663 -28.3165C376.663 -30.5288 378.45 -32.3222 380.655 -32.3222C382.859 -32.3222 384.647 -30.5288 384.647 -28.3165C384.647 -26.1041 382.859 -24.3107 380.655 -24.3107Z" fill="#C9F1FF"/>
<path d="M357.54 -28.3165C357.54 -26.1041 359.327 -24.3107 361.532 -24.3107C363.737 -24.3107 365.524 -26.1041 365.524 -28.3165C365.524 -30.5288 363.737 -32.3222 361.532 -32.3222C359.327 -32.3222 357.54 -30.5288 357.54 -28.3165Z" fill="#C9F1FF"/>
<path d="M342.409 -24.3107C340.205 -24.3107 338.418 -26.1041 338.418 -28.3165C338.418 -30.5288 340.205 -32.3222 342.409 -32.3222C344.614 -32.3222 346.401 -30.5288 346.401 -28.3165C346.401 -26.1041 344.614 -24.3107 342.409 -24.3107Z" fill="#C9F1FF"/>
<path d="M434.031 -12.2934C434.031 -10.0811 435.818 -8.28765 438.023 -8.28765C440.227 -8.28765 442.015 -10.0811 442.015 -12.2934C442.015 -14.5057 440.227 -16.2992 438.023 -16.2992C435.818 -16.2992 434.031 -14.5057 434.031 -12.2934Z" fill="#C9F1FF"/>
<path d="M418.9 -8.28766C416.695 -8.28766 414.908 -10.0811 414.908 -12.2934C414.908 -14.5057 416.695 -16.2992 418.9 -16.2992C421.105 -16.2992 422.892 -14.5057 422.892 -12.2934C422.892 -10.0811 421.105 -8.28766 418.9 -8.28766Z" fill="#C9F1FF"/>
<path d="M395.786 -12.2934C395.786 -10.0811 397.573 -8.28766 399.777 -8.28766C401.982 -8.28766 403.769 -10.0811 403.769 -12.2934C403.769 -14.5057 401.982 -16.2992 399.777 -16.2992C397.573 -16.2992 395.786 -14.5057 395.786 -12.2934Z" fill="#C9F1FF"/>
<path d="M380.655 -8.28766C378.45 -8.28766 376.663 -10.0811 376.663 -12.2934C376.663 -14.5057 378.45 -16.2992 380.655 -16.2992C382.859 -16.2992 384.647 -14.5057 384.647 -12.2934C384.647 -10.0811 382.859 -8.28766 380.655 -8.28766Z" fill="#C9F1FF"/>
<path d="M357.54 -12.2934C357.54 -10.0811 359.327 -8.28766 361.532 -8.28766C363.737 -8.28766 365.524 -10.0811 365.524 -12.2934C365.524 -14.5057 363.737 -16.2992 361.532 -16.2992C359.327 -16.2992 357.54 -14.5057 357.54 -12.2934Z" fill="#C9F1FF"/>
<path d="M342.409 -8.28766C340.205 -8.28766 338.418 -10.0811 338.418 -12.2934C338.418 -14.5057 340.205 -16.2992 342.409 -16.2992C344.614 -16.2992 346.401 -14.5057 346.401 -12.2934C346.401 -10.0811 344.614 -8.28766 342.409 -8.28766Z" fill="#C9F1FF"/>
<path d="M434.031 3.7296C434.031 5.94192 435.818 7.73536 438.023 7.73536C440.227 7.73536 442.015 5.94192 442.015 3.7296C442.015 1.51728 440.227 -0.276154 438.023 -0.276154C435.818 -0.276154 434.031 1.51728 434.031 3.7296Z" fill="#C9F1FF"/>
<path d="M418.9 7.73536C416.695 7.73536 414.908 5.94193 414.908 3.72961C414.908 1.51729 416.695 -0.27615 418.9 -0.27615C421.105 -0.27615 422.892 1.51729 422.892 3.72961C422.892 5.94193 421.105 7.73536 418.9 7.73536Z" fill="#C9F1FF"/>
<path d="M395.786 3.72961C395.786 5.94193 397.573 7.73536 399.777 7.73536C401.982 7.73536 403.769 5.94193 403.769 3.72961C403.769 1.51729 401.982 -0.27615 399.777 -0.27615C397.573 -0.27615 395.786 1.51729 395.786 3.72961Z" fill="#C9F1FF"/>
<path d="M380.655 7.73536C378.45 7.73536 376.663 5.94193 376.663 3.72961C376.663 1.51729 378.45 -0.27615 380.655 -0.27615C382.859 -0.27615 384.647 1.51729 384.647 3.72961C384.647 5.94193 382.859 7.73536 380.655 7.73536Z" fill="#C9F1FF"/>
<path d="M357.54 3.72961C357.54 5.94193 359.327 7.73536 361.532 7.73536C363.737 7.73536 365.524 5.94193 365.524 3.72961C365.524 1.51729 363.737 -0.27615 361.532 -0.27615C359.327 -0.27615 357.54 1.51729 357.54 3.72961Z" fill="#C9F1FF"/>
<path d="M342.409 7.73536C340.205 7.73536 338.418 5.94193 338.418 3.72961C338.418 1.51729 340.205 -0.27615 342.409 -0.27615C344.614 -0.27615 346.401 1.51729 346.401 3.72961C346.401 5.94193 344.614 7.73536 342.409 7.73536Z" fill="#C9F1FF"/>
<path d="M434.031 19.7526C434.031 21.965 435.818 23.7584 438.023 23.7584C440.227 23.7584 442.015 21.965 442.015 19.7526C442.015 17.5403 440.227 15.7469 438.023 15.7469C435.818 15.7469 434.031 17.5403 434.031 19.7526Z" fill="#C9F1FF"/>
<path d="M418.9 23.7584C416.695 23.7584 414.908 21.965 414.908 19.7526C414.908 17.5403 416.695 15.7469 418.9 15.7469C421.105 15.7469 422.892 17.5403 422.892 19.7526C422.892 21.965 421.105 23.7584 418.9 23.7584Z" fill="#C9F1FF"/>
<path d="M395.786 19.7526C395.786 21.965 397.573 23.7584 399.777 23.7584C401.982 23.7584 403.769 21.965 403.769 19.7526C403.769 17.5403 401.982 15.7469 399.777 15.7469C397.573 15.7469 395.786 17.5403 395.786 19.7526Z" fill="#C9F1FF"/>
<path d="M380.655 23.7584C378.45 23.7584 376.663 21.965 376.663 19.7526C376.663 17.5403 378.45 15.7469 380.655 15.7469C382.859 15.7469 384.647 17.5403 384.647 19.7526C384.647 21.965 382.859 23.7584 380.655 23.7584Z" fill="#C9F1FF"/>
<path d="M357.54 19.7526C357.54 21.965 359.327 23.7584 361.532 23.7584C363.737 23.7584 365.524 21.965 365.524 19.7526C365.524 17.5403 363.737 15.7469 361.532 15.7469C359.327 15.7469 357.54 17.5403 357.54 19.7526Z" fill="#C9F1FF"/>
<path d="M342.409 23.7584C340.205 23.7584 338.418 21.965 338.418 19.7526C338.418 17.5403 340.205 15.7469 342.409 15.7469C344.614 15.7469 346.401 17.5403 346.401 19.7526C346.401 21.965 344.614 23.7584 342.409 23.7584Z" fill="#C9F1FF"/>
<path d="M434.031 35.7757C434.031 37.988 435.818 39.7814 438.023 39.7814C440.227 39.7814 442.015 37.988 442.015 35.7757C442.015 33.5633 440.227 31.7699 438.023 31.7699C435.818 31.7699 434.031 33.5633 434.031 35.7757Z" fill="#C9F1FF"/>
<path d="M418.9 39.7814C416.695 39.7814 414.908 37.988 414.908 35.7757C414.908 33.5633 416.695 31.7699 418.9 31.7699C421.105 31.7699 422.892 33.5633 422.892 35.7757C422.892 37.988 421.105 39.7814 418.9 39.7814Z" fill="#C9F1FF"/>
<path d="M395.786 35.7757C395.786 37.988 397.573 39.7814 399.777 39.7814C401.982 39.7814 403.769 37.988 403.769 35.7757C403.769 33.5633 401.982 31.7699 399.777 31.7699C397.573 31.7699 395.786 33.5633 395.786 35.7757Z" fill="#C9F1FF"/>
<path d="M380.655 39.7814C378.45 39.7814 376.663 37.988 376.663 35.7757C376.663 33.5633 378.45 31.7699 380.655 31.7699C382.859 31.7699 384.647 33.5633 384.647 35.7757C384.647 37.988 382.859 39.7814 380.655 39.7814Z" fill="#C9F1FF"/>
<path d="M357.54 35.7757C357.54 37.988 359.327 39.7814 361.532 39.7814C363.737 39.7814 365.524 37.988 365.524 35.7757C365.524 33.5633 363.737 31.7699 361.532 31.7699C359.327 31.7699 357.54 33.5633 357.54 35.7757Z" fill="#C9F1FF"/>
<path d="M342.409 39.7814C340.205 39.7814 338.418 37.988 338.418 35.7757C338.418 33.5633 340.205 31.7699 342.409 31.7699C344.614 31.7699 346.401 33.5633 346.401 35.7757C346.401 37.988 344.614 39.7814 342.409 39.7814Z" fill="#C9F1FF"/>
<path d="M434.031 51.7987C434.031 54.011 435.818 55.8044 438.023 55.8044C440.227 55.8044 442.015 54.011 442.015 51.7987C442.015 49.5863 440.227 47.7929 438.023 47.7929C435.818 47.7929 434.031 49.5863 434.031 51.7987Z" fill="#C9F1FF"/>
<path d="M418.9 55.8044C416.695 55.8044 414.908 54.011 414.908 51.7987C414.908 49.5864 416.695 47.7929 418.9 47.7929C421.105 47.7929 422.892 49.5864 422.892 51.7987C422.892 54.011 421.105 55.8044 418.9 55.8044Z" fill="#C9F1FF"/>
<path d="M395.786 51.7987C395.786 54.011 397.573 55.8044 399.777 55.8044C401.982 55.8044 403.769 54.011 403.769 51.7987C403.769 49.5864 401.982 47.7929 399.777 47.7929C397.573 47.7929 395.786 49.5864 395.786 51.7987Z" fill="#C9F1FF"/>
<path d="M380.655 55.8044C378.45 55.8044 376.663 54.011 376.663 51.7987C376.663 49.5864 378.45 47.7929 380.655 47.7929C382.859 47.7929 384.647 49.5864 384.647 51.7987C384.647 54.011 382.859 55.8044 380.655 55.8044Z" fill="#C9F1FF"/>
<path d="M357.54 51.7987C357.54 54.011 359.327 55.8044 361.532 55.8044C363.737 55.8044 365.524 54.011 365.524 51.7987C365.524 49.5864 363.737 47.7929 361.532 47.7929C359.327 47.7929 357.54 49.5864 357.54 51.7987Z" fill="#C9F1FF"/>
<path d="M342.409 55.8044C340.205 55.8044 338.418 54.011 338.418 51.7987C338.418 49.5864 340.205 47.7929 342.409 47.7929C344.614 47.7929 346.401 49.5864 346.401 51.7987C346.401 54.011 344.614 55.8044 342.409 55.8044Z" fill="#C9F1FF"/>
<path d="M434.031 67.8217C434.031 70.034 435.818 71.8274 438.023 71.8274C440.227 71.8274 442.015 70.034 442.015 67.8217C442.015 65.6094 440.227 63.8159 438.023 63.8159C435.818 63.8159 434.031 65.6094 434.031 67.8217Z" fill="#C9F1FF"/>
<path d="M418.9 71.8274C416.695 71.8274 414.908 70.034 414.908 67.8217C414.908 65.6094 416.695 63.8159 418.9 63.8159C421.105 63.8159 422.892 65.6094 422.892 67.8217C422.892 70.034 421.105 71.8274 418.9 71.8274Z" fill="#C9F1FF"/>
<path d="M395.786 67.8217C395.786 70.034 397.573 71.8274 399.777 71.8274C401.982 71.8274 403.769 70.034 403.769 67.8217C403.769 65.6094 401.982 63.8159 399.777 63.8159C397.573 63.8159 395.786 65.6094 395.786 67.8217Z" fill="#C9F1FF"/>
<path d="M380.655 71.8274C378.45 71.8274 376.663 70.034 376.663 67.8217C376.663 65.6094 378.45 63.8159 380.655 63.8159C382.859 63.8159 384.647 65.6094 384.647 67.8217C384.647 70.034 382.859 71.8274 380.655 71.8274Z" fill="#C9F1FF"/>
<path d="M357.54 67.8217C357.54 70.034 359.327 71.8274 361.532 71.8274C363.737 71.8274 365.524 70.034 365.524 67.8217C365.524 65.6094 363.737 63.8159 361.532 63.8159C359.327 63.8159 357.54 65.6094 357.54 67.8217Z" fill="#C9F1FF"/>
<path d="M342.409 71.8274C340.205 71.8274 338.418 70.034 338.418 67.8217C338.418 65.6094 340.205 63.8159 342.409 63.8159C344.614 63.8159 346.401 65.6094 346.401 67.8217C346.401 70.034 344.614 71.8274 342.409 71.8274Z" fill="#C9F1FF"/>
<path d="M434.031 83.8447C434.031 86.057 435.818 87.8505 438.023 87.8505C440.227 87.8505 442.015 86.057 442.015 83.8447C442.015 81.6324 440.227 79.839 438.023 79.839C435.818 79.839 434.031 81.6324 434.031 83.8447Z" fill="#C9F1FF"/>
<path d="M418.9 87.8505C416.695 87.8505 414.908 86.057 414.908 83.8447C414.908 81.6324 416.695 79.839 418.9 79.839C421.105 79.839 422.892 81.6324 422.892 83.8447C422.892 86.057 421.105 87.8505 418.9 87.8505Z" fill="#C9F1FF"/>
<path d="M395.786 83.8447C395.786 86.057 397.573 87.8505 399.777 87.8505C401.982 87.8505 403.769 86.057 403.769 83.8447C403.769 81.6324 401.982 79.839 399.777 79.839C397.573 79.839 395.786 81.6324 395.786 83.8447Z" fill="#C9F1FF"/>
<path d="M380.655 87.8505C378.45 87.8505 376.663 86.057 376.663 83.8447C376.663 81.6324 378.45 79.839 380.655 79.839C382.859 79.839 384.647 81.6324 384.647 83.8447C384.647 86.057 382.859 87.8505 380.655 87.8505Z" fill="#C9F1FF"/>
<path d="M357.54 83.8447C357.54 86.057 359.327 87.8505 361.532 87.8505C363.737 87.8505 365.524 86.057 365.524 83.8447C365.524 81.6324 363.737 79.839 361.532 79.839C359.327 79.839 357.54 81.6324 357.54 83.8447Z" fill="#C9F1FF"/>
<path d="M342.409 87.8505C340.205 87.8505 338.418 86.057 338.418 83.8447C338.418 81.6324 340.205 79.839 342.409 79.839C344.614 79.839 346.401 81.6324 346.401 83.8447C346.401 86.057 344.614 87.8505 342.409 87.8505Z" fill="#C9F1FF"/>
<path d="M434.031 99.8677C434.031 102.08 435.818 103.873 438.023 103.873C440.227 103.873 442.015 102.08 442.015 99.8677C442.015 97.6554 440.227 95.862 438.023 95.862C435.818 95.862 434.031 97.6554 434.031 99.8677Z" fill="#C9F1FF"/>
<path d="M418.9 103.873C416.695 103.873 414.908 102.08 414.908 99.8677C414.908 97.6554 416.695 95.862 418.9 95.862C421.105 95.862 422.892 97.6554 422.892 99.8677C422.892 102.08 421.105 103.873 418.9 103.873Z" fill="#C9F1FF"/>
<path d="M395.786 99.8677C395.786 102.08 397.573 103.873 399.777 103.873C401.982 103.873 403.769 102.08 403.769 99.8677C403.769 97.6554 401.982 95.862 399.777 95.862C397.573 95.862 395.786 97.6554 395.786 99.8677Z" fill="#C9F1FF"/>
<path d="M380.655 103.873C378.45 103.873 376.663 102.08 376.663 99.8677C376.663 97.6554 378.45 95.862 380.655 95.862C382.859 95.862 384.647 97.6554 384.647 99.8677C384.647 102.08 382.859 103.873 380.655 103.873Z" fill="#C9F1FF"/>
<path d="M357.54 99.8677C357.54 102.08 359.327 103.873 361.532 103.873C363.737 103.873 365.524 102.08 365.524 99.8677C365.524 97.6554 363.737 95.862 361.532 95.862C359.327 95.862 357.54 97.6554 357.54 99.8677Z" fill="#C9F1FF"/>
<path d="M342.409 103.873C340.205 103.873 338.418 102.08 338.418 99.8677C338.418 97.6554 340.205 95.862 342.409 95.862C344.614 95.862 346.401 97.6554 346.401 99.8677C346.401 102.08 344.614 103.873 342.409 103.873Z" fill="#C9F1FF"/>
<path d="M434.031 115.891C434.031 118.103 435.818 119.897 438.023 119.897C440.227 119.897 442.015 118.103 442.015 115.891C442.015 113.678 440.227 111.885 438.023 111.885C435.818 111.885 434.031 113.678 434.031 115.891Z" fill="#C9F1FF"/>
<path d="M418.9 119.897C416.695 119.897 414.908 118.103 414.908 115.891C414.908 113.678 416.695 111.885 418.9 111.885C421.105 111.885 422.892 113.678 422.892 115.891C422.892 118.103 421.105 119.897 418.9 119.897Z" fill="#C9F1FF"/>
<path d="M395.786 115.891C395.786 118.103 397.573 119.897 399.777 119.897C401.982 119.897 403.769 118.103 403.769 115.891C403.769 113.678 401.982 111.885 399.777 111.885C397.573 111.885 395.786 113.678 395.786 115.891Z" fill="#C9F1FF"/>
<path d="M380.655 119.897C378.45 119.897 376.663 118.103 376.663 115.891C376.663 113.678 378.45 111.885 380.655 111.885C382.859 111.885 384.647 113.678 384.647 115.891C384.647 118.103 382.859 119.897 380.655 119.897Z" fill="#C9F1FF"/>
<path d="M357.54 115.891C357.54 118.103 359.327 119.897 361.532 119.897C363.737 119.897 365.524 118.103 365.524 115.891C365.524 113.678 363.737 111.885 361.532 111.885C359.327 111.885 357.54 113.678 357.54 115.891Z" fill="#C9F1FF"/>
<path d="M342.409 119.897C340.205 119.897 338.418 118.103 338.418 115.891C338.418 113.678 340.205 111.885 342.409 111.885C344.614 111.885 346.401 113.678 346.401 115.891C346.401 118.103 344.614 119.897 342.409 119.897Z" fill="#C9F1FF"/>
<path d="M434.031 131.914C434.031 134.126 435.818 135.92 438.023 135.92C440.227 135.92 442.015 134.126 442.015 131.914C442.015 129.701 440.227 127.908 438.023 127.908C435.818 127.908 434.031 129.701 434.031 131.914Z" fill="#C9F1FF"/>
<path d="M418.9 135.92C416.695 135.92 414.908 134.126 414.908 131.914C414.908 129.701 416.695 127.908 418.9 127.908C421.105 127.908 422.892 129.701 422.892 131.914C422.892 134.126 421.105 135.92 418.9 135.92Z" fill="#C9F1FF"/>
<path d="M395.786 131.914C395.786 134.126 397.573 135.92 399.777 135.92C401.982 135.92 403.769 134.126 403.769 131.914C403.769 129.701 401.982 127.908 399.777 127.908C397.573 127.908 395.786 129.701 395.786 131.914Z" fill="#C9F1FF"/>
<path d="M380.655 135.92C378.45 135.92 376.663 134.126 376.663 131.914C376.663 129.701 378.45 127.908 380.655 127.908C382.859 127.908 384.647 129.701 384.647 131.914C384.647 134.126 382.859 135.92 380.655 135.92Z" fill="#C9F1FF"/>
<path d="M357.54 131.914C357.54 134.126 359.327 135.92 361.532 135.92C363.737 135.92 365.524 134.126 365.524 131.914C365.524 129.701 363.737 127.908 361.532 127.908C359.327 127.908 357.54 129.701 357.54 131.914Z" fill="#C9F1FF"/>
<path d="M342.409 135.92C340.205 135.92 338.418 134.126 338.418 131.914C338.418 129.701 340.205 127.908 342.409 127.908C344.614 127.908 346.401 129.701 346.401 131.914C346.401 134.126 344.614 135.92 342.409 135.92Z" fill="#C9F1FF"/>
<path d="M434.031 147.937C434.031 150.149 435.818 151.943 438.023 151.943C440.227 151.943 442.015 150.149 442.015 147.937C442.015 145.725 440.227 143.931 438.023 143.931C435.818 143.931 434.031 145.725 434.031 147.937Z" fill="#C9F1FF"/>
<path d="M418.9 151.943C416.695 151.943 414.908 150.149 414.908 147.937C414.908 145.725 416.695 143.931 418.9 143.931C421.105 143.931 422.892 145.725 422.892 147.937C422.892 150.149 421.105 151.943 418.9 151.943Z" fill="#C9F1FF"/>
<path d="M395.786 147.937C395.786 150.149 397.573 151.943 399.777 151.943C401.982 151.943 403.769 150.149 403.769 147.937C403.769 145.725 401.982 143.931 399.777 143.931C397.573 143.931 395.786 145.725 395.786 147.937Z" fill="#C9F1FF"/>
<path d="M380.655 151.943C378.45 151.943 376.663 150.149 376.663 147.937C376.663 145.725 378.45 143.931 380.655 143.931C382.859 143.931 384.647 145.725 384.647 147.937C384.647 150.149 382.859 151.943 380.655 151.943Z" fill="#C9F1FF"/>
<path d="M357.54 147.937C357.54 150.149 359.327 151.943 361.532 151.943C363.737 151.943 365.524 150.149 365.524 147.937C365.524 145.725 363.737 143.931 361.532 143.931C359.327 143.931 357.54 145.725 357.54 147.937Z" fill="#C9F1FF"/>
<path d="M342.409 151.943C340.205 151.943 338.418 150.149 338.418 147.937C338.418 145.725 340.205 143.931 342.409 143.931C344.614 143.931 346.401 145.725 346.401 147.937C346.401 150.149 344.614 151.943 342.409 151.943Z" fill="#C9F1FF"/>
<path fill-rule="evenodd" clip-rule="evenodd" d="M642.212 2814.36L529.972 2731.86L514.643 2870.32L642.212 2814.36ZM627.271 2812.71L536.01 2745.63L523.546 2858.2L627.271 2812.71Z" fill="#C9F1FF"/>
<path fill-rule="evenodd" clip-rule="evenodd" d="M1499.05 232.122L1396.73 137.595L1366.02 273.47L1499.05 232.122ZM1484.38 228.808L1401.19 151.951L1376.22 262.428L1484.38 228.808Z" fill="#C9F1FF"/>
</g>
<defs>
<clipPath id="clip0">
<rect width="1440" height="3045.76" fill="white"/>
</clipPath>
</defs>
</svg>
