<svg width="89" height="100" viewBox="0 0 89 100" fill="none" xmlns="http://www.w3.org/2000/svg">
<path fill-rule="evenodd" clip-rule="evenodd" d="M43.7456 0V21.0884H45.1061V0H43.7456ZM27.5551 25.5782L15.3102 9.2517L16.3986 8.43537L28.6435 24.7619L27.5551 25.5782ZM0 31.2599L19.0476 37.3823L19.464 36.0871L0.416339 29.9646L0 31.2599ZM1.1535 60.4905L18.8406 53.0075L18.3105 51.7544L0.62338 59.2374L1.1535 60.4905ZM88.8723 31.2529L69.8247 38.0556L69.3671 36.7743L88.4147 29.9716L88.8723 31.2529ZM69.3196 53.0026L87.687 61.1659L88.2396 59.9226L69.8722 51.7593L69.3196 53.0026Z" fill="white"/>
<path fill-rule="evenodd" clip-rule="evenodd" d="M35.3742 74.8299H50.3402V76.1905H51.7007V77.551H50.3402V78.9116H35.3742V77.551H34.0137V76.1905H35.3742V74.8299ZM35.3742 81.6327H34.0137V82.9932H35.3742V84.3537H50.3402V82.9932H51.7007V81.6327H50.3402V80.2721H35.3742V81.6327ZM39.4558 88.4354V87.0748H38.0953V85.7143H47.6191V87.0748H46.2586V88.4354H39.4558Z" fill="white"/>
<path d="M33.3896 68.0272L25.9066 61.9048C38.4236 41.2245 62.4146 14.7392 72.8454 4.08163C73.3896 11.1565 46.7683 49.6599 33.3896 68.0272Z" fill="white"/>
<path d="M32.0291 69.3878L24.5461 63.9456L20.4644 69.3878L27.9474 75.5102L32.0291 69.3878Z" fill="white"/>
<path d="M25.9066 76.1905L19.1039 71.4286C7.13111 80.1361 5.04494 94.1043 5.49846 100C20.7366 92.9252 25.4531 81.1791 25.9066 76.1905Z" fill="white"/>
<path fill-rule="evenodd" clip-rule="evenodd" d="M33.2146 70.0623C33.5298 71.2353 33.7974 72.3995 34.0135 73.4694H53.0611C53.763 70.4823 54.9054 65.8852 56.473 63.7782L56.4731 63.7782C57.5779 62.2933 58.768 60.6936 59.8609 58.5094C62.4256 55.0975 63.9455 50.8555 63.9455 46.2585C63.9455 41.2426 62.1359 36.6493 59.134 33.0959C50.9248 45.7886 41.0946 59.7601 34.4894 68.8283L33.642 69.9916L33.3959 69.7903L33.2146 70.0623ZM51.6152 27.5114C54.1009 28.5839 56.331 30.1363 58.1888 32.0519C50.2828 44.295 40.8181 57.7893 34.1909 66.9249C33.9189 67.2998 33.6518 67.6674 33.3896 68.0272L32.3286 67.1591C31.6726 65.2717 30.8922 63.5603 30.0058 62.4266C29.2141 61.4143 28.3965 60.3687 27.6158 59.155C34.1324 48.9275 43.0761 37.564 51.6152 27.5114ZM50.2745 26.9886C48.1653 26.2512 45.8981 25.8503 43.5373 25.8503C32.2662 25.8503 23.1292 34.9874 23.1292 46.2585C23.1292 50.5957 24.4821 54.6168 26.789 57.923C33.2382 47.8856 41.9357 36.8248 50.2745 26.9886Z" fill="white"/>
</svg>
