<svg width="1376" height="106" viewBox="0 0 1376 106" fill="none" xmlns="http://www.w3.org/2000/svg">
<path d="M54.7631 7.19621L54.7654 7.19745C60.3914 10.1847 65.0267 14.5172 68.6732 20.2117L68.6756 20.2154C72.3502 25.8762 74.1996 32.5448 74.1996 40.2497V43.9079C74.1996 51.1478 72.3794 57.5111 68.755 63.0228C65.1106 68.5139 60.4757 72.7228 54.846 75.6622L54.8437 75.6634C49.2437 78.6134 43.6417 80.0773 38.0303 80.0773H32.1619H31.4442V80.795V86.3585C31.4442 91.7386 30.1241 95.6411 27.6104 98.2023C25.0991 100.761 21.2764 102.103 16.0047 102.103C10.8324 102.103 7.05458 100.81 4.54194 98.3451C2.0329 95.8834 0.717721 92.1612 0.717721 87.0444V17.9955C0.717721 12.8798 2.03249 9.12808 4.54679 6.61378C7.11424 4.04633 10.8935 2.70849 16.0047 2.70849H37.8778C43.5387 2.70849 49.1646 4.19702 54.7631 7.19621ZM32.1619 33.5111H31.4442V34.2289V49.7763V50.494H32.1619H35.8201C37.2225 50.494 38.4221 50.3906 39.4054 50.1721L39.4189 50.1691L39.4323 50.1655C40.5783 49.864 41.5243 49.1707 42.2684 48.1414C43.1131 46.9931 43.4732 45.3098 43.4732 43.222V40.0973C43.4732 37.9955 42.6318 36.3202 40.9528 35.1623C39.3603 34.064 37.5925 33.5111 35.6677 33.5111H32.1619ZM155.425 17.5759C159.079 22.6613 160.929 29.0588 160.93 36.816C160.88 41.1895 159.986 45.2539 158.253 49.0174C156.513 52.7446 154.102 56.1023 151.012 59.092L150.447 59.6389L151.043 60.1518C153.175 61.9858 154.902 64.011 156.231 66.2266L156.237 66.2364C157.612 68.4467 158.463 70.7164 158.804 73.0486L158.804 73.051L160.328 83.2591C160.328 83.2595 160.328 83.2599 160.328 83.2603C160.579 85.017 160.701 86.5051 160.701 87.7304C160.701 92.7733 159.272 96.5509 156.505 99.1748C153.782 101.754 149.867 103.094 144.652 103.094C140.561 103.094 137.363 102.036 134.984 99.99C132.604 97.9429 131.013 94.8878 130.27 90.7393L128.37 77.8919C128.245 76.472 127.558 75.2289 126.392 74.1714C125.168 73.0142 123.154 72.5322 120.569 72.5322H120.34H118.892H118.175V73.2499V87.0444C118.175 92.1577 116.836 95.8781 114.279 98.3405C111.714 100.811 107.906 102.103 102.735 102.103C97.5628 102.103 93.7849 100.81 91.2723 98.3451C88.7633 95.8834 87.4481 92.1612 87.4481 87.0444V17.9955C87.4481 12.8798 88.7629 9.12808 91.2772 6.61377C93.8446 4.04633 97.6238 2.70849 102.735 2.70849H121.941C128.764 2.70849 135.125 3.91224 141.028 6.31382L141.03 6.3146C146.952 8.7032 151.746 12.4544 155.425 17.5759ZM117.978 32.5966H117.26V33.3143V44.2128V44.9305H117.978H125.447C127.06 44.9305 128.423 44.3453 129.479 43.176C130.574 42.0203 131.118 40.5979 131.118 38.9541V37.5822C131.118 36.1314 130.5 34.9168 129.332 33.979C128.222 33.0471 126.86 32.5966 125.294 32.5966H117.978ZM252.022 95.1495L252.016 95.1604C250.873 97.2555 249.105 98.9385 246.675 100.202C244.261 101.457 241.282 102.103 237.708 102.103C234.565 102.103 231.764 101.416 229.289 100.057C226.877 98.7331 225.296 96.7131 224.532 93.9508L223.239 88.7019L223.104 88.1558H222.542H200.059H199.497L199.362 88.7019L198.069 93.9509C197.307 96.703 195.684 98.7237 193.169 100.052L193.164 100.055C190.637 101.415 187.784 102.103 184.588 102.103C181.433 102.103 178.65 101.487 176.223 100.275C173.846 99.0613 172.019 97.398 170.721 95.2849C169.422 93.1182 168.767 90.6823 168.767 87.959C168.767 86.0287 169.177 83.8772 170.02 81.4976C170.02 81.4957 170.021 81.4938 170.022 81.4919L196.767 10.019C196.767 10.0188 196.767 10.0185 196.767 10.0183C197.827 7.22441 199.594 5.17836 202.076 3.84211L202.076 3.84218L202.085 3.83701C204.596 2.43672 207.695 1.71772 211.415 1.71772C215.033 1.71772 218.086 2.41136 220.601 3.76592L220.606 3.76857C223.138 5.10598 224.871 7.12282 225.828 9.8497L225.83 9.85676L225.833 9.86376L252.657 81.4975C252.658 81.4982 252.658 81.4989 252.658 81.4996C253.443 83.6591 253.834 85.8365 253.834 88.0352C253.834 90.6632 253.227 93.0293 252.022 95.1495ZM216.521 65.2793H217.439L217.218 64.3888L212.111 43.8113L210.719 43.8088L205.536 64.3863L205.311 65.2793H206.232H216.521Z" fill="#C9F1FF" stroke="#1AB5EB" stroke-width="1.43544"/>
<path d="M368.589 103.601C364.27 103.601 360.993 102.433 358.758 100.095C356.522 97.7073 355.404 94.2015 355.404 89.5779V18.2426C355.404 13.5174 356.598 9.93538 358.986 7.49657C361.425 5.00694 365.007 3.76213 369.732 3.76213H407.077C411.802 3.76213 415.384 5.00694 417.823 7.49657C420.262 9.93538 421.481 13.5174 421.481 18.2426C421.481 23.0186 420.262 26.6514 417.823 29.1411C415.384 31.6307 411.802 32.8755 407.077 32.8755H386.804V39.3536H399.151C403.927 39.3536 407.534 40.5222 409.973 42.8594C412.412 45.1458 413.631 48.55 413.631 53.0719C413.631 57.5431 412.412 60.9219 409.973 63.2082C407.534 65.4438 403.927 66.5616 399.151 66.5616H386.804V74.4878H407.077C411.802 74.4878 415.384 75.758 417.823 78.2984C420.262 80.788 421.481 84.4971 421.481 89.4255C421.481 94.0999 420.262 97.6311 417.823 100.019C415.384 102.407 411.802 103.601 407.077 103.601H368.589Z" fill="#1AB5EB"/>
<path d="M448.765 103.601C444.446 103.601 441.169 102.433 438.934 100.095C436.698 97.7073 435.58 94.2015 435.58 89.5779V18.2426C435.58 13.5174 436.774 9.93538 439.162 7.49657C441.601 5.00694 445.183 3.76213 449.908 3.76213H487.253C491.978 3.76213 495.56 5.00694 497.999 7.49657C500.438 9.93538 501.657 13.5174 501.657 18.2426C501.657 23.0186 500.438 26.6514 497.999 29.1411C495.56 31.6307 491.978 32.8755 487.253 32.8755H466.98V39.3536H479.327C484.103 39.3536 487.71 40.5222 490.149 42.8594C492.588 45.1458 493.807 48.55 493.807 53.0719C493.807 57.5431 492.588 60.9219 490.149 63.2082C487.71 65.4438 484.103 66.5616 479.327 66.5616H466.98V74.4878H487.253C491.978 74.4878 495.56 75.758 497.999 78.2984C500.438 80.788 501.657 84.4971 501.657 89.4255C501.657 94.0999 500.438 97.6311 497.999 100.019C495.56 102.407 491.978 103.601 487.253 103.601H448.765Z" fill="#1AB5EB"/>
<path d="M583.967 3C589.15 3 593.062 4.37183 595.704 7.1155C598.397 9.85917 599.743 13.8731 599.743 19.1572V91.6357C599.743 96.0052 598.447 99.3586 595.856 101.696C593.265 103.982 589.937 105.125 585.872 105.125C579.674 105.125 574.974 102.966 571.773 98.6473L547.918 66.1806V88.892C547.918 94.1761 546.546 98.2154 543.803 101.01C541.059 103.754 537.045 105.125 531.761 105.125C526.528 105.125 522.539 103.754 519.796 101.01C517.103 98.2662 515.756 94.2269 515.756 88.892V17.7853C515.756 14.9908 516.417 12.4758 517.738 10.2402C519.11 7.95384 520.99 6.17554 523.378 4.90533C525.766 3.63511 528.433 3 531.38 3C534.378 3 536.969 3.50809 539.154 4.52426C541.339 5.54043 543.244 7.14091 544.87 9.32568L567.581 39.7347V19.1572C567.581 13.8222 568.953 9.80836 571.697 7.1155C574.491 4.37183 578.581 3 583.967 3Z" fill="#1AB5EB"/>
<path fill-rule="evenodd" clip-rule="evenodd" d="M551.916 71.6219L547.918 66.1806V74.2455C537.659 80.8481 526.892 86.3802 515.83 90.9822C515.781 90.3091 515.756 89.6124 515.756 88.892V17.7853C515.756 14.9908 516.417 12.4758 517.738 10.2402C519.11 7.95384 520.99 6.17554 523.378 4.90533C525.766 3.63511 528.433 3 531.38 3C534.378 3 536.969 3.50809 539.154 4.52426C541.339 5.54043 543.244 7.14091 544.87 9.32568L567.581 39.7347V19.1572C567.581 13.8222 568.953 9.80836 571.697 7.1155C574.491 4.37183 578.581 3 583.967 3C589.15 3 593.062 4.37183 595.704 7.1155C598.397 9.85917 599.743 13.8731 599.743 19.1572V44.5548C584.528 51.8375 568.48 60.7551 551.916 71.6219ZM500.249 96.8064C501.187 94.7863 501.657 92.326 501.657 89.4255C501.657 84.4971 500.438 80.788 497.999 78.2984C495.56 75.758 491.978 74.4878 487.253 74.4878H466.98V66.5616H479.327C484.103 66.5616 487.71 65.4438 490.149 63.2082C492.588 60.9219 493.807 57.5431 493.807 53.0719C493.807 48.55 492.588 45.1458 490.149 42.8594C487.71 40.5222 484.103 39.3536 479.327 39.3536H466.98V32.8755H487.253C491.978 32.8755 495.56 31.6307 497.999 29.1411C500.438 26.6514 501.657 23.0186 501.657 18.2426C501.657 13.5174 500.438 9.93538 497.999 7.49657C495.56 5.00694 491.978 3.76213 487.253 3.76213H449.908C445.183 3.76213 441.601 5.00694 439.162 7.49657C436.774 9.93538 435.58 13.5174 435.58 18.2426V89.5779C435.58 94.2015 436.698 97.7073 438.934 100.095C441.169 102.433 444.446 103.601 448.765 103.601H475.871C484.044 101.742 492.196 99.4945 500.249 96.8064ZM368.589 103.601C364.27 103.601 360.993 102.433 358.758 100.095C356.522 97.7073 355.404 94.2015 355.404 89.5779V18.2426C355.404 13.5174 356.598 9.93538 358.986 7.49657C361.425 5.00694 365.007 3.76213 369.732 3.76213H407.077C411.802 3.76213 415.384 5.00694 417.823 7.49657C420.262 9.93538 421.481 13.5174 421.481 18.2426C421.481 23.0186 420.262 26.6514 417.823 29.1411C415.384 31.6307 411.802 32.8755 407.077 32.8755H386.804V39.3536H399.151C403.927 39.3536 407.534 40.5222 409.973 42.8594C412.412 45.1458 413.631 48.55 413.631 53.0719C413.631 57.5431 412.412 60.9219 409.973 63.2082C407.534 65.4438 403.927 66.5616 399.151 66.5616H386.804V74.4878H407.077C411.802 74.4878 415.384 75.758 417.823 78.2984C420.262 80.788 421.481 84.4971 421.481 89.4255C421.481 94.0999 420.262 97.6311 417.823 100.019C415.384 102.407 411.802 103.601 407.077 103.601H368.589Z" fill="url(#paint0_linear)" fill-opacity="0.5"/>
<path fill-rule="evenodd" clip-rule="evenodd" d="M495.257 76.223C478.109 86.8117 459.394 95.1064 439.541 100.679C439.331 100.493 439.128 100.299 438.934 100.095C436.698 97.7073 435.58 94.2015 435.58 89.5779V18.2426C435.58 13.5174 436.774 9.93539 439.162 7.49655C441.601 5.00696 445.183 3.76215 449.908 3.76215H487.253C491.978 3.76215 495.56 5.00696 497.999 7.49655C500.438 9.93539 501.657 13.5174 501.657 18.2426C501.657 23.0186 500.438 26.6514 497.999 29.1411C495.56 31.6307 491.978 32.8755 487.253 32.8755H466.98V39.3536H479.327C484.103 39.3536 487.71 40.5222 490.149 42.8594C492.588 45.1458 493.807 48.55 493.807 53.0719C493.807 57.5431 492.588 60.9219 490.149 63.2083C487.71 65.4438 484.103 66.5616 479.327 66.5616H466.98V74.4878H487.253C490.441 74.4878 493.109 75.0662 495.257 76.223ZM554.651 22.4221C543.398 37.1585 530.32 50.4278 515.756 61.8929V17.7853C515.756 14.9908 516.417 12.4758 517.738 10.2402C519.11 7.95386 520.99 6.17554 523.378 4.90533C525.766 3.6351 528.433 3 531.38 3C534.378 3 536.969 3.50809 539.154 4.52426C541.339 5.54044 543.244 7.1409 544.87 9.32568L554.651 22.4221ZM368.589 103.601C364.27 103.601 360.993 102.433 358.758 100.095C356.522 97.7073 355.404 94.2015 355.404 89.5779V18.2426C355.404 13.5174 356.598 9.93539 358.986 7.49655C361.425 5.00696 365.007 3.76215 369.732 3.76215H407.077C411.802 3.76215 415.384 5.00696 417.823 7.49655C420.262 9.93539 421.481 13.5174 421.481 18.2426C421.481 23.0186 420.262 26.6514 417.823 29.1411C415.384 31.6307 411.802 32.8755 407.077 32.8755H386.804V39.3536H399.151C403.927 39.3536 407.534 40.5222 409.973 42.8594C412.412 45.1458 413.631 48.55 413.631 53.0719C413.631 57.5431 412.412 60.9219 409.973 63.2083C407.534 65.4438 403.927 66.5616 399.151 66.5616H386.804V74.4878H407.077C411.802 74.4878 415.384 75.758 417.823 78.2984C420.262 80.7881 421.481 84.4971 421.481 89.4255C421.481 94.0999 420.262 97.6311 417.823 100.019C415.384 102.407 411.802 103.601 407.077 103.601H368.589Z" fill="url(#paint1_linear)" fill-opacity="0.5"/>
<path fill-rule="evenodd" clip-rule="evenodd" d="M421.297 92.3986C408.379 97.9448 394.549 101.775 380.096 103.601H368.589C364.27 103.601 360.993 102.433 358.758 100.095C356.522 97.7074 355.404 94.2016 355.404 89.578V18.2427C355.404 13.5175 356.598 9.93546 358.986 7.49664C361.425 5.00702 365.007 3.76221 369.732 3.76221H407.077C411.802 3.76221 415.384 5.00702 417.823 7.49664C420.262 9.93546 421.481 13.5175 421.481 18.2427C421.481 23.0187 420.262 26.6515 417.823 29.1411C415.384 31.6308 411.802 32.8756 407.077 32.8756H386.804V39.3537H399.151C403.927 39.3537 407.534 40.5223 409.973 42.8595C412.412 45.1458 413.631 48.55 413.631 53.072C413.631 57.5432 412.412 60.922 409.973 63.2083C407.534 65.4439 403.927 66.5617 399.151 66.5617H386.804V74.4878H407.077C411.802 74.4878 415.384 75.7581 417.823 78.2985C420.262 80.7881 421.481 84.4971 421.481 89.4256C421.481 90.4741 421.42 91.4651 421.297 92.3986ZM485.924 40.3343C472.707 58.8072 455.508 74.2362 435.58 85.3664V18.2427C435.58 13.5175 436.774 9.93546 439.162 7.49664C441.601 5.00702 445.183 3.76221 449.908 3.76221H487.253C491.978 3.76221 495.56 5.00702 497.999 7.49664C499.586 9.08369 500.656 11.1548 501.211 13.7101C498.284 20.2436 494.916 26.536 491.144 32.5492C489.947 32.7668 488.65 32.8756 487.253 32.8756H466.98V39.3537H479.327C481.853 39.3537 484.052 39.6806 485.924 40.3343Z" fill="url(#paint2_linear)" fill-opacity="0.5"/>
<path fill-rule="evenodd" clip-rule="evenodd" d="M415.921 76.7224C400.652 90.0896 381.34 98.9529 360.059 101.239C359.592 100.895 359.158 100.514 358.758 100.095C356.522 97.7074 355.404 94.2016 355.404 89.578V18.2427C355.404 13.5175 356.598 9.93546 358.986 7.49664C361.425 5.00702 365.007 3.76221 369.732 3.76221H407.077C411.802 3.76221 415.384 5.00702 417.823 7.49664C420.262 9.93546 421.481 13.5175 421.481 18.2427C421.481 23.0187 420.262 26.6515 417.823 29.1411C415.384 31.6308 411.802 32.8756 407.077 32.8756H386.804V39.3537H399.151C403.927 39.3537 407.534 40.5223 409.973 42.8595C412.412 45.1458 413.631 48.55 413.631 53.072C413.631 57.5432 412.412 60.9219 409.973 63.2083C407.534 65.4439 403.927 66.5617 399.151 66.5617H386.804V74.4878H407.077C410.695 74.4878 413.643 75.2327 415.921 76.7224ZM450.537 3.76221C449.931 21.9525 444.539 38.9305 435.58 53.477V18.2427C435.58 13.5175 436.774 9.93546 439.162 7.49664C441.601 5.00702 445.183 3.76221 449.908 3.76221H450.537Z" fill="url(#paint3_linear)" fill-opacity="0.5"/>
<path fill-rule="evenodd" clip-rule="evenodd" d="M401.751 32.8755C402.306 29.2729 402.594 25.5822 402.594 21.8242C402.594 15.5865 401.801 9.53399 400.309 3.76215H369.732C365.007 3.76215 361.425 5.00696 358.986 7.49658C356.598 9.9354 355.404 13.5174 355.404 18.2426V89.4353C367.841 84.8701 378.669 76.9714 386.804 66.8218V66.5616H387.012C393.272 58.6774 397.915 49.4506 400.437 39.3832C400.018 39.3635 399.589 39.3536 399.151 39.3536H386.804V32.8755H401.751Z" fill="url(#paint4_linear)" fill-opacity="0.5"/>
<path d="M312.878 33.6527C296.018 28.4188 279.72 24.5827 266.952 22.6087C260.569 21.6217 255.074 21.0983 250.78 21.1062C248.633 21.1101 246.786 21.2439 245.241 21.5423C243.696 21.8407 242.402 22.3247 241.595 23.0288C240.787 23.7329 240.582 24.555 240.811 25.4042C241.04 26.2534 241.689 27.1637 242.702 28.1486C244.728 30.1183 248.222 32.3856 252.923 34.8396C262.325 39.7476 276.554 45.3879 293.414 50.6218C310.273 55.8557 326.569 59.6911 339.337 61.6651C345.72 62.6521 351.215 63.1754 355.509 63.1676C357.656 63.1637 359.504 63.0284 361.05 62.73C362.595 62.4316 363.889 61.9475 364.696 61.2435C365.504 60.5394 365.708 59.7173 365.479 58.8681C365.25 58.0189 364.6 57.1101 363.587 56.1252C361.561 54.1555 358.067 51.8882 353.366 49.4342C343.964 44.5262 329.738 38.8865 312.878 33.6527ZM311.916 34.4912C328.712 39.7054 342.885 45.328 352.191 50.1861C356.844 52.6151 360.279 54.8567 362.207 56.7315C363.171 57.6688 363.753 58.5161 363.943 59.221C364.133 59.9259 363.948 60.4556 363.477 60.8652C363.008 61.2747 362.198 61.6129 360.915 61.8606C359.633 62.1082 357.923 62.2441 355.879 62.2478C351.792 62.2552 346.369 61.747 340.05 60.7701C327.413 58.8162 311.172 54.9975 294.375 49.7832C277.579 44.569 263.404 38.9458 254.098 34.0877C249.445 31.6587 246.01 29.4171 244.082 27.5423C243.118 26.605 242.536 25.7577 242.346 25.0528C242.156 24.3479 242.344 23.8167 242.813 23.4071C243.283 22.9976 244.091 22.6609 245.374 22.4132C246.656 22.1656 248.366 22.0297 250.41 22.026C254.497 22.0185 259.92 22.5268 266.239 23.5037C278.876 25.4576 295.119 29.277 311.916 34.4912Z" fill="#CCCCCC"/>
<path d="M242.519 23.1107C241.989 23.7354 240.618 24.0619 240.812 24.7805C241.041 25.6297 241.689 26.5405 242.702 27.5254C244.727 29.495 248.222 31.7624 252.923 34.2164C262.325 39.1245 276.554 44.7646 293.414 49.9985C310.274 55.2324 326.569 59.0676 339.336 61.0416C345.72 62.0286 351.215 62.552 355.509 62.5442C357.656 62.5403 359.504 62.4052 361.05 62.1068C362.595 61.8084 363.888 61.3241 364.696 60.62C365.04 60.3199 365.269 59.9973 365.407 59.6613L364.007 59.2446C363.974 59.6406 363.791 59.9687 363.478 60.2416C363.008 60.6512 362.198 60.9892 360.915 61.2369C359.632 61.4846 357.923 61.6207 355.879 61.6244C351.792 61.6318 346.369 61.1237 340.051 60.1467C327.413 58.1929 311.172 54.3738 294.376 49.1596C277.579 43.9454 263.404 38.3226 254.098 33.4645C249.445 31.0355 246.01 28.7936 244.082 26.9188C243.118 25.9815 242.536 25.1344 242.346 24.4295C242.203 23.8989 242.274 23.4666 242.519 23.1107Z" fill="url(#paint5_linear)"/>
<path fill-rule="evenodd" clip-rule="evenodd" d="M353.777 44.9702L362.489 42.7616L373.164 47.915L377.581 58.5899L373.655 68.2833L365.311 74.0502L359.789 73.0686L354.268 72.8232L351.2 68.7741L347.151 64.8477V60.6758L346.415 54.6635L350.71 49.8782L353.777 44.9702Z" fill="#D54049"/>
<path d="M357.458 58.7444L360.893 48.5603L355.112 52.9413L357.458 58.7444Z" fill="white" fill-opacity="0.1"/>
<path d="M360.893 48.5282L353.776 44.9699L350.709 49.8779L360.893 48.5282Z" fill="black" fill-opacity="0.15"/>
<path d="M347.888 58.3444L360.894 48.5284L350.71 49.8781L347.888 58.3444Z" fill="black" fill-opacity="0.25"/>
<path d="M360.894 48.5283L362.489 42.7614L353.777 44.97L360.894 48.5283Z" fill="black" fill-opacity="0.3"/>
<path d="M360.894 48.5283L362.489 42.7614L371.568 48.5283H360.894Z" fill="black" fill-opacity="0.15"/>
<path d="M373.164 47.9148L371.569 48.5283L362.489 42.7614L373.164 47.9148Z" fill="black" fill-opacity="0.5"/>
<path d="M371.569 48.5284L372.674 56.7493L377.582 58.5898L371.569 48.5284Z" fill="white" fill-opacity="0.1"/>
<path d="M373.164 47.9144L377.582 58.5893L371.569 48.5279L373.164 47.9144Z" fill="black" fill-opacity="0.2"/>
<path d="M377.581 58.5894L373.654 68.2827L372.673 56.7489L377.581 58.5894Z" fill="black" fill-opacity="0.55"/>
<path d="M372.673 56.7489L373.655 68.2827L369.605 66.8103L372.673 56.7489Z" fill="black" fill-opacity="0.25"/>
<path d="M365.311 74.0494L359.789 73.0678L373.654 68.2825L365.311 74.0494Z" fill="black" fill-opacity="0.6"/>
<path d="M373.654 68.2827L359.789 73.068L369.605 66.8103L373.654 68.2827Z" fill="black" fill-opacity="0.5"/>
<path d="M369.605 66.8103L359.789 73.068L356.23 66.8103H369.605Z" fill="black" fill-opacity="0.4"/>
<path d="M354.268 72.8226L351.2 68.7735L359.789 73.068L354.268 72.8226Z" fill="black" fill-opacity="0.7"/>
<path d="M356.231 66.8103L351.2 68.7735L359.789 73.068L356.231 66.8103Z" fill="black" fill-opacity="0.5"/>
<path d="M347.151 64.848V60.6762L347.888 58.3448L351.2 68.7744L347.151 64.848Z" fill="black" fill-opacity="0.7"/>
<path d="M350.71 49.878L347.887 58.3443L347.151 60.6756L346.415 54.6633L350.71 49.878Z" fill="black" fill-opacity="0.6"/>
<path d="M356.231 66.8112L347.888 58.3448L351.201 68.7744L356.231 66.8112Z" fill="black" fill-opacity="0.4"/>
<path d="M357.458 58.7129L347.888 58.3448L356.231 66.8112L357.458 58.7129Z" fill="black" fill-opacity="0.15"/>
<path d="M372.673 56.7493L360.894 48.5284L364.206 58.2217L372.673 56.7493Z" fill="black" fill-opacity="0.05"/>
<path d="M372.673 56.7493L360.894 48.5284H371.568L372.673 56.7493Z" fill="white" fill-opacity="0.05"/>
<path d="M356.23 66.8102L364.206 58.2211L369.605 66.8102H356.23Z" fill="black" fill-opacity="0.15"/>
<path d="M356.23 66.8102L357.457 58.7119L364.206 58.2211L356.23 66.8102Z" fill="white" fill-opacity="0.15"/>
<path d="M285.836 13.9802L304.809 62.8123L312.614 44.7427L313.435 42.8573L326.4 10.878C326.4 10.878 331.369 -0.286301 343.875 4.74778C349.298 6.93047 351.34 11.1556 351.22 15.2732C351.143 17.919 349.741 20.1893 348.891 22.6105C348.51 23.695 348.09 24.7658 347.651 25.828C337.504 50.3721 315.441 98.7042 315.441 98.7042C315.441 98.7042 311.901 105.115 303.957 104.721C296.012 104.328 292.709 97.8783 292.709 97.8783L288.068 86.7089L282.798 73.9271L260.145 19.1421C260.145 19.1421 256.015 9.15259 268.128 3.64656C270.073 2.76273 272.682 2.98358 274.306 3.05277C282.801 3.41466 285.836 13.9802 285.836 13.9802Z" fill="#1AB5EB"/>
<path d="M292.709 97.8784L294.052 95.8456L302.914 102.04L302.053 102.427L305.452 104.75C305.452 104.75 297.063 105.378 292.709 97.8784Z" fill="#4584CD"/>
<path d="M313.56 101.137L315.135 98.7259L312.958 97.2867L313.54 96.3407L311.27 95.1359L313.494 93.9377L315.654 94.7134L316.825 95.6715L315.441 98.7043C315.441 98.7043 314.812 99.8644 313.56 101.137Z" fill="#1F73A4"/>
<path d="M302.053 102.427L305.451 104.75C305.451 104.75 310.312 104.642 313.559 101.136L315.134 98.7255L312.957 97.2863L302.397 101.674L302.913 102.04L302.053 102.427Z" fill="#3DB0E9"/>
<path d="M293.063 88.0165L294.611 96.2326L294.052 95.8454L292.709 97.8782C292.709 97.8782 290.89 94.2034 290.428 92.5295L293.063 88.0165Z" fill="#477ED2"/>
<path d="M288.461 87.7707L293.81 86.4728L293.062 88.0165L290.427 92.5295L288.461 87.7707Z" fill="#445BCB"/>
<path d="M284.213 77.3488L286.73 79.2759L292.354 76.6802L292.747 82.8941L291.174 83.0121L295.422 86.3944L293.809 86.473L288.46 87.7709L284.213 77.3488Z" fill="#4848CB"/>
<path d="M282.798 73.9271L284.214 77.3487L286.731 79.2758L292.355 76.6801L283.545 74.0844L282.798 73.9271Z" fill="#4765D0"/>
<path d="M272.69 49.4254L278.846 52.3701L290.742 59.0216L283.152 58.6283L284.292 59.5328L283.545 74.0845L282.798 73.9272L272.69 49.4254Z" fill="#438BDE"/>
<path d="M277.764 45.7281L272.69 49.4251L278.846 52.3698L277.764 45.7281Z" fill="#368AF3"/>
<path d="M268.6 39.6328L272.454 41.9138L276.662 44.7455L277.763 45.7287L272.69 49.4256L268.6 39.6328Z" fill="#4188F9"/>
<path d="M274.814 41.1663L274.145 43.0934L272.454 41.9136L274.814 41.1663Z" fill="#3155C7"/>
<path d="M274.814 41.1664L275.915 41.009L281.067 40.4584L276.663 44.7453L274.146 43.0935L274.814 41.1664Z" fill="#3D8AF8"/>
<path d="M272.454 36.7612L274.381 37.1938L274.184 37.705L276.308 37.941L275.836 38.8456L277.291 39.9075L275.915 41.0087L274.814 41.166L272.454 41.9132L270.763 40.9693L272.454 36.7612Z" fill="#4D8BFE"/>
<path d="M267.773 37.3511L272.454 36.7612L270.762 40.9693L268.599 39.6322L267.773 37.3511Z" fill="#4D70FB"/>
<path d="M273.417 36.6431L271.234 31.5303L267.773 37.351L273.417 36.6431Z" fill="#416DFC"/>
<path d="M263.487 27.3221L271.235 31.5304L267.774 37.351L263.487 27.3221Z" fill="#3F70FE"/>
<path d="M263.487 27.3227L264.313 27.7947L269.78 21.4234L271.235 31.5309L263.487 27.3227Z" fill="#3A5CFF"/>
<path d="M261.146 21.3834L269.779 21.4227L264.312 27.794L263.487 27.322L261.146 21.3834Z" fill="#4332FF"/>
<path d="M261.117 8.93166L261.717 21.3055L261.147 21.3841C261.147 21.3841 257.404 15.2166 261.117 8.93164L261.117 8.93166Z" fill="#641BDC"/>
<path d="M272.533 9.23155L266.24 14.4623L269.111 17.7659L261.717 21.3055L261.117 8.93164L269.019 9.13922L272.533 9.23155Z" fill="#641AF5"/>
<path d="M271.17 2.86884L269.005 9.14341L261.117 8.93132C261.117 8.93132 264.262 3.74292 271.17 2.86884Z" fill="#3A00FD"/>
<path d="M272.533 9.23115L269.005 9.14333L271.171 2.86879L273.438 2.85938L277.027 8.8974L272.533 9.23115Z" fill="#5826FF"/>
<path d="M277.027 8.89728L283.585 9.3097L278.708 11.7481L272.533 9.23103L277.027 8.89728Z" fill="#3D64FF"/>
<path d="M283.585 9.30966L278.709 11.748L273.438 2.85974C273.438 2.85974 280.636 2.85975 283.585 9.30966Z" fill="#3F54FC"/>
<path d="M278.708 11.7482L287.203 17.3328L286.534 15.7597L278.708 11.7482Z" fill="#1B53C6"/>
<path d="M278.708 11.7479L272.533 9.2309L280.714 25.159L278.708 11.7479Z" fill="#269AF2"/>
<path d="M287.203 17.3328L281.658 24.9233L280.714 25.1593L278.708 11.7482L287.203 17.3328Z" fill="#2879FF"/>
<path d="M281.657 24.9234L287.203 17.3329L290.152 24.5694L281.657 24.9234Z" fill="#1C96F6"/>
<path d="M293.466 32.8976L284.568 32.5142L281.657 24.9237L290.152 24.5698L293.466 32.8976Z" fill="#1496E9"/>
<path d="M295.383 40.9694V37.8231L293.928 34.1262L287.989 41.5986L295.383 40.9694Z" fill="#1C94AD"/>
<path d="M295.383 40.9697L293.417 44.6666L291.332 48.2455L287.989 41.599L295.383 40.9697Z" fill="#1F91B5"/>
<path d="M297.193 42.5821L295.384 42.7394V37.8234L297.193 42.5821Z" fill="#1D2D89"/>
<path d="M298.884 47.105L293.417 44.6666L295.383 40.9697V42.7395L297.193 42.5822L298.884 47.105Z" fill="#2991B5"/>
<path d="M300.732 52.0994L298.884 47.1046L293.417 44.6663L292.237 46.7114L296.917 55.4817L300.732 52.0994Z" fill="#2379B2"/>
<path d="M302.541 56.9375L296.603 60.3984L296.917 55.4823L300.732 52.1L302.541 56.9375Z" fill="#1B408C"/>
<path d="M304.81 62.8122L302.738 65.9431L303.289 58.7067L304.81 62.8122Z" fill="#24309A"/>
<path d="M308.575 54.1218L312.941 56.2909L313.664 56.4578L308.992 59.6003L308.38 59.2109L308.63 62.6593L302.012 66.9976L304.809 62.8121L308.575 54.1218Z" fill="#347BBE"/>
<path d="M308.574 54.1218L316.699 45.1776L315.582 47.0025L316.027 47.4475L316.472 46.8635L315.638 51.0071L315.527 50.1172L314.915 51.6746L314.247 51.758L312.94 56.291L308.574 54.1218Z" fill="#3477BE"/>
<path d="M323.739 29.4858L322.245 36.565L320.278 33.6154L323.739 29.4858Z" fill="#3F61B8"/>
<path d="M316.109 36.1318L322.245 36.5644L321.419 36.9577L319.334 44.5481L318.351 44.0369L317.335 45.6571L316.109 36.1318Z" fill="#3C6BBB"/>
<path d="M321.117 23.4477L328.904 19.4987L336.05 25.7097L321.117 23.4477Z" fill="#3972BF"/>
<path d="M328.904 19.4991L332.686 12.7135L331.866 4.98242C331.866 4.98242 328.96 5.98357 326.512 10.7112L321.117 23.448L328.904 19.4991Z" fill="#3B61BB"/>
<path d="M340.493 9.58526L332.686 12.7135L331.865 4.98242L340.493 9.58526Z" fill="#3B61BB"/>
<path d="M340.278 3.59208L345.867 13.5201L340.493 9.58539L331.865 4.98256C331.865 4.98256 335.188 2.98027 340.278 3.59208Z" fill="#3A76BE"/>
<path d="M347.09 6.58132L345.866 13.5198L340.276 3.5918C340.276 3.5918 343.002 3.70304 347.09 6.58132Z" fill="#3B8EBF"/>
<path d="M347.091 6.58148L345.867 13.52L349.327 17.019L350.664 18.2059C350.664 18.2059 353.598 12.2964 347.091 6.58148Z" fill="#4498C3"/>
<path d="M321.117 23.4483L327.948 24.2552L328.066 28.7386L321.117 23.4483Z" fill="#3B65BB"/>
<path d="M318.548 30.1545L323.739 29.4859L328.065 28.7386L321.117 23.4483L318.548 30.1545Z" fill="#3A51BB"/>
<path d="M328.066 28.738L322.245 36.5644L323.74 29.4852L328.066 28.738Z" fill="#2E78BD"/>
<path d="M323.739 29.4858L320.278 33.6154L318.548 30.1544L323.739 29.4858Z" fill="#3C49B0"/>
<path d="M318.548 30.1538L320.278 33.6147L316.109 36.1318L318.548 30.1538Z" fill="#3441B2"/>
<path d="M311.508 47.144L316.699 45.1776L308.574 54.1218L311.508 47.144Z" fill="#415EAF"/>
<path d="M313.435 42.8572L316.699 45.1776L311.508 47.1441L313.435 42.8572Z" fill="#37539E"/>
<path d="M316.11 36.1318L317.335 45.6571L313.436 42.857L316.11 36.1318Z" fill="#384EAB"/>
<path d="M322.245 36.5645L320.278 33.6149L316.109 36.1319L322.245 36.5645Z" fill="#3F61B8"/>
<path d="M347.09 6.58132L345.866 13.5198L340.276 3.5918C340.276 3.5918 343.78 4.06454 347.09 6.58132Z" fill="#398BBC"/>
<path d="M303.289 58.7071L302.738 65.9435L298.172 59.4091L302.541 56.9373L303.289 58.7071Z" fill="#1E2896"/>
<path d="M293.929 34.1262L287.99 41.5986L286.355 32.5137L293.467 32.8971L293.929 34.1262Z" fill="#2397C5"/>
<path d="M278.708 11.7481L286.534 15.7597C286.534 15.7597 284.607 10.2536 283.585 9.30975L278.708 11.7481Z" fill="#236BFE"/>
<path d="M271.234 31.5303L273.417 36.643L283.239 30.2888L281.656 24.9231L279.965 20.8329L272.532 9.2309L266.24 14.4616L269.111 17.7652L261.146 21.3835L269.779 21.4228L271.234 31.5303Z" fill="#279EF2"/>
<path d="M272.533 9.2309L278.708 11.7479L279.966 20.8329L272.533 9.2309Z" fill="#269AF2"/>
<path d="M316.824 95.6709L311.268 95.1353L310.102 91.1084L314.786 80.4017L315.151 79.9758L322.572 81.8617L316.793 87.2759L316.824 95.6709Z" fill="#2599E0"/>
<path d="M316.825 95.6713L316.795 87.2763L322.574 81.8621L323.335 81.269L316.825 95.6713Z" fill="#2078AC"/>
<path d="M311.043 78.5105L315.151 79.9767L322.573 81.8626L323.333 81.2694L328.852 69.2191L327.217 69.6493L323.001 75.5855L318.313 77.048L311.043 78.5105Z" fill="#2B8DDB"/>
<path d="M327.217 69.6484L323.001 75.5846L318.313 77.0472L311.043 78.5097L327.217 69.6484Z" fill="#2BA0DB"/>
<path d="M328.852 69.2183L332.895 59.8839L330.314 63.9704L321.582 67.7988L327.217 69.6484L328.852 69.2183Z" fill="#2A9FE3"/>
<path d="M332.895 59.884L330.314 63.9705L320.162 67.1537L328.765 54.421L332.895 59.884Z" fill="#35A0D1"/>
<path d="M332.895 59.8839L330.314 63.9704L320.42 68.3149L320.162 67.1535L330.314 63.9704L332.895 59.8839Z" fill="#35B8D1"/>
<path d="M332.896 59.8843L327.433 52.7867L336.122 52.7007L332.896 59.8843Z" fill="#3FA6E7"/>
<path d="M336.122 52.7005L327.433 52.7865L328.508 50.8938L334.1 46.8073L333.197 42.3337L339.735 44.4415L336.122 52.7005Z" fill="#35A1D2"/>
<path d="M339.734 44.4414L333.195 42.3336L341.669 39.9247L339.734 44.4414Z" fill="#349FE4"/>
<path d="M341.669 39.9247L342.831 37.1287L336.981 30.1601L333.195 42.3336L341.669 39.9247Z" fill="#32A0BF"/>
<path d="M342.832 37.1286L346.187 29.4287L336.981 30.16L342.832 37.1286Z" fill="#35A0D8"/>
<path d="M346.187 29.4291L347.864 25.3426L345.499 25.7297L344.939 22.5466L336.981 30.1604L346.187 29.4291Z" fill="#30A0BA"/>
<path d="M347.865 25.3428L345.499 25.73L344.939 22.5468L346.488 20.6111L348.51 23.7082L347.865 25.3428Z" fill="#2B8BAD"/>
<path d="M348.51 23.7082L346.488 20.6111L350.231 19.2776L348.51 23.7082Z" fill="#448FAE"/>
<path d="M350.23 19.2773L350.664 18.2058L349.327 17.0189L350.23 19.2773Z" fill="#287296"/>
<path d="M350.231 19.2773L346.488 20.6107L349.327 17.0189L350.231 19.2773Z" fill="#47A4B7"/>
<path d="M349.327 17.0187L345.867 13.5197L346.237 18.5341L346.488 20.6106L349.327 17.0187Z" fill="#3391C0"/>
<path d="M344.94 22.5464L341.857 21.6672L346.237 18.5343L346.488 20.6107L344.94 22.5464Z" fill="#3493C2"/>
<path d="M250.779 20.4831C248.632 20.487 246.786 20.6209 245.24 20.9193C243.695 21.2177 239.56 22.6169 240.991 25.4818C242.005 26.6828 240.97 24.4687 241.646 23.9431L242.459 24.7524C242.413 24.6422 242.373 24.5342 242.345 24.43C242.155 23.7251 242.343 23.194 242.813 22.7845C243.282 22.3749 244.09 22.0381 245.373 21.7904C246.656 21.5427 248.365 21.4066 250.409 21.4029C254.496 21.3955 259.919 21.9036 266.238 22.8806C278.875 24.8344 295.119 28.6541 311.915 33.8683C328.712 39.0825 342.884 44.7054 352.19 49.5634C356.843 51.9924 360.278 54.2337 362.206 56.1085C363.17 57.0458 363.637 59.0121 363.827 59.717C363.907 60.0113 363.917 60.2736 363.872 60.5109L365.051 60.87C365.288 60.3828 365.699 59.6705 365.556 59.14C365.407 57.8744 364.599 56.4874 363.587 55.5026C361.561 53.5329 358.066 51.2655 353.365 48.8115C343.964 43.9035 329.737 38.2639 312.877 33.03C296.017 27.7962 279.719 23.9597 266.952 21.9857C260.568 20.9987 255.073 20.4753 250.779 20.4831Z" fill="#CCCCCC"/>
<path d="M250.779 20.4831C248.632 20.487 246.786 20.6209 245.24 20.9193C243.695 21.2177 241.973 23.3567 241.166 24.0607C240.525 24.6194 241.619 24.3205 241.653 24.9823L242.458 24.7524C242.413 24.6422 242.373 24.5342 242.345 24.43C242.155 23.7251 242.343 23.194 242.812 22.7845C243.282 22.3749 244.09 22.0381 245.373 21.7904C246.656 21.5427 248.365 21.4066 250.409 21.4029C254.496 21.3955 259.919 21.9036 266.238 22.8806C278.875 24.8344 295.119 28.6541 311.915 33.8683C328.712 39.0825 342.884 44.7054 352.19 49.5634C356.843 51.9924 360.278 54.2337 362.206 56.1085C363.17 57.0458 364.798 58.4985 364.989 59.2034C365.068 59.4978 365.078 59.7601 365.033 59.9973L364.955 60.9661C365.192 60.4789 365.55 60.1923 365.407 59.6618C365.178 58.8126 364.599 56.4874 363.586 55.5026C361.561 53.5329 358.066 51.2655 353.365 48.8115C343.963 43.9034 329.737 38.2639 312.877 33.03C296.017 27.7962 279.719 23.9597 266.952 21.9857C260.568 20.9987 255.073 20.4753 250.779 20.4831Z" fill="#CCCCCC"/>
<path d="M250.78 21.1059C248.633 21.1097 246.786 21.2437 245.241 21.542C243.696 21.8404 242.402 22.3248 241.594 23.0288C240.954 23.5874 241.121 25.2067 241.155 25.8685L242.459 25.3752C242.414 25.2649 242.374 25.1569 242.346 25.0527C242.156 24.3478 242.343 23.8167 242.813 23.4072C243.283 22.9977 244.091 22.6609 245.373 22.4132C246.656 22.1655 248.366 22.0294 250.409 22.0257C254.496 22.0182 259.92 22.5264 266.238 23.5033C278.875 25.4572 295.119 29.2769 311.916 34.4911C328.712 39.7053 342.884 45.3281 352.19 50.1861C356.843 52.6151 360.279 54.8564 362.207 56.7312C363.171 57.6686 363.621 59.0307 363.811 59.7356C363.891 60.0299 363.901 60.2922 363.856 60.5295L364.956 60.9659C365.192 60.4787 365.49 59.9133 365.347 59.3827C365.118 58.5336 364.6 57.1102 363.587 56.1253C361.561 54.1556 358.067 51.8882 353.366 49.4342C343.964 44.5262 329.737 38.8867 312.877 33.6528C296.017 28.4189 279.72 24.5824 266.952 22.6085C260.569 21.6215 255.074 21.098 250.78 21.1059Z" fill="url(#paint6_linear)"/>
<mask id="path-118-inside-1" fill="white">
<path d="M724.714 42.0696C729.439 42.0696 732.894 43.289 735.079 45.7278C737.264 48.1158 738.356 51.7232 738.356 56.55V74.079C738.356 78.4994 737.467 82.5895 735.689 86.3493C733.961 90.1091 731.827 93.0052 729.287 95.0376C725.781 97.7812 721.894 99.8898 717.626 101.363C713.358 102.786 707.896 103.497 701.24 103.497C693.009 103.497 685.871 101.922 679.825 98.772C673.778 95.6219 669.129 91.1253 665.878 85.2823C662.626 79.3885 661 72.4277 661 64.3999V40.0118C661 31.8824 662.626 24.8454 665.878 18.9008C669.129 12.9054 673.778 8.30721 679.825 5.10626C685.922 1.90532 693.111 0.304855 701.393 0.304855C706.677 0.304855 711.275 1.01617 715.187 2.43881C719.1 3.86145 722.987 5.84299 726.848 8.38342C729.592 10.2633 731.599 12.3465 732.869 14.6329C734.19 16.8685 734.85 19.1803 734.85 21.5683C734.85 24.312 734.088 26.954 732.564 29.4944C731.091 31.984 729.16 34.0164 726.772 35.5915C724.435 37.1157 722.072 37.8779 719.684 37.8779C716.331 37.8779 712.495 36.6838 708.176 34.2958C707.21 33.7369 705.864 33.3051 704.137 33.0002C702.46 32.6954 700.605 32.5429 698.573 32.5429C696.896 32.5429 695.575 33.2797 694.61 34.7531C693.645 36.1758 693.162 38.1573 693.162 40.6977V63.2568C693.162 66.102 693.772 68.3376 694.991 69.9635C696.21 71.5894 697.862 72.4023 699.945 72.4023C704.67 72.4023 707.795 71.9958 709.319 71.1829V67.9058H708.862C705.966 67.9058 703.679 66.7626 702.003 64.4762C700.326 62.1898 699.488 59.065 699.488 55.102C699.488 50.6308 700.682 47.3537 703.07 45.2705C705.458 43.1365 709.04 42.0696 713.816 42.0696H724.714Z"/>
<path d="M750.931 38.9448C750.931 31.0187 752.557 24.1595 755.809 18.3673C759.061 12.5243 763.71 8.05317 769.756 4.95384C775.802 1.85451 782.966 0.304855 791.248 0.304855C799.581 0.304855 806.795 1.85451 812.892 4.95384C818.99 8.05317 823.664 12.5243 826.916 18.3673C830.218 24.1595 831.869 31.0187 831.869 38.9448V65.2383C831.869 73.0628 830.218 79.8712 826.916 85.6634C823.664 91.4048 818.99 95.8251 812.892 98.9244C806.795 101.973 799.581 103.497 791.248 103.497C782.966 103.497 775.802 101.973 769.756 98.9244C763.71 95.8251 759.061 91.4048 755.809 85.6634C752.557 79.8712 750.931 73.0628 750.931 65.2383V38.9448ZM783.169 63.714C783.169 66.0512 783.881 67.9058 785.303 69.2776C786.777 70.5986 788.758 71.2591 791.248 71.2591C793.89 71.2591 795.948 70.5986 797.421 69.2776C798.945 67.9058 799.708 66.0512 799.708 63.714V40.1642C799.708 37.7762 798.945 35.9217 797.421 34.6007C795.948 33.2289 793.89 32.5429 791.248 32.5429C788.758 32.5429 786.777 33.2289 785.303 34.6007C783.881 35.9217 783.169 37.7762 783.169 40.1642V63.714Z"/>
<path d="M922.258 36.8109C922.207 41.282 921.293 45.4483 919.514 49.3098C917.736 53.1204 915.272 56.55 912.122 59.5986C914.307 61.4785 916.085 63.5616 917.457 65.848C918.879 68.1344 919.768 70.497 920.124 72.9358L921.648 83.1484C921.902 84.9267 922.029 86.4509 922.029 87.7211C922.029 92.9036 920.556 96.8921 917.609 99.6866C914.713 102.43 910.598 103.802 905.263 103.802C901.045 103.802 897.667 102.71 895.126 100.525C892.586 98.3401 890.935 95.1138 890.172 90.8459L888.267 77.9659C888.165 76.7465 887.581 75.6541 886.514 74.6887C885.498 73.7234 883.72 73.2407 881.179 73.2407H880.951H879.503V87.0352C879.503 92.2685 878.131 96.2062 875.387 98.8482C872.643 101.49 868.63 102.811 863.345 102.811C858.061 102.811 854.073 101.49 851.38 98.8482C848.687 96.2062 847.341 92.2685 847.341 87.0352V17.9863C847.341 12.753 848.687 8.7899 851.38 6.09705C854.124 3.35338 858.112 1.98154 863.345 1.98154H882.551C889.461 1.98154 895.914 3.20094 901.909 5.63976C907.955 8.07857 912.858 11.9146 916.618 17.1479C920.378 22.3812 922.258 28.9355 922.258 36.8109ZM886.057 44.2035C887.48 44.2035 888.648 43.6954 889.563 42.6793C890.528 41.6631 891.011 40.4183 891.011 38.9448V37.573C891.011 36.3536 890.503 35.3374 889.486 34.5245C888.521 33.7115 887.327 33.3051 885.904 33.3051H878.588V44.2035H886.057ZM922.258 36.9633V36.8109V36.6584V36.9633Z"/>
<path d="M1013.94 81.243C1014.76 83.4786 1015.16 85.7396 1015.16 88.026C1015.16 90.7697 1014.53 93.2593 1013.26 95.4949C1012.04 97.7304 1010.16 99.5088 1007.62 100.83C1005.08 102.151 1001.98 102.811 998.319 102.811C995.067 102.811 992.145 102.1 989.554 100.677C986.963 99.2547 985.261 97.0699 984.448 94.123L983.152 88.8643H960.669L959.374 94.123C958.561 97.0699 956.808 99.2547 954.115 100.677C951.473 102.1 948.501 102.811 945.198 102.811C941.946 102.811 939.05 102.176 936.51 100.906C934.02 99.6358 932.09 97.8829 930.718 95.6473C929.346 93.3609 928.66 90.7951 928.66 87.9498C928.66 85.9174 929.092 83.6818 929.956 81.243L956.706 9.75526C957.824 6.80836 959.704 4.62359 962.346 3.20094C964.988 1.72749 968.215 0.990768 972.025 0.990768C975.734 0.990768 978.91 1.7021 981.552 3.12474C984.245 4.54738 986.099 6.70675 987.115 9.60284L1013.94 81.243ZM977.131 64.5524L972.025 43.9749L966.843 64.5524H977.131Z"/>
<path d="M1107.61 80.1761C1109.28 83.0213 1110.12 85.8666 1110.12 88.7119C1110.12 91.354 1109.44 93.742 1108.07 95.8759C1106.69 98.0099 1104.81 99.712 1102.43 100.982C1100.04 102.202 1097.37 102.811 1094.42 102.811C1090.66 102.811 1087.59 102.1 1085.2 100.677C1082.81 99.2547 1080.65 96.8921 1078.72 93.5895L1067.9 70.6494L1061.5 77.8134C1060.53 78.7788 1059.47 79.6172 1058.3 80.3285V88.026C1058.3 93.2593 1056.95 97.197 1054.26 99.839C1051.57 102.481 1047.58 103.802 1042.29 103.802C1037.01 103.802 1033 102.481 1030.25 99.839C1027.51 97.197 1026.14 93.2593 1026.14 88.026V16.6144C1026.14 11.4319 1027.51 7.51967 1030.25 4.87762C1033 2.23557 1037.01 0.914551 1042.29 0.914551C1047.58 0.914551 1051.57 2.23557 1054.26 4.87762C1056.95 7.51967 1058.3 11.4319 1058.3 16.6144V33.9148L1084.52 4.42036C1086.04 2.69287 1087.59 1.52425 1089.16 0.914551C1090.74 0.304847 1092.59 0 1094.73 0C1098.28 0 1101.33 0.71133 1103.87 2.13397C1106.46 3.50581 1108.42 5.36031 1109.74 7.69751C1111.06 10.0347 1111.72 12.5751 1111.72 15.3188C1111.72 17.5036 1111.29 19.6629 1110.43 21.7969C1109.62 23.9309 1108.4 25.887 1106.77 27.6653L1090.77 45.4229L1107.61 80.1761Z"/>
<path d="M1199.9 81.243C1200.71 83.4786 1201.12 85.7396 1201.12 88.026C1201.12 90.7697 1200.49 93.2593 1199.22 95.4949C1198 97.7304 1196.12 99.5088 1193.58 100.83C1191.04 102.151 1187.94 102.811 1184.28 102.811C1181.03 102.811 1178.11 102.1 1175.51 100.677C1172.92 99.2547 1171.22 97.0699 1170.41 94.123L1169.11 88.8643H1146.63L1145.33 94.123C1144.52 97.0699 1142.77 99.2547 1140.07 100.677C1137.43 102.1 1134.46 102.811 1131.16 102.811C1127.91 102.811 1125.01 102.176 1122.47 100.906C1119.98 99.6358 1118.05 97.8829 1116.68 95.6473C1115.31 93.3609 1114.62 90.7951 1114.62 87.9498C1114.62 85.9174 1115.05 83.6818 1115.92 81.243L1142.67 9.75526C1143.78 6.80836 1145.66 4.62359 1148.31 3.20094C1150.95 1.72749 1154.17 0.990768 1157.98 0.990768C1161.69 0.990768 1164.87 1.7021 1167.51 3.12474C1170.2 4.54738 1172.06 6.70675 1173.08 9.60284L1199.9 81.243ZM1163.09 64.5524L1157.98 43.9749L1152.8 64.5524H1163.09Z"/>
<path d="M1267.66 69.7349C1272.89 69.7857 1276.83 71.1829 1279.47 73.9266C1282.16 76.6702 1283.51 80.7349 1283.51 86.1207C1283.51 96.5872 1278.22 101.821 1267.66 101.821H1228.1C1222.87 101.821 1218.88 100.245 1216.14 97.0953C1213.44 93.9452 1212.1 89.3216 1212.1 83.2246V16.5382C1212.1 11.4065 1213.44 7.51967 1216.14 4.87762C1218.83 2.23557 1222.82 0.914551 1228.1 0.914551C1233.38 0.914551 1237.4 2.23557 1240.14 4.87762C1242.89 7.51967 1244.26 11.4065 1244.26 16.5382V69.5824L1267.66 69.7349Z"/>
<path d="M1374.43 81.243C1375.24 83.4786 1375.65 85.7396 1375.65 88.026C1375.65 90.7697 1375.01 93.2593 1373.74 95.4949C1372.52 97.7304 1370.64 99.5088 1368.1 100.83C1365.56 102.151 1362.46 102.811 1358.81 102.811C1355.55 102.811 1352.63 102.1 1350.04 100.677C1347.45 99.2547 1345.75 97.0699 1344.94 94.123L1343.64 88.8643H1321.16L1319.86 94.123C1319.05 97.0699 1317.3 99.2547 1314.6 100.677C1311.96 102.1 1308.99 102.811 1305.69 102.811C1302.43 102.811 1299.54 102.176 1297 100.906C1294.51 99.6358 1292.58 97.8829 1291.21 95.6473C1289.83 93.3609 1289.15 90.7951 1289.15 87.9498C1289.15 85.9174 1289.58 83.6818 1290.44 81.243L1317.19 9.75526C1318.31 6.80836 1320.19 4.62359 1322.83 3.20094C1325.48 1.72749 1328.7 0.990768 1332.51 0.990768C1336.22 0.990768 1339.4 1.7021 1342.04 3.12474C1344.73 4.54738 1346.59 6.70675 1347.6 9.60284L1374.43 81.243ZM1337.62 64.5524L1332.51 43.9749L1327.33 64.5524H1337.62Z"/>
</mask>
<path d="M724.714 42.0696C729.439 42.0696 732.894 43.289 735.079 45.7278C737.264 48.1158 738.356 51.7232 738.356 56.55V74.079C738.356 78.4994 737.467 82.5895 735.689 86.3493C733.961 90.1091 731.827 93.0052 729.287 95.0376C725.781 97.7812 721.894 99.8898 717.626 101.363C713.358 102.786 707.896 103.497 701.24 103.497C693.009 103.497 685.871 101.922 679.825 98.772C673.778 95.6219 669.129 91.1253 665.878 85.2823C662.626 79.3885 661 72.4277 661 64.3999V40.0118C661 31.8824 662.626 24.8454 665.878 18.9008C669.129 12.9054 673.778 8.30721 679.825 5.10626C685.922 1.90532 693.111 0.304855 701.393 0.304855C706.677 0.304855 711.275 1.01617 715.187 2.43881C719.1 3.86145 722.987 5.84299 726.848 8.38342C729.592 10.2633 731.599 12.3465 732.869 14.6329C734.19 16.8685 734.85 19.1803 734.85 21.5683C734.85 24.312 734.088 26.954 732.564 29.4944C731.091 31.984 729.16 34.0164 726.772 35.5915C724.435 37.1157 722.072 37.8779 719.684 37.8779C716.331 37.8779 712.495 36.6838 708.176 34.2958C707.21 33.7369 705.864 33.3051 704.137 33.0002C702.46 32.6954 700.605 32.5429 698.573 32.5429C696.896 32.5429 695.575 33.2797 694.61 34.7531C693.645 36.1758 693.162 38.1573 693.162 40.6977V63.2568C693.162 66.102 693.772 68.3376 694.991 69.9635C696.21 71.5894 697.862 72.4023 699.945 72.4023C704.67 72.4023 707.795 71.9958 709.319 71.1829V67.9058H708.862C705.966 67.9058 703.679 66.7626 702.003 64.4762C700.326 62.1898 699.488 59.065 699.488 55.102C699.488 50.6308 700.682 47.3537 703.07 45.2705C705.458 43.1365 709.04 42.0696 713.816 42.0696H724.714Z" fill="#C9F1FF"/>
<path d="M750.931 38.9448C750.931 31.0187 752.557 24.1595 755.809 18.3673C759.061 12.5243 763.71 8.05317 769.756 4.95384C775.802 1.85451 782.966 0.304855 791.248 0.304855C799.581 0.304855 806.795 1.85451 812.892 4.95384C818.99 8.05317 823.664 12.5243 826.916 18.3673C830.218 24.1595 831.869 31.0187 831.869 38.9448V65.2383C831.869 73.0628 830.218 79.8712 826.916 85.6634C823.664 91.4048 818.99 95.8251 812.892 98.9244C806.795 101.973 799.581 103.497 791.248 103.497C782.966 103.497 775.802 101.973 769.756 98.9244C763.71 95.8251 759.061 91.4048 755.809 85.6634C752.557 79.8712 750.931 73.0628 750.931 65.2383V38.9448ZM783.169 63.714C783.169 66.0512 783.881 67.9058 785.303 69.2776C786.777 70.5986 788.758 71.2591 791.248 71.2591C793.89 71.2591 795.948 70.5986 797.421 69.2776C798.945 67.9058 799.708 66.0512 799.708 63.714V40.1642C799.708 37.7762 798.945 35.9217 797.421 34.6007C795.948 33.2289 793.89 32.5429 791.248 32.5429C788.758 32.5429 786.777 33.2289 785.303 34.6007C783.881 35.9217 783.169 37.7762 783.169 40.1642V63.714Z" fill="#C9F1FF"/>
<path d="M922.258 36.8109C922.207 41.282 921.293 45.4483 919.514 49.3098C917.736 53.1204 915.272 56.55 912.122 59.5986C914.307 61.4785 916.085 63.5616 917.457 65.848C918.879 68.1344 919.768 70.497 920.124 72.9358L921.648 83.1484C921.902 84.9267 922.029 86.4509 922.029 87.7211C922.029 92.9036 920.556 96.8921 917.609 99.6866C914.713 102.43 910.598 103.802 905.263 103.802C901.045 103.802 897.667 102.71 895.126 100.525C892.586 98.3401 890.935 95.1138 890.172 90.8459L888.267 77.9659C888.165 76.7465 887.581 75.6541 886.514 74.6887C885.498 73.7234 883.72 73.2407 881.179 73.2407H880.951H879.503V87.0352C879.503 92.2685 878.131 96.2062 875.387 98.8482C872.643 101.49 868.63 102.811 863.345 102.811C858.061 102.811 854.073 101.49 851.38 98.8482C848.687 96.2062 847.341 92.2685 847.341 87.0352V17.9863C847.341 12.753 848.687 8.7899 851.38 6.09705C854.124 3.35338 858.112 1.98154 863.345 1.98154H882.551C889.461 1.98154 895.914 3.20094 901.909 5.63976C907.955 8.07857 912.858 11.9146 916.618 17.1479C920.378 22.3812 922.258 28.9355 922.258 36.8109ZM886.057 44.2035C887.48 44.2035 888.648 43.6954 889.563 42.6793C890.528 41.6631 891.011 40.4183 891.011 38.9448V37.573C891.011 36.3536 890.503 35.3374 889.486 34.5245C888.521 33.7115 887.327 33.3051 885.904 33.3051H878.588V44.2035H886.057ZM922.258 36.9633V36.8109V36.6584V36.9633Z" fill="#C9F1FF"/>
<path d="M1013.94 81.243C1014.76 83.4786 1015.16 85.7396 1015.16 88.026C1015.16 90.7697 1014.53 93.2593 1013.26 95.4949C1012.04 97.7304 1010.16 99.5088 1007.62 100.83C1005.08 102.151 1001.98 102.811 998.319 102.811C995.067 102.811 992.145 102.1 989.554 100.677C986.963 99.2547 985.261 97.0699 984.448 94.123L983.152 88.8643H960.669L959.374 94.123C958.561 97.0699 956.808 99.2547 954.115 100.677C951.473 102.1 948.501 102.811 945.198 102.811C941.946 102.811 939.05 102.176 936.51 100.906C934.02 99.6358 932.09 97.8829 930.718 95.6473C929.346 93.3609 928.66 90.7951 928.66 87.9498C928.66 85.9174 929.092 83.6818 929.956 81.243L956.706 9.75526C957.824 6.80836 959.704 4.62359 962.346 3.20094C964.988 1.72749 968.215 0.990768 972.025 0.990768C975.734 0.990768 978.91 1.7021 981.552 3.12474C984.245 4.54738 986.099 6.70675 987.115 9.60284L1013.94 81.243ZM977.131 64.5524L972.025 43.9749L966.843 64.5524H977.131Z" fill="#C9F1FF"/>
<path d="M1107.61 80.1761C1109.28 83.0213 1110.12 85.8666 1110.12 88.7119C1110.12 91.354 1109.44 93.742 1108.07 95.8759C1106.69 98.0099 1104.81 99.712 1102.43 100.982C1100.04 102.202 1097.37 102.811 1094.42 102.811C1090.66 102.811 1087.59 102.1 1085.2 100.677C1082.81 99.2547 1080.65 96.8921 1078.72 93.5895L1067.9 70.6494L1061.5 77.8134C1060.53 78.7788 1059.47 79.6172 1058.3 80.3285V88.026C1058.3 93.2593 1056.95 97.197 1054.26 99.839C1051.57 102.481 1047.58 103.802 1042.29 103.802C1037.01 103.802 1033 102.481 1030.25 99.839C1027.51 97.197 1026.14 93.2593 1026.14 88.026V16.6144C1026.14 11.4319 1027.51 7.51967 1030.25 4.87762C1033 2.23557 1037.01 0.914551 1042.29 0.914551C1047.58 0.914551 1051.57 2.23557 1054.26 4.87762C1056.95 7.51967 1058.3 11.4319 1058.3 16.6144V33.9148L1084.52 4.42036C1086.04 2.69287 1087.59 1.52425 1089.16 0.914551C1090.74 0.304847 1092.59 0 1094.73 0C1098.28 0 1101.33 0.71133 1103.87 2.13397C1106.46 3.50581 1108.42 5.36031 1109.74 7.69751C1111.06 10.0347 1111.72 12.5751 1111.72 15.3188C1111.72 17.5036 1111.29 19.6629 1110.43 21.7969C1109.62 23.9309 1108.4 25.887 1106.77 27.6653L1090.77 45.4229L1107.61 80.1761Z" fill="#C9F1FF"/>
<path d="M1199.9 81.243C1200.71 83.4786 1201.12 85.7396 1201.12 88.026C1201.12 90.7697 1200.49 93.2593 1199.22 95.4949C1198 97.7304 1196.12 99.5088 1193.58 100.83C1191.04 102.151 1187.94 102.811 1184.28 102.811C1181.03 102.811 1178.11 102.1 1175.51 100.677C1172.92 99.2547 1171.22 97.0699 1170.41 94.123L1169.11 88.8643H1146.63L1145.33 94.123C1144.52 97.0699 1142.77 99.2547 1140.07 100.677C1137.43 102.1 1134.46 102.811 1131.16 102.811C1127.91 102.811 1125.01 102.176 1122.47 100.906C1119.98 99.6358 1118.05 97.8829 1116.68 95.6473C1115.31 93.3609 1114.62 90.7951 1114.62 87.9498C1114.62 85.9174 1115.05 83.6818 1115.92 81.243L1142.67 9.75526C1143.78 6.80836 1145.66 4.62359 1148.31 3.20094C1150.95 1.72749 1154.17 0.990768 1157.98 0.990768C1161.69 0.990768 1164.87 1.7021 1167.51 3.12474C1170.2 4.54738 1172.06 6.70675 1173.08 9.60284L1199.9 81.243ZM1163.09 64.5524L1157.98 43.9749L1152.8 64.5524H1163.09Z" fill="#C9F1FF"/>
<path d="M1267.66 69.7349C1272.89 69.7857 1276.83 71.1829 1279.47 73.9266C1282.16 76.6702 1283.51 80.7349 1283.51 86.1207C1283.51 96.5872 1278.22 101.821 1267.66 101.821H1228.1C1222.87 101.821 1218.88 100.245 1216.14 97.0953C1213.44 93.9452 1212.1 89.3216 1212.1 83.2246V16.5382C1212.1 11.4065 1213.44 7.51967 1216.14 4.87762C1218.83 2.23557 1222.82 0.914551 1228.1 0.914551C1233.38 0.914551 1237.4 2.23557 1240.14 4.87762C1242.89 7.51967 1244.26 11.4065 1244.26 16.5382V69.5824L1267.66 69.7349Z" fill="#C9F1FF"/>
<path d="M1374.43 81.243C1375.24 83.4786 1375.65 85.7396 1375.65 88.026C1375.65 90.7697 1375.01 93.2593 1373.74 95.4949C1372.52 97.7304 1370.64 99.5088 1368.1 100.83C1365.56 102.151 1362.46 102.811 1358.81 102.811C1355.55 102.811 1352.63 102.1 1350.04 100.677C1347.45 99.2547 1345.75 97.0699 1344.94 94.123L1343.64 88.8643H1321.16L1319.86 94.123C1319.05 97.0699 1317.3 99.2547 1314.6 100.677C1311.96 102.1 1308.99 102.811 1305.69 102.811C1302.43 102.811 1299.54 102.176 1297 100.906C1294.51 99.6358 1292.58 97.8829 1291.21 95.6473C1289.83 93.3609 1289.15 90.7951 1289.15 87.9498C1289.15 85.9174 1289.58 83.6818 1290.44 81.243L1317.19 9.75526C1318.31 6.80836 1320.19 4.62359 1322.83 3.20094C1325.48 1.72749 1328.7 0.990768 1332.51 0.990768C1336.22 0.990768 1339.4 1.7021 1342.04 3.12474C1344.73 4.54738 1346.59 6.70675 1347.6 9.60284L1374.43 81.243ZM1337.62 64.5524L1332.51 43.9749L1327.33 64.5524H1337.62Z" fill="#C9F1FF"/>
<path d="M735.079 45.7278L734.01 46.6856L734.015 46.6912L734.02 46.6967L735.079 45.7278ZM735.689 86.3493L734.391 85.7356L734.388 85.7428L734.384 85.75L735.689 86.3493ZM729.287 95.0376L730.172 96.168L730.178 96.1633L730.184 96.1585L729.287 95.0376ZM717.626 101.363L718.08 102.725L718.087 102.723L718.095 102.72L717.626 101.363ZM665.878 85.2823L664.621 85.9757L664.623 85.9803L665.878 85.2823ZM665.878 18.9008L667.137 19.5897L667.139 19.5852L665.878 18.9008ZM679.825 5.10626L679.157 3.83532L679.153 3.83764L679.825 5.10626ZM726.848 8.38342L727.659 7.19928L727.648 7.19165L727.637 7.18423L726.848 8.38342ZM732.869 14.6329L731.614 15.33L731.623 15.3467L731.633 15.3631L732.869 14.6329ZM732.564 29.4944L731.333 28.7559L731.329 28.7633L732.564 29.4944ZM726.772 35.5915L727.556 36.7938L727.562 36.7897L726.772 35.5915ZM708.176 34.2958L707.457 35.5381L707.469 35.5452L707.481 35.552L708.176 34.2958ZM704.137 33.0002L703.88 34.4125L703.887 34.4138L704.137 33.0002ZM694.61 34.7531L695.798 35.5591L695.804 35.5495L695.811 35.5398L694.61 34.7531ZM709.319 71.1829L709.995 72.4495L710.754 72.0442V71.1829H709.319ZM709.319 67.9058H710.754V66.4703H709.319V67.9058ZM703.07 45.2705L704.013 46.3522L704.02 46.3466L704.026 46.3409L703.07 45.2705ZM755.809 18.3673L757.061 19.07L757.063 19.0654L755.809 18.3673ZM826.916 18.3673L825.661 19.0654L825.665 19.0719L825.669 19.0783L826.916 18.3673ZM826.916 85.6634L825.669 84.9524L825.667 84.956L826.916 85.6634ZM812.892 98.9244L813.534 100.208L813.543 100.204L812.892 98.9244ZM769.756 98.9244L769.101 100.202L769.11 100.206L769.756 98.9244ZM755.809 85.6634L754.557 86.3661L754.56 86.3708L755.809 85.6634ZM785.303 69.2776L784.307 70.3109L784.326 70.329L784.345 70.3464L785.303 69.2776ZM797.421 69.2776L798.379 70.3464L798.381 70.3446L797.421 69.2776ZM797.421 34.6007L796.443 35.6513L796.462 35.6687L796.481 35.6854L797.421 34.6007ZM785.303 34.6007L786.28 35.6526L786.281 35.6513L785.303 34.6007ZM919.514 49.3098L920.815 49.9168L920.818 49.9102L919.514 49.3098ZM912.122 59.5986L911.124 58.567L909.993 59.6608L911.185 60.6866L912.122 59.5986ZM917.457 65.848L916.226 66.5865L916.232 66.5965L916.238 66.6064L917.457 65.848ZM920.124 72.9358L918.704 73.143L918.704 73.1477L920.124 72.9358ZM921.648 83.1484L923.069 82.9454L923.068 82.9365L921.648 83.1484ZM917.609 99.6866L918.596 100.729L918.597 100.728L917.609 99.6866ZM890.172 90.8459L888.752 91.0559L888.756 91.0771L888.759 91.0982L890.172 90.8459ZM888.267 77.9659L886.837 78.0851L886.84 78.1307L886.847 78.1759L888.267 77.9659ZM886.514 74.6887L885.526 75.7294L885.538 75.7414L885.551 75.7532L886.514 74.6887ZM879.503 73.2407V71.8052H878.067V73.2407H879.503ZM901.909 5.63976L901.368 6.9694L901.372 6.97098L901.909 5.63976ZM889.563 42.6793L888.522 41.6906L888.509 41.7046L888.496 41.719L889.563 42.6793ZM889.486 34.5245L888.562 35.6225L888.576 35.6341L888.59 35.6454L889.486 34.5245ZM878.588 33.3051V31.8696H877.153V33.3051H878.588ZM878.588 44.2035H877.153V45.639H878.588V44.2035ZM1013.94 81.243L1015.29 80.7524L1015.29 80.7396L1013.94 81.243ZM1013.26 95.4949L1012.01 94.7857L1012 94.7966L1012 94.8075L1013.26 95.4949ZM984.448 94.123L983.054 94.4664L983.059 94.4856L983.064 94.5047L984.448 94.123ZM983.152 88.8643L984.546 88.5209L984.277 87.4289H983.152V88.8643ZM960.669 88.8643V87.4289H959.545L959.276 88.5209L960.669 88.8643ZM959.374 94.123L960.758 94.5047L960.763 94.4856L960.768 94.4664L959.374 94.123ZM954.115 100.677L953.445 99.4081L953.435 99.4135L954.115 100.677ZM936.51 100.906L935.858 102.185L935.868 102.19L936.51 100.906ZM930.718 95.6473L929.487 96.3858L929.491 96.3919L929.494 96.398L930.718 95.6473ZM929.956 81.243L928.611 80.74L928.607 80.7518L928.602 80.7638L929.956 81.243ZM956.706 9.75526L955.364 9.24617L955.362 9.25219L956.706 9.75526ZM962.346 3.20094L963.027 4.46481L963.036 4.45978L963.045 4.45461L962.346 3.20094ZM981.552 3.12474L980.871 4.38865L980.881 4.39395L981.552 3.12474ZM987.115 9.60284L985.761 10.0781L985.766 10.0922L985.771 10.1062L987.115 9.60284ZM977.131 64.5524V65.9878H978.967L978.525 64.2067L977.131 64.5524ZM972.025 43.9749L973.418 43.6292L970.633 43.6243L972.025 43.9749ZM966.843 64.5524L965.451 64.2018L965.001 65.9878H966.843V64.5524ZM1107.61 80.1761L1106.32 80.8021L1106.34 80.8546L1106.37 80.9048L1107.61 80.1761ZM1102.43 100.982L1103.08 102.261L1103.09 102.255L1103.1 102.25L1102.43 100.982ZM1078.72 93.5895L1077.43 94.202L1077.45 94.2593L1077.48 94.314L1078.72 93.5895ZM1067.9 70.6494L1069.2 70.037L1068.27 68.0771L1066.83 69.6929L1067.9 70.6494ZM1061.5 77.8134L1062.51 78.8285L1062.54 78.8L1062.57 78.7699L1061.5 77.8134ZM1058.3 80.3285L1057.55 79.1023L1056.86 79.5218V80.3285H1058.3ZM1058.3 33.9148H1056.86V37.6903L1059.37 34.8684L1058.3 33.9148ZM1084.52 4.42036L1085.59 5.37403L1085.59 5.37008L1084.52 4.42036ZM1103.87 2.13397L1103.17 3.3864L1103.19 3.39468L1103.2 3.4026L1103.87 2.13397ZM1110.43 21.7969L1109.1 21.2583L1109.09 21.2721L1109.09 21.2859L1110.43 21.7969ZM1106.77 27.6653L1105.71 26.6967L1105.7 26.7043L1106.77 27.6653ZM1090.77 45.4229L1089.7 44.4619L1089.05 45.1796L1089.47 46.049L1090.77 45.4229ZM1199.9 81.243L1201.25 80.7524L1201.25 80.7396L1199.9 81.243ZM1199.22 95.4949L1197.97 94.7857L1197.96 94.7966L1197.96 94.8075L1199.22 95.4949ZM1170.41 94.123L1169.01 94.4664L1169.02 94.4856L1169.02 94.5047L1170.41 94.123ZM1169.11 88.8643L1170.51 88.5209L1170.24 87.4289H1169.11V88.8643ZM1146.63 88.8643V87.4289H1145.5L1145.24 88.5209L1146.63 88.8643ZM1145.33 94.123L1146.72 94.5047L1146.72 94.4856L1146.73 94.4664L1145.33 94.123ZM1140.07 100.677L1139.4 99.4081L1139.39 99.4135L1140.07 100.677ZM1122.47 100.906L1121.82 102.185L1121.83 102.19L1122.47 100.906ZM1116.68 95.6473L1115.45 96.3858L1115.45 96.3919L1115.45 96.398L1116.68 95.6473ZM1115.92 81.243L1114.57 80.74L1114.57 80.7518L1114.56 80.7638L1115.92 81.243ZM1142.67 9.75526L1141.32 9.24617L1141.32 9.25219L1142.67 9.75526ZM1148.31 3.20094L1148.99 4.46481L1149 4.45978L1149 4.45461L1148.31 3.20094ZM1167.51 3.12474L1166.83 4.38865L1166.84 4.39395L1167.51 3.12474ZM1173.08 9.60284L1171.72 10.0781L1171.73 10.0922L1171.73 10.1062L1173.08 9.60284ZM1163.09 64.5524V65.9878H1164.93L1164.48 64.2067L1163.09 64.5524ZM1157.98 43.9749L1159.38 43.6292L1156.59 43.6243L1157.98 43.9749ZM1152.8 64.5524L1151.41 64.2018L1150.96 65.9878H1152.8V64.5524ZM1267.66 69.7349L1267.67 68.2995L1267.66 68.2995L1267.66 69.7349ZM1279.47 73.9266L1278.43 74.9223L1278.44 74.9321L1279.47 73.9266ZM1216.14 97.0953L1215.04 98.0281L1215.05 98.0381L1216.14 97.0953ZM1244.26 69.5824H1242.82V71.0086L1244.25 71.0179L1244.26 69.5824ZM1374.43 81.243L1375.78 80.7524L1375.77 80.7396L1374.43 81.243ZM1373.74 95.4949L1372.5 94.7857L1372.49 94.7966L1372.48 94.8075L1373.74 95.4949ZM1344.94 94.123L1343.54 94.4664L1343.55 94.4856L1343.55 94.5047L1344.94 94.123ZM1343.64 88.8643L1345.03 88.5209L1344.76 87.4289H1343.64V88.8643ZM1321.16 88.8643V87.4289H1320.03L1319.76 88.5209L1321.16 88.8643ZM1319.86 94.123L1321.24 94.5047L1321.25 94.4856L1321.25 94.4664L1319.86 94.123ZM1314.6 100.677L1313.93 99.4081L1313.92 99.4135L1314.6 100.677ZM1297 100.906L1296.34 102.185L1296.36 102.19L1297 100.906ZM1291.21 95.6473L1289.97 96.3858L1289.98 96.3919L1289.98 96.398L1291.21 95.6473ZM1290.44 81.243L1289.1 80.74L1289.09 80.7518L1289.09 80.7638L1290.44 81.243ZM1317.19 9.75526L1315.85 9.24617L1315.85 9.25219L1317.19 9.75526ZM1322.83 3.20094L1323.51 4.46481L1323.52 4.45978L1323.53 4.45461L1322.83 3.20094ZM1342.04 3.12474L1341.36 4.38865L1341.37 4.39395L1342.04 3.12474ZM1347.6 9.60284L1346.25 10.0781L1346.25 10.0922L1346.26 10.1062L1347.6 9.60284ZM1337.62 64.5524V65.9878H1339.45L1339.01 64.2067L1337.62 64.5524ZM1332.51 43.9749L1333.91 43.6292L1331.12 43.6243L1332.51 43.9749ZM1327.33 64.5524L1325.94 64.2018L1325.49 65.9878H1327.33V64.5524ZM724.714 43.505C729.216 43.505 732.2 44.6654 734.01 46.6856L736.148 44.77C733.588 41.9125 729.663 40.6341 724.714 40.6341V43.505ZM734.02 46.6967C735.867 48.7158 736.921 51.9096 736.921 56.55H739.792C739.792 51.5368 738.66 47.5158 736.138 44.7588L734.02 46.6967ZM736.921 56.55V74.079H739.792V56.55H736.921ZM736.921 74.079C736.921 78.3007 736.073 82.1795 734.391 85.7356L736.986 86.963C738.861 82.9994 739.792 78.698 739.792 74.079H736.921ZM734.384 85.75C732.726 89.3603 730.715 92.0568 728.39 93.9167L730.184 96.1585C732.94 93.9537 735.197 90.858 736.993 86.9486L734.384 85.75ZM728.402 93.9072C725.023 96.5514 721.278 98.5841 717.158 100.006L718.095 102.72C722.511 101.196 726.539 99.0111 730.172 96.168L728.402 93.9072ZM717.172 100.001C713.103 101.358 707.809 102.062 701.24 102.062V104.933C707.984 104.933 713.614 104.214 718.08 102.725L717.172 100.001ZM701.24 102.062C693.193 102.062 686.291 100.522 680.488 97.499L679.161 100.045C685.451 103.322 692.826 104.933 701.24 104.933V102.062ZM680.488 97.499C674.685 94.4759 670.244 90.1769 667.132 84.5843L664.623 85.9803C668.014 92.0737 672.871 96.7679 679.161 100.045L680.488 97.499ZM667.134 84.5889C664.021 78.9448 662.435 72.2319 662.435 64.3999H659.565C659.565 72.6236 661.231 79.8322 664.621 85.9757L667.134 84.5889ZM662.435 64.3999V40.0118H659.565V64.3999H662.435ZM662.435 40.0118C662.435 32.0753 664.022 25.2847 667.137 19.5897L664.618 18.2119C661.23 24.4062 659.565 31.6896 659.565 40.0118H662.435ZM667.139 19.5852C670.256 13.8392 674.699 9.44391 680.496 6.37489L679.153 3.83764C672.858 7.1705 668.003 11.9716 664.616 18.2165L667.139 19.5852ZM680.492 6.3772C686.345 3.30413 693.297 1.7403 701.393 1.7403V-1.13059C692.925 -1.13059 685.498 0.506503 679.157 3.83533L680.492 6.3772ZM701.393 1.7403C706.553 1.7403 710.978 2.43542 714.697 3.78783L715.678 1.08979C711.573 -0.403084 706.801 -1.13059 701.393 -1.13059V1.7403ZM714.697 3.78783C718.493 5.16838 722.281 7.09691 726.059 9.58262L727.637 7.18423C723.692 4.58907 719.706 2.55453 715.678 1.08979L714.697 3.78783ZM726.037 9.56756C728.645 11.3549 730.477 13.2837 731.614 15.33L734.124 13.9358C732.72 11.4093 730.538 9.17179 727.659 7.19928L726.037 9.56756ZM731.633 15.3631C732.835 17.3975 733.415 19.4594 733.415 21.5683H736.286C736.286 18.9011 735.545 16.3394 734.105 13.9026L731.633 15.3631ZM733.415 21.5683C733.415 24.0311 732.735 26.4201 731.333 28.7559L733.795 30.2329C735.442 27.4879 736.286 24.5928 736.286 21.5683H733.415ZM731.329 28.7633C729.965 31.0677 728.185 32.9395 725.981 34.3932L727.562 36.7897C730.134 35.0933 732.216 32.9004 733.799 30.2255L731.329 28.7633ZM725.988 34.3891C723.844 35.7874 721.749 36.4424 719.684 36.4424V39.3133C722.395 39.3133 725.026 38.444 727.556 36.7938L725.988 34.3891ZM719.684 36.4424C716.662 36.4424 713.07 35.3616 708.87 33.0396L707.481 35.552C711.919 38.0061 716 39.3133 719.684 39.3133V36.4424ZM708.895 33.0536C707.726 32.3765 706.195 31.9059 704.386 31.5866L703.887 34.4138C705.533 34.7042 706.695 35.0974 707.457 35.5381L708.895 33.0536ZM704.393 31.5879C702.618 31.2651 700.676 31.1075 698.573 31.1075V33.9784C700.535 33.9784 702.302 34.1257 703.88 34.4125L704.393 31.5879ZM698.573 31.1075C696.384 31.1075 694.624 32.1127 693.409 33.9665L695.811 35.5398C696.527 34.4466 697.409 33.9784 698.573 33.9784V31.1075ZM693.422 33.9471C692.235 35.6961 691.726 37.9997 691.726 40.6977H694.597C694.597 38.3149 695.054 36.6554 695.798 35.5591L693.422 33.9471ZM691.726 40.6977V63.2568H694.597V40.6977H691.726ZM691.726 63.2568C691.726 66.2914 692.375 68.8684 693.843 70.8248L696.139 69.1022C695.168 67.8069 694.597 65.9127 694.597 63.2568H691.726ZM693.843 70.8248C695.341 72.8226 697.423 73.8378 699.945 73.8378V70.9669C698.3 70.9669 697.08 70.3562 696.139 69.1022L693.843 70.8248ZM699.945 73.8378C702.342 73.8378 704.372 73.735 706.017 73.5209C707.634 73.3106 709.002 72.9789 709.995 72.4495L708.644 69.9163C708.112 70.1999 707.155 70.4778 705.647 70.674C704.168 70.8664 702.273 70.9669 699.945 70.9669V73.8378ZM710.754 71.1829V67.9058H707.884V71.1829H710.754ZM709.319 66.4703H708.862V69.3412H709.319V66.4703ZM708.862 66.4703C706.411 66.4703 704.56 65.5357 703.16 63.6273L700.845 65.3251C702.799 67.9894 705.52 69.3412 708.862 69.3412V66.4703ZM703.16 63.6273C701.723 61.6679 700.923 58.878 700.923 55.102H698.052C698.052 59.2521 698.929 62.7117 700.845 65.3251L703.16 63.6273ZM700.923 55.102C700.923 50.8692 702.05 48.0651 704.013 46.3522L702.126 44.1888C699.313 46.6423 698.052 50.3924 698.052 55.102H700.923ZM704.026 46.3409C706.048 44.5344 709.224 43.505 713.816 43.505V40.6341C708.856 40.6341 704.868 41.7387 702.113 44.2002L704.026 46.3409ZM713.816 43.505H724.714V40.6341H713.816V43.505ZM752.367 38.9448C752.367 31.2172 753.951 24.6096 757.061 19.07L754.557 17.6646C751.164 23.7094 749.496 30.8201 749.496 38.9448H752.367ZM757.063 19.0654C760.175 13.4747 764.613 9.20322 770.411 6.23124L769.101 3.67645C762.806 6.90312 757.947 11.5739 754.555 17.6693L757.063 19.0654ZM770.411 6.23124C776.215 3.25611 783.145 1.7403 791.248 1.7403V-1.13059C782.788 -1.13059 775.39 0.452919 769.101 3.67645L770.411 6.23124ZM791.248 1.7403C799.403 1.7403 806.386 3.25655 812.242 6.23345L813.543 3.67424C807.205 0.452482 799.758 -1.13059 791.248 -1.13059V1.7403ZM812.242 6.23345C818.091 9.20647 822.552 13.478 825.661 19.0654L828.17 17.6693C824.776 11.5707 819.888 6.89987 813.543 3.67424L812.242 6.23345ZM825.669 19.0783C828.826 24.6163 830.434 31.2208 830.434 38.9448H833.305C833.305 30.8165 831.61 23.7027 828.163 17.6563L825.669 19.0783ZM830.434 38.9448V65.2383H833.305V38.9448H830.434ZM830.434 65.2383C830.434 72.8571 828.828 79.4117 825.669 84.9524L828.163 86.3744C831.609 80.3306 833.305 73.2686 833.305 65.2383H830.434ZM825.667 84.956C822.559 90.4426 818.097 94.6684 812.242 97.6448L813.543 100.204C819.882 96.9819 824.769 92.3669 828.165 86.3708L825.667 84.956ZM812.251 97.6405C806.392 100.57 799.407 102.062 791.248 102.062V104.933C799.755 104.933 807.199 103.376 813.534 100.208L812.251 97.6405ZM791.248 102.062C783.141 102.062 776.208 100.57 770.402 97.6427L769.11 100.206C775.396 103.376 782.791 104.933 791.248 104.933V102.062ZM770.411 97.647C764.606 94.6716 760.167 90.4458 757.058 84.956L754.56 86.3708C757.954 92.3637 762.813 96.9786 769.101 100.202L770.411 97.647ZM757.061 84.9607C753.949 79.4184 752.367 72.8607 752.367 65.2383H749.496C749.496 73.265 751.165 80.3239 754.557 86.3661L757.061 84.9607ZM752.367 65.2383V38.9448H749.496V65.2383H752.367ZM781.734 63.714C781.734 66.364 782.553 68.6194 784.307 70.3109L786.3 68.2443C785.209 67.1922 784.605 65.7384 784.605 63.714H781.734ZM784.345 70.3464C786.145 71.9599 788.499 72.6946 791.248 72.6946V69.8237C789.017 69.8237 787.409 69.2374 786.262 68.2088L784.345 70.3464ZM791.248 72.6946C794.123 72.6946 796.565 71.9731 798.379 70.3464L796.463 68.2088C795.331 69.2241 793.657 69.8237 791.248 69.8237V72.6946ZM798.381 70.3446C800.252 68.6611 801.143 66.3953 801.143 63.714H798.272C798.272 65.7072 797.639 67.1505 796.461 68.2106L798.381 70.3446ZM801.143 63.714V40.1642H798.272V63.714H801.143ZM801.143 40.1642C801.143 37.4442 800.259 35.1603 798.361 33.5159L796.481 35.6854C797.632 36.6831 798.272 38.1083 798.272 40.1642H801.143ZM798.399 33.5501C796.586 31.8616 794.136 31.1075 791.248 31.1075V33.9784C793.644 33.9784 795.31 34.5961 796.443 35.6513L798.399 33.5501ZM791.248 31.1075C788.485 31.1075 786.124 31.8757 784.325 33.5501L786.281 35.6513C787.43 34.582 789.031 33.9784 791.248 33.9784V31.1075ZM784.327 33.5488C782.546 35.202 781.734 37.4757 781.734 40.1642H784.605C784.605 38.0767 785.215 36.6414 786.28 35.6526L784.327 33.5488ZM781.734 40.1642V63.714H784.605V40.1642H781.734ZM920.823 36.7946C920.774 41.0746 919.9 45.0406 918.211 48.7093L920.818 49.9102C922.685 45.856 923.64 41.4895 923.693 36.8272L920.823 36.7946ZM918.214 48.7028C916.513 52.3479 914.153 55.6351 911.124 58.567L913.12 60.6301C916.391 57.465 918.96 53.8929 920.815 49.9168L918.214 48.7028ZM911.185 60.6866C913.263 62.4746 914.939 64.4419 916.226 66.5865L918.688 65.1095C917.231 62.6813 915.35 60.4823 913.058 58.5105L911.185 60.6866ZM916.238 66.6064C917.566 68.7405 918.379 70.9173 918.704 73.143L921.545 72.7287C921.158 70.0767 920.193 67.5283 918.675 65.0897L916.238 66.6064ZM918.704 73.1477L920.229 83.3603L923.068 82.9365L921.544 72.7239L918.704 73.1477ZM920.227 83.3514C920.475 85.0876 920.594 86.5402 920.594 87.7211H923.465C923.465 86.3616 923.329 84.7657 923.069 82.9454L920.227 83.3514ZM920.594 87.7211C920.594 92.6247 919.208 96.1917 916.621 98.645L918.597 100.728C921.903 97.5925 923.465 93.1825 923.465 87.7211H920.594ZM916.622 98.6445C914.072 101.06 910.357 102.367 905.263 102.367V105.238C910.838 105.238 915.354 103.8 918.596 100.729L916.622 98.6445ZM905.263 102.367C901.297 102.367 898.28 101.344 896.062 99.4366L894.19 101.613C897.053 104.075 900.794 105.238 905.263 105.238V102.367ZM896.062 99.4366C893.838 97.5237 892.307 94.6331 891.586 90.5935L888.759 91.0982C889.562 95.5945 891.334 99.1566 894.19 101.613L896.062 99.4366ZM891.592 90.6358L889.687 77.7558L886.847 78.1759L888.752 91.0559L891.592 90.6358ZM889.698 77.8467C889.56 76.2015 888.764 74.7882 887.477 73.6243L885.551 75.7532C886.399 76.52 886.77 77.2914 886.837 78.0851L889.698 77.8467ZM887.503 73.648C886.073 72.29 883.818 71.8052 881.179 71.8052V74.6761C883.622 74.6761 884.923 75.1567 885.526 75.7294L887.503 73.648ZM881.179 71.8052H880.951V74.6761H881.179V71.8052ZM880.951 71.8052H879.503V74.6761H880.951V71.8052ZM878.067 73.2407V87.0352H880.938V73.2407H878.067ZM878.067 87.0352C878.067 92.0284 876.762 95.5316 874.391 97.8143L876.383 99.8822C879.5 96.8807 880.938 92.5086 880.938 87.0352H878.067ZM874.391 97.8143C872.004 100.113 868.404 101.376 863.345 101.376V104.247C868.855 104.247 873.282 102.868 876.383 99.8822L874.391 97.8143ZM863.345 101.376C858.285 101.376 854.718 100.112 852.385 97.8236L850.375 99.8729C853.428 102.869 857.838 104.247 863.345 104.247V101.376ZM852.385 97.8236C850.06 95.5423 848.776 92.0355 848.776 87.0352H845.905C845.905 92.5015 847.314 96.8701 850.375 99.8729L852.385 97.8236ZM848.776 87.0352V17.9863H845.905V87.0352H848.776ZM848.776 17.9863C848.776 12.9881 850.059 9.4478 852.395 7.11206L850.365 5.08204C847.315 8.13201 845.905 12.5178 845.905 17.9863H848.776ZM852.395 7.11206C854.786 4.72084 858.356 3.41698 863.345 3.41698V0.546095C857.868 0.546095 853.461 1.98592 850.365 5.08204L852.395 7.11206ZM863.345 3.41698H882.551V0.546095H863.345V3.41698ZM882.551 3.41698C889.288 3.41698 895.556 4.60508 901.368 6.9694L902.45 4.31011C896.272 1.7968 889.634 0.546095 882.551 0.546095V3.41698ZM901.372 6.97098C907.17 9.30936 911.853 12.9757 915.453 17.9855L917.784 16.3104C913.864 10.8536 908.741 6.84778 902.446 4.30853L901.372 6.97098ZM915.453 17.9855C919.001 22.9248 920.823 29.1681 920.823 36.8109H923.694C923.694 28.7029 921.755 21.8376 917.784 16.3104L915.453 17.9855ZM886.057 45.639C887.868 45.639 889.431 44.9718 890.63 43.6395L888.496 41.719C887.866 42.419 887.091 42.7681 886.057 42.7681V45.639ZM890.603 43.6679C891.836 42.3703 892.446 40.7654 892.446 38.9448H889.575C889.575 40.0711 889.22 40.9559 888.522 41.6906L890.603 43.6679ZM892.446 38.9448V37.573H889.575V38.9448H892.446ZM892.446 37.573C892.446 35.8849 891.714 34.4679 890.383 33.4036L888.59 35.6454C889.292 36.207 889.575 36.8223 889.575 37.573H892.446ZM890.411 33.4265C889.154 32.3678 887.62 31.8696 885.904 31.8696V34.7405C887.035 34.7405 887.888 35.0553 888.562 35.6225L890.411 33.4265ZM885.904 31.8696H878.588V34.7405H885.904V31.8696ZM877.153 33.3051V44.2035H880.023V33.3051H877.153ZM878.588 45.639H886.057V42.7681H878.588V45.639ZM923.694 36.9633V36.8109H920.823V36.9633H923.694ZM923.694 36.8109V36.6584H920.823V36.8109H923.694ZM920.823 36.6584V36.9633H923.694V36.6584H920.823ZM1012.59 81.7336C1013.35 83.8184 1013.73 85.9136 1013.73 88.026H1016.6C1016.6 85.5656 1016.16 83.1388 1015.29 80.7525L1012.59 81.7336ZM1013.73 88.026C1013.73 90.5383 1013.15 92.7808 1012.01 94.7857L1014.5 96.204C1015.91 93.7377 1016.6 91.001 1016.6 88.026H1013.73ZM1012 94.8075C1010.93 96.7622 1009.27 98.3499 1006.95 99.5562L1008.28 102.103C1011.04 100.668 1013.14 98.6987 1014.52 96.1822L1012 94.8075ZM1006.95 99.5562C1004.67 100.745 1001.81 101.376 998.319 101.376V104.247C1002.15 104.247 1005.48 103.556 1008.28 102.103L1006.95 99.5562ZM998.319 101.376C995.284 101.376 992.604 100.714 990.245 99.4191L988.863 101.936C991.687 103.486 994.85 104.247 998.319 104.247V101.376ZM990.245 99.4191C988.006 98.1901 986.545 96.3287 985.832 93.7413L983.064 94.5047C983.976 97.8111 985.919 100.319 988.863 101.936L990.245 99.4191ZM985.842 93.7796L984.546 88.5209L981.758 89.2077L983.054 94.4664L985.842 93.7796ZM983.152 87.4289H960.669V90.2998H983.152V87.4289ZM959.276 88.5209L957.98 93.7796L960.768 94.4664L962.063 89.2077L959.276 88.5209ZM957.99 93.7413C957.282 96.3083 955.786 98.1712 953.445 99.4081L954.786 101.947C957.83 100.338 959.84 97.8315 960.758 94.5047L957.99 93.7413ZM953.435 99.4135C951.022 100.712 948.288 101.376 945.198 101.376V104.247C948.714 104.247 951.924 103.488 954.796 101.941L953.435 99.4135ZM945.198 101.376C942.137 101.376 939.466 100.779 937.152 99.6221L935.868 102.19C938.635 103.573 941.756 104.247 945.198 104.247V101.376ZM937.162 99.6273C934.892 98.469 933.166 96.892 931.941 94.8965L929.494 96.398C931.013 98.8737 933.149 100.803 935.858 102.185L937.162 99.6273ZM931.949 94.9088C930.72 92.8605 930.095 90.5531 930.095 87.9498H927.225C927.225 91.0371 927.972 93.8613 929.487 96.3858L931.949 94.9088ZM930.095 87.9498C930.095 86.1184 930.485 84.0472 931.309 81.7222L928.602 80.7638C927.698 83.3165 927.225 85.7165 927.225 87.9498H930.095ZM931.3 81.7461L958.051 10.2583L955.362 9.25219L928.611 80.74L931.3 81.7461ZM958.048 10.2643C959.05 7.62274 960.705 5.7149 963.027 4.46481L961.666 1.93708C958.703 3.53227 956.598 5.99398 955.364 9.24618L958.048 10.2643ZM963.045 4.45461C965.425 3.12747 968.397 2.42621 972.025 2.42621V-0.444673C968.032 -0.444673 964.551 0.327513 961.647 1.94728L963.045 4.45461ZM972.025 2.42621C975.552 2.42621 978.482 3.10217 980.871 4.38861L982.232 1.86088C979.337 0.302029 975.916 -0.444673 972.025 -0.444673V2.42621ZM980.881 4.39395C983.251 5.64614 984.863 7.52045 985.761 10.0781L988.47 9.12759C987.335 5.89306 985.238 3.44863 982.222 1.85553L980.881 4.39395ZM985.771 10.1062L1012.6 81.7464L1015.29 80.7396L988.46 9.09945L985.771 10.1062ZM978.525 64.2067L973.418 43.6292L970.632 44.3206L975.738 64.8981L978.525 64.2067ZM970.633 43.6243L965.451 64.2018L968.235 64.903L973.417 44.3255L970.633 43.6243ZM966.843 65.9878H977.131V63.117H966.843V65.9878ZM1106.37 80.9048C1107.94 83.5652 1108.69 86.1617 1108.69 88.7119H1111.56C1111.56 85.5716 1110.63 82.4774 1108.84 79.4473L1106.37 80.9048ZM1108.69 88.7119C1108.69 91.0907 1108.07 93.2072 1106.86 95.0997L1109.27 96.6521C1110.8 94.2767 1111.56 91.6172 1111.56 88.7119H1108.69ZM1106.86 95.0997C1105.63 97.0133 1103.94 98.5521 1101.75 99.7149L1103.1 102.25C1105.69 100.872 1107.76 99.0064 1109.27 96.6521L1106.86 95.0997ZM1101.77 99.7038C1099.61 100.81 1097.17 101.376 1094.42 101.376V104.247C1097.57 104.247 1100.47 103.593 1103.08 102.261L1101.77 99.7038ZM1094.42 101.376C1090.83 101.376 1088.04 100.696 1085.94 99.4442L1084.47 101.911C1087.14 103.504 1090.49 104.247 1094.42 104.247V101.376ZM1085.94 99.4442C1083.82 98.1837 1081.81 96.0332 1079.96 92.8651L1077.48 94.314C1079.49 97.751 1081.81 100.326 1084.47 101.911L1085.94 99.4442ZM1080.02 92.9771L1069.2 70.037L1066.6 71.2619L1077.43 94.202L1080.02 92.9771ZM1066.83 69.6929L1060.43 76.857L1062.57 78.7699L1068.97 71.6059L1066.83 69.6929ZM1060.48 76.7984C1059.6 77.6828 1058.62 78.4503 1057.55 79.1023L1059.04 81.5546C1060.31 80.784 1061.47 79.8748 1062.51 78.8285L1060.48 76.7984ZM1056.86 80.3285V88.026H1059.73V80.3285H1056.86ZM1056.86 88.026C1056.86 93.0263 1055.58 96.533 1053.25 98.8144L1055.26 100.864C1058.32 97.8609 1059.73 93.4923 1059.73 88.026H1056.86ZM1053.25 98.8144C1050.92 101.103 1047.35 102.367 1042.29 102.367V105.238C1047.8 105.238 1052.21 103.859 1055.26 100.864L1053.25 98.8144ZM1042.29 102.367C1037.24 102.367 1033.63 101.104 1031.25 98.805L1029.26 100.873C1032.36 103.858 1036.78 105.238 1042.29 105.238V102.367ZM1031.25 98.805C1028.88 96.5224 1027.57 93.0191 1027.57 88.026H1024.7C1024.7 93.4994 1026.14 97.8715 1029.26 100.873L1031.25 98.805ZM1027.57 88.026V16.6144H1024.7V88.026H1027.57ZM1027.57 16.6144C1027.57 11.6769 1028.87 8.19667 1031.25 5.9116L1029.26 3.84365C1026.14 6.84268 1024.7 11.187 1024.7 16.6144H1027.57ZM1031.25 5.9116C1033.63 3.61298 1037.24 2.34999 1042.29 2.34999V-0.520891C1036.78 -0.520891 1032.36 0.858169 1029.26 3.84365L1031.25 5.9116ZM1042.29 2.34999C1047.35 2.34999 1050.92 3.61383 1053.25 5.90226L1055.26 3.85299C1052.21 0.85732 1047.8 -0.520891 1042.29 -0.520891V2.34999ZM1053.25 5.90226C1055.58 8.18602 1056.86 11.6697 1056.86 16.6144H1059.73C1059.73 11.1942 1058.32 6.85332 1055.26 3.85299L1053.25 5.90226ZM1056.86 16.6144V33.9148H1059.73V16.6144H1056.86ZM1059.37 34.8684L1085.59 5.37402L1083.44 3.46671L1057.23 32.9611L1059.37 34.8684ZM1085.59 5.37008C1087.02 3.75536 1088.39 2.75522 1089.68 2.2532L1088.65 -0.424096C1086.79 0.293293 1085.06 1.63038 1083.44 3.47064L1085.59 5.37008ZM1089.68 2.2532C1091.06 1.72186 1092.73 1.43544 1094.73 1.43544V-1.43544C1092.46 -1.43544 1090.42 -1.11217 1088.65 -0.424096L1089.68 2.2532ZM1094.73 1.43544C1098.09 1.43544 1100.89 2.10764 1103.17 3.3864L1104.57 0.881541C1101.78 -0.684983 1098.48 -1.43544 1094.73 -1.43544V1.43544ZM1103.2 3.4026C1105.57 4.65837 1107.32 6.32733 1108.49 8.40383L1110.99 6.99119C1109.52 4.3933 1107.36 2.35324 1104.55 0.865346L1103.2 3.4026ZM1108.49 8.40383C1109.69 10.5206 1110.29 12.817 1110.29 15.3188H1113.16C1113.16 12.3333 1112.44 9.54877 1110.99 6.99119L1108.49 8.40383ZM1110.29 15.3188C1110.29 17.3092 1109.9 19.2862 1109.1 21.2583L1111.76 22.3355C1112.69 20.0397 1113.16 17.698 1113.16 15.3188H1110.29ZM1109.09 21.2859C1108.34 23.2418 1107.22 25.0444 1105.71 26.6967L1107.83 28.6339C1109.57 26.7296 1110.89 24.62 1111.77 22.3079L1109.09 21.2859ZM1105.7 26.7043L1089.7 44.4619L1091.83 46.3839L1107.84 28.6263L1105.7 26.7043ZM1089.47 46.049L1106.32 80.8021L1108.9 79.55L1092.06 44.7969L1089.47 46.049ZM1198.55 81.7336C1199.31 83.8183 1199.69 85.9136 1199.69 88.026H1202.56C1202.56 85.5656 1202.12 83.1389 1201.25 80.7525L1198.55 81.7336ZM1199.69 88.026C1199.69 90.5383 1199.11 92.7808 1197.97 94.7857L1200.46 96.204C1201.87 93.7377 1202.56 91.001 1202.56 88.026H1199.69ZM1197.96 94.8075C1196.89 96.7621 1195.23 98.3499 1192.91 99.5562L1194.24 102.103C1197 100.668 1199.1 98.6987 1200.48 96.1822L1197.96 94.8075ZM1192.91 99.5562C1190.63 100.745 1187.77 101.376 1184.28 101.376V104.247C1188.1 104.247 1191.44 103.556 1194.24 102.103L1192.91 99.5562ZM1184.28 101.376C1181.24 101.376 1178.56 100.714 1176.2 99.4191L1174.82 101.936C1177.65 103.486 1180.81 104.247 1184.28 104.247V101.376ZM1176.2 99.4191C1173.97 98.1901 1172.51 96.3287 1171.79 93.7413L1169.02 94.5047C1169.94 97.8111 1171.88 100.319 1174.82 101.936L1176.2 99.4191ZM1171.8 93.7796L1170.51 88.5209L1167.72 89.2077L1169.01 94.4664L1171.8 93.7796ZM1169.11 87.4289H1146.63V90.2998H1169.11V87.4289ZM1145.24 88.5209L1143.94 93.7796L1146.73 94.4664L1148.02 89.2077L1145.24 88.5209ZM1143.95 93.7413C1143.24 96.3083 1141.75 98.1712 1139.4 99.4081L1140.75 101.947C1143.79 100.338 1145.8 97.8315 1146.72 94.5047L1143.95 93.7413ZM1139.39 99.4135C1136.98 100.712 1134.25 101.376 1131.16 101.376V104.247C1134.67 104.247 1137.88 103.488 1140.76 101.941L1139.39 99.4135ZM1131.16 101.376C1128.1 101.376 1125.43 100.779 1123.11 99.6221L1121.83 102.19C1124.59 103.573 1127.72 104.247 1131.16 104.247V101.376ZM1123.12 99.6273C1120.85 98.469 1119.13 96.892 1117.9 94.8965L1115.45 96.398C1116.97 98.8737 1119.11 100.803 1121.82 102.185L1123.12 99.6273ZM1117.91 94.9088C1116.68 92.8605 1116.06 90.553 1116.06 87.9498H1113.18C1113.18 91.0371 1113.93 93.8613 1115.45 96.3858L1117.91 94.9088ZM1116.06 87.9498C1116.06 86.1184 1116.44 84.0472 1117.27 81.7222L1114.56 80.7638C1113.66 83.3165 1113.18 85.7165 1113.18 87.9498H1116.06ZM1117.26 81.7461L1144.01 10.2583L1141.32 9.25219L1114.57 80.74L1117.26 81.7461ZM1144.01 10.2643C1145.01 7.62275 1146.66 5.71491 1148.99 4.46481L1147.63 1.93708C1144.66 3.53226 1142.56 5.99397 1141.32 9.24618L1144.01 10.2643ZM1149 4.45461C1151.38 3.12747 1154.36 2.42621 1157.98 2.42621V-0.444673C1153.99 -0.444673 1150.51 0.327513 1147.61 1.94728L1149 4.45461ZM1157.98 2.42621C1161.51 2.42621 1164.44 3.10217 1166.83 4.38861L1168.19 1.86088C1165.3 0.302029 1161.88 -0.444673 1157.98 -0.444673V2.42621ZM1166.84 4.39395C1169.21 5.64614 1170.82 7.52045 1171.72 10.0781L1174.43 9.12759C1173.29 5.89305 1171.2 3.44863 1168.18 1.85553L1166.84 4.39395ZM1171.73 10.1062L1198.56 81.7464L1201.25 80.7396L1174.42 9.09945L1171.73 10.1062ZM1164.48 64.2067L1159.38 43.6292L1156.59 44.3206L1161.7 64.8981L1164.48 64.2067ZM1156.59 43.6243L1151.41 64.2018L1154.19 64.903L1159.38 44.3255L1156.59 43.6243ZM1152.8 65.9878H1163.09V63.117H1152.8V65.9878ZM1267.64 71.1702C1272.64 71.2188 1276.15 72.547 1278.43 74.9223L1280.5 72.9309C1277.51 69.8189 1273.14 68.3526 1267.67 68.2995L1267.64 71.1702ZM1278.44 74.9321C1280.78 77.3152 1282.07 80.9585 1282.07 86.1207H1284.94C1284.94 80.5114 1283.54 76.0253 1280.49 72.9211L1278.44 74.9321ZM1282.07 86.1207C1282.07 91.1292 1280.81 94.6226 1278.53 96.8757C1276.26 99.1312 1272.72 100.385 1267.66 100.385V103.256C1273.16 103.256 1277.55 101.893 1280.55 98.9155C1283.56 95.9352 1284.94 91.5787 1284.94 86.1207H1282.07ZM1267.66 100.385H1228.1V103.256H1267.66V100.385ZM1228.1 100.385C1223.17 100.385 1219.62 98.9134 1217.22 96.1526L1215.05 98.0381C1218.14 101.578 1222.57 103.256 1228.1 103.256V100.385ZM1217.23 96.1626C1214.84 93.371 1213.53 89.1365 1213.53 83.2246H1210.66C1210.66 89.5067 1212.04 94.5194 1215.04 98.0281L1217.23 96.1626ZM1213.53 83.2246V16.5382H1210.66V83.2246H1213.53ZM1213.53 16.5382C1213.53 11.6491 1214.81 8.18848 1217.14 5.90226L1215.13 3.85299C1212.07 6.85087 1210.66 11.164 1210.66 16.5382H1213.53ZM1217.14 5.90226C1219.47 3.61383 1223.04 2.34999 1228.1 2.34999V-0.520891C1222.59 -0.520891 1218.18 0.85732 1215.13 3.85299L1217.14 5.90226ZM1228.1 2.34999C1233.16 2.34999 1236.76 3.61298 1239.15 5.9116L1241.14 3.84365C1238.04 0.858169 1233.61 -0.520891 1228.1 -0.520891V2.34999ZM1239.15 5.9116C1241.52 8.19916 1242.82 11.6564 1242.82 16.5382H1245.69C1245.69 11.1567 1244.25 6.84019 1241.14 3.84365L1239.15 5.9116ZM1242.82 16.5382V69.5824H1245.69V16.5382H1242.82ZM1244.25 71.0179L1267.65 71.1703L1267.66 68.2995L1244.27 68.147L1244.25 71.0179ZM1373.08 81.7336C1373.84 83.8183 1374.21 85.9136 1374.21 88.026H1377.08C1377.08 85.5656 1376.65 83.1389 1375.78 80.7525L1373.08 81.7336ZM1374.21 88.026C1374.21 90.5383 1373.63 92.7808 1372.5 94.7857L1374.99 96.204C1376.39 93.7377 1377.08 91.001 1377.08 88.026H1374.21ZM1372.48 94.8075C1371.42 96.7622 1369.76 98.3499 1367.44 99.5562L1368.77 102.103C1371.53 100.668 1373.63 98.6987 1375 96.1822L1372.48 94.8075ZM1367.44 99.5562C1365.15 100.745 1362.3 101.376 1358.81 101.376V104.247C1362.63 104.247 1365.97 103.556 1368.77 102.103L1367.44 99.5562ZM1358.81 101.376C1355.77 101.376 1353.09 100.714 1350.73 99.4191L1349.35 101.936C1352.17 103.486 1355.34 104.247 1358.81 104.247V101.376ZM1350.73 99.4191C1348.49 98.1901 1347.03 96.3287 1346.32 93.7413L1343.55 94.5047C1344.46 97.8111 1346.41 100.319 1349.35 101.936L1350.73 99.4191ZM1346.33 93.7796L1345.03 88.5209L1342.25 89.2077L1343.54 94.4664L1346.33 93.7796ZM1343.64 87.4289H1321.16V90.2998H1343.64V87.4289ZM1319.76 88.5209L1318.47 93.7796L1321.25 94.4664L1322.55 89.2077L1319.76 88.5209ZM1318.48 93.7413C1317.77 96.3083 1316.27 98.1712 1313.93 99.4081L1315.27 101.947C1318.32 100.338 1320.33 97.8315 1321.24 94.5047L1318.48 93.7413ZM1313.92 99.4135C1311.51 100.712 1308.77 101.376 1305.69 101.376V104.247C1309.2 104.247 1312.41 103.488 1315.28 101.941L1313.92 99.4135ZM1305.69 101.376C1302.62 101.376 1299.95 100.779 1297.64 99.6221L1296.36 102.19C1299.12 103.573 1302.24 104.247 1305.69 104.247V101.376ZM1297.65 99.6273C1295.38 98.469 1293.65 96.892 1292.43 94.8965L1289.98 96.398C1291.5 98.8737 1293.64 100.803 1296.34 102.185L1297.65 99.6273ZM1292.44 94.9088C1291.21 92.8605 1290.58 90.553 1290.58 87.9498H1287.71C1287.71 91.0371 1288.46 93.8613 1289.97 96.3858L1292.44 94.9088ZM1290.58 87.9498C1290.58 86.1184 1290.97 84.0472 1291.8 81.7222L1289.09 80.7638C1288.19 83.3165 1287.71 85.7165 1287.71 87.9498H1290.58ZM1291.79 81.7461L1318.54 10.2583L1315.85 9.25219L1289.1 80.74L1291.79 81.7461ZM1318.54 10.2643C1319.54 7.62274 1321.19 5.7149 1323.51 4.46481L1322.15 1.93708C1319.19 3.53227 1317.09 5.99398 1315.85 9.24618L1318.54 10.2643ZM1323.53 4.45461C1325.91 3.12747 1328.88 2.42621 1332.51 2.42621V-0.444673C1328.52 -0.444673 1325.04 0.327513 1322.13 1.94728L1323.53 4.45461ZM1332.51 2.42621C1336.04 2.42621 1338.97 3.10217 1341.36 4.38861L1342.72 1.86088C1339.82 0.302029 1336.4 -0.444673 1332.51 -0.444673V2.42621ZM1341.37 4.39395C1343.74 5.64614 1345.35 7.52046 1346.25 10.0781L1348.96 9.12759C1347.82 5.89304 1345.73 3.44862 1342.71 1.85553L1341.37 4.39395ZM1346.26 10.1062L1373.09 81.7464L1375.77 80.7396L1348.95 9.09945L1346.26 10.1062ZM1339.01 64.2067L1333.91 43.6292L1331.12 44.3206L1336.23 64.8981L1339.01 64.2067ZM1331.12 43.6243L1325.94 64.2018L1328.72 64.903L1333.9 44.3255L1331.12 43.6243ZM1327.33 65.9878H1337.62V63.117H1327.33V65.9878Z" fill="#1AB5EB" mask="url(#path-118-inside-1)"/>
<defs>
<linearGradient id="paint0_linear" x1="513.094" y1="25.3242" x2="559.594" y2="84.3242" gradientUnits="userSpaceOnUse">
<stop stop-color="white" stop-opacity="0"/>
<stop offset="0.810358" stop-opacity="0.2"/>
</linearGradient>
<linearGradient id="paint1_linear" x1="499.094" y1="19.3242" x2="535.094" y2="61.8242" gradientUnits="userSpaceOnUse">
<stop stop-color="white" stop-opacity="0.2"/>
<stop offset="0.834152" stop-opacity="0.24"/>
</linearGradient>
<linearGradient id="paint2_linear" x1="418.594" y1="17.3242" x2="478.594" y2="61.3242" gradientUnits="userSpaceOnUse">
<stop stop-color="white" stop-opacity="0"/>
<stop offset="0.914263" stop-opacity="0.2"/>
</linearGradient>
<linearGradient id="paint3_linear" x1="388.594" y1="28.8242" x2="444.594" y2="65.8242" gradientUnits="userSpaceOnUse">
<stop stop-color="white" stop-opacity="0"/>
<stop offset="0.88409" stop-opacity="0.2"/>
</linearGradient>
<linearGradient id="paint4_linear" x1="363.094" y1="25.3242" x2="402.423" y2="41.1748" gradientUnits="userSpaceOnUse">
<stop stop-color="white" stop-opacity="0"/>
<stop offset="1" stop-opacity="0.24"/>
<stop offset="1" stop-opacity="0.2"/>
</linearGradient>
<linearGradient id="paint5_linear" x1="240.793" y1="42.8275" x2="365.407" y2="42.8275" gradientUnits="userSpaceOnUse">
<stop stop-color="#CCCCCC"/>
<stop offset="1" stop-color="#CCCCCC" stop-opacity="0"/>
</linearGradient>
<linearGradient id="paint6_linear" x1="241.091" y1="24.3763" x2="366.405" y2="60.3883" gradientUnits="userSpaceOnUse">
<stop stop-color="#C5C5C5"/>
<stop offset="1" stop-color="#555555"/>
</linearGradient>
</defs>
</svg>
