<svg width="715" height="255" viewBox="0 0 715 255" fill="none" xmlns="http://www.w3.org/2000/svg">
<mask id="path-1-inside-1" fill="white">
<path d="M42.0696 3.51299C47.8618 3.51299 53.6031 5.03724 59.2937 8.08576C65.0351 11.1343 69.7603 15.5546 73.4693 21.3468C77.2291 27.139 79.1091 33.9474 79.1091 41.7719V45.4301C79.1091 52.7974 77.2546 59.3009 73.5455 64.9406C69.8365 70.5296 65.1113 74.8229 59.3699 77.8206C53.6793 80.8184 47.9634 82.3172 42.222 82.3172H36.3536V87.8807C36.3536 98.8554 30.9679 104.343 20.1964 104.343C14.9123 104.343 10.9239 103.022 8.231 100.38C5.53814 97.7376 4.19171 93.8 4.19171 88.5667V19.5177C4.19171 14.2844 5.53814 10.3213 8.231 7.62849C10.9747 4.88482 14.9631 3.51299 20.1964 3.51299H42.0696ZM36.3536 35.7511V51.2985H40.0118C41.3836 51.2985 42.5268 51.1969 43.4414 50.9937C44.4068 50.7396 45.2197 50.1553 45.8802 49.2408C46.5915 48.2754 46.9472 46.7766 46.9472 44.7442V41.6195C46.9472 39.7396 46.2105 38.2915 44.737 37.2753C43.2636 36.2592 41.6377 35.7511 39.8594 35.7511H36.3536Z"/>
<path d="M165.839 38.3423C165.789 42.8135 164.874 46.9798 163.096 50.8412C161.317 54.6519 158.853 58.0815 155.703 61.13C157.888 63.0099 159.666 65.0931 161.038 67.3795C162.461 69.6658 163.35 72.0285 163.705 74.4673L165.23 84.6798C165.484 86.4581 165.611 87.9824 165.611 89.2526C165.611 94.4351 164.137 98.4235 161.19 101.218C158.294 103.962 154.179 105.334 148.844 105.334C144.627 105.334 141.248 104.241 138.708 102.056C136.167 99.8716 134.516 96.6452 133.754 92.3773L131.848 79.4973C131.747 78.2779 131.163 77.1855 130.096 76.2202C129.079 75.2548 127.301 74.7721 124.761 74.7721H124.532H123.084V88.5667C123.084 93.8 121.712 97.7376 118.968 100.38C116.225 103.022 112.211 104.343 106.927 104.343C101.643 104.343 97.6542 103.022 94.9614 100.38C92.2685 97.7376 90.9221 93.8 90.9221 88.5667V19.5177C90.9221 14.2844 92.2685 10.3213 94.9614 7.62849C97.705 4.88482 101.694 3.51299 106.927 3.51299H126.132C133.042 3.51299 139.495 4.73239 145.491 7.17121C151.537 9.61002 156.44 13.4461 160.2 18.6794C163.96 23.9127 165.839 30.467 165.839 38.3423ZM129.638 45.735C131.061 45.735 132.23 45.2269 133.144 44.2107C134.109 43.1945 134.592 41.9497 134.592 40.4763V39.1044C134.592 37.885 134.084 36.8689 133.068 36.0559C132.102 35.243 130.908 34.8365 129.486 34.8365H122.169V45.735H129.638ZM165.839 38.4947V38.3423V38.1899V38.4947Z"/>
<path d="M257.524 82.7745C258.337 85.0101 258.743 87.271 258.743 89.5574C258.743 92.3011 258.108 94.7907 256.838 97.0263C255.618 99.2619 253.738 101.04 251.198 102.361C248.658 103.682 245.558 104.343 241.9 104.343C238.648 104.343 235.727 103.631 233.135 102.209C230.544 100.786 228.842 98.6014 228.029 95.6545L226.734 90.3958H204.251L202.955 95.6545C202.142 98.6014 200.389 100.786 197.696 102.209C195.054 103.631 192.082 104.343 188.78 104.343C185.528 104.343 182.632 103.708 180.091 102.437C177.602 101.167 175.671 99.4143 174.299 97.1787C172.927 94.8923 172.241 92.3265 172.241 89.4812C172.241 87.4489 172.673 85.2133 173.537 82.7745L200.288 11.2867C201.405 8.33981 203.285 6.15504 205.927 4.73239C208.569 3.25894 211.796 2.52222 215.606 2.52222C219.316 2.52222 222.491 3.23354 225.133 4.65618C227.826 6.07882 229.68 8.23819 230.697 11.1343L257.524 82.7745ZM220.713 66.0838L215.606 45.5063L210.424 66.0838H220.713Z"/>
<path d="M63.7141 192.887C68.4393 192.887 71.8942 194.106 74.079 196.545C76.2638 198.933 77.3562 202.541 77.3562 207.367V224.896C77.3562 229.317 76.467 233.407 74.6887 237.167C72.9612 240.927 70.8273 243.823 68.2868 245.855C64.781 248.599 60.8942 250.707 56.6262 252.181C52.3583 253.603 46.8964 254.315 40.2405 254.315C32.0095 254.315 24.8708 252.74 18.8246 249.589C12.7784 246.439 8.12938 241.943 4.87763 236.1C1.62588 230.206 0 223.245 0 215.217V190.829C0 182.7 1.62588 175.663 4.87763 169.718C8.12938 163.723 12.7784 159.125 18.8246 155.924C24.9216 152.723 32.1111 151.122 40.3929 151.122C45.677 151.122 50.2752 151.834 54.1874 153.256C58.0997 154.679 61.9866 156.66 65.848 159.201C68.5917 161.081 70.5986 163.164 71.8688 165.45C73.1899 167.686 73.8504 169.998 73.8504 172.386C73.8504 175.129 73.0882 177.771 71.564 180.312C70.0905 182.801 68.1598 184.834 65.7718 186.409C63.4346 187.933 61.072 188.695 58.684 188.695C55.3306 188.695 51.4946 187.501 47.1758 185.113C46.2105 184.554 44.864 184.122 43.1365 183.818C41.4599 183.513 39.6053 183.36 37.573 183.36C35.8963 183.36 34.5753 184.097 33.6099 185.571C32.6446 186.993 32.1619 188.975 32.1619 191.515V214.074C32.1619 216.919 32.7716 219.155 33.991 220.781C35.2104 222.407 36.8617 223.22 38.9448 223.22C43.67 223.22 46.7948 222.813 48.319 222V218.723H47.8617C44.9657 218.723 42.6793 217.58 41.0026 215.294C39.3259 213.007 38.4876 209.882 38.4876 205.919C38.4876 201.448 39.6816 198.171 42.0696 196.088C44.4576 193.954 48.0396 192.887 52.8156 192.887H63.7141Z"/>
<path d="M89.9313 189.762C89.9313 181.836 91.5572 174.977 94.8089 169.185C98.0607 163.342 102.71 158.871 108.756 155.771C114.802 152.672 121.966 151.122 130.248 151.122C138.581 151.122 145.795 152.672 151.892 155.771C157.99 158.871 162.664 163.342 165.916 169.185C169.218 174.977 170.869 181.836 170.869 189.762V216.056C170.869 223.88 169.218 230.689 165.916 236.481C162.664 242.222 157.99 246.643 151.892 249.742C145.795 252.79 138.581 254.315 130.248 254.315C121.966 254.315 114.802 252.79 108.756 249.742C102.71 246.643 98.0607 242.222 94.8089 236.481C91.5572 230.689 89.9313 223.88 89.9313 216.056V189.762ZM122.169 214.531C122.169 216.869 122.881 218.723 124.303 220.095C125.777 221.416 127.758 222.077 130.248 222.077C132.89 222.077 134.948 221.416 136.421 220.095C137.945 218.723 138.708 216.869 138.708 214.531V190.982C138.708 188.594 137.945 186.739 136.421 185.418C134.948 184.046 132.89 183.36 130.248 183.36C127.758 183.36 125.777 184.046 124.303 185.418C122.881 186.739 122.169 188.594 122.169 190.982V214.531Z"/>
<path d="M261.258 187.628C261.207 192.099 260.293 196.266 258.514 200.127C256.736 203.938 254.272 207.367 251.122 210.416C253.307 212.296 255.085 214.379 256.457 216.665C257.879 218.952 258.768 221.314 259.124 223.753L260.648 233.966C260.902 235.744 261.029 237.268 261.029 238.539C261.029 243.721 259.556 247.71 256.609 250.504C253.713 253.248 249.597 254.619 244.263 254.619C240.045 254.619 236.667 253.527 234.126 251.342C231.586 249.158 229.935 245.931 229.172 241.663L227.267 228.783C227.165 227.564 226.581 226.471 225.514 225.506C224.498 224.541 222.72 224.058 220.179 224.058H219.951H218.503V237.853C218.503 243.086 217.131 247.024 214.387 249.666C211.643 252.308 207.63 253.629 202.345 253.629C197.061 253.629 193.073 252.308 190.38 249.666C187.687 247.024 186.341 243.086 186.341 237.853V168.804C186.341 163.57 187.687 159.607 190.38 156.914C193.124 154.171 197.112 152.799 202.345 152.799H221.551C228.461 152.799 234.914 154.018 240.909 156.457C246.955 158.896 251.858 162.732 255.618 167.965C259.378 173.199 261.258 179.753 261.258 187.628ZM225.057 195.021C226.48 195.021 227.648 194.513 228.563 193.497C229.528 192.48 230.011 191.236 230.011 189.762V188.39C230.011 187.171 229.503 186.155 228.486 185.342C227.521 184.529 226.327 184.122 224.904 184.122H217.588V195.021H225.057ZM261.258 187.781V187.628V187.476V187.781Z"/>
<path d="M352.942 232.06C353.755 234.296 354.162 236.557 354.162 238.843C354.162 241.587 353.527 244.077 352.256 246.312C351.037 248.548 349.157 250.326 346.617 251.647C344.076 252.968 340.977 253.629 337.319 253.629C334.067 253.629 331.145 252.917 328.554 251.495C325.963 250.072 324.261 247.887 323.448 244.94L322.152 239.682H299.669L298.374 244.94C297.561 247.887 295.808 250.072 293.115 251.495C290.473 252.917 287.501 253.629 284.198 253.629C280.946 253.629 278.05 252.994 275.51 251.723C273.02 250.453 271.09 248.7 269.718 246.465C268.346 244.178 267.66 241.612 267.66 238.767C267.66 236.735 268.092 234.499 268.956 232.06L295.706 160.573C296.824 157.626 298.704 155.441 301.346 154.018C303.988 152.545 307.214 151.808 311.025 151.808C314.734 151.808 317.91 152.52 320.552 153.942C323.245 155.365 325.099 157.524 326.115 160.42L352.942 232.06ZM316.131 215.37L311.025 194.792L305.843 215.37H316.131Z"/>
<path d="M446.608 230.993C448.285 233.839 449.123 236.684 449.123 239.529C449.123 242.171 448.437 244.559 447.065 246.693C445.694 248.827 443.814 250.529 441.426 251.8C439.038 253.019 436.37 253.629 433.423 253.629C429.663 253.629 426.589 252.917 424.201 251.495C421.813 250.072 419.654 247.71 417.723 244.407L406.901 221.467L400.499 228.631C399.534 229.596 398.467 230.435 397.298 231.146V238.843C397.298 244.077 395.952 248.014 393.259 250.656C390.566 253.298 386.578 254.619 381.294 254.619C376.009 254.619 371.996 253.298 369.252 250.656C366.508 248.014 365.136 244.077 365.136 238.843V167.432C365.136 162.249 366.508 158.337 369.252 155.695C371.996 153.053 376.009 151.732 381.294 151.732C386.578 151.732 390.566 153.053 393.259 155.695C395.952 158.337 397.298 162.249 397.298 167.432V184.732L423.516 155.238C425.04 153.51 426.589 152.342 428.165 151.732C429.74 151.122 431.594 150.817 433.728 150.817C437.285 150.817 440.333 151.529 442.874 152.951C445.465 154.323 447.421 156.178 448.742 158.515C450.063 160.852 450.724 163.393 450.724 166.136C450.724 168.321 450.292 170.48 449.428 172.614C448.615 174.748 447.396 176.704 445.77 178.483L429.765 196.24L446.608 230.993Z"/>
<path d="M538.902 232.06C539.715 234.296 540.121 236.557 540.121 238.843C540.121 241.587 539.486 244.077 538.216 246.312C536.997 248.548 535.117 250.326 532.576 251.647C530.036 252.968 526.937 253.629 523.278 253.629C520.027 253.629 517.105 252.917 514.514 251.495C511.923 250.072 510.22 247.887 509.408 244.94L508.112 239.682H485.629L484.333 244.94C483.521 247.887 481.768 250.072 479.075 251.495C476.433 252.917 473.46 253.629 470.158 253.629C466.906 253.629 464.01 252.994 461.47 251.723C458.98 250.453 457.049 248.7 455.677 246.465C454.306 244.178 453.62 241.612 453.62 238.767C453.62 236.735 454.052 234.499 454.915 232.06L481.666 160.573C482.784 157.626 484.664 155.441 487.306 154.018C489.948 152.545 493.174 151.808 496.985 151.808C500.694 151.808 503.869 152.52 506.511 153.942C509.204 155.365 511.059 157.524 512.075 160.42L538.902 232.06ZM502.091 215.37L496.985 194.792L491.802 215.37H502.091Z"/>
<path d="M606.655 220.552C611.889 220.603 615.826 222 618.468 224.744C621.161 227.488 622.508 231.552 622.508 236.938C622.508 247.405 617.224 252.638 606.655 252.638H567.101C561.867 252.638 557.879 251.063 555.135 247.913C552.442 244.763 551.096 240.139 551.096 234.042V167.356C551.096 162.224 552.442 158.337 555.135 155.695C557.828 153.053 561.817 151.732 567.101 151.732C572.385 151.732 576.399 153.053 579.142 155.695C581.886 158.337 583.258 162.224 583.258 167.356V220.4L606.655 220.552Z"/>
<path d="M713.43 232.06C714.243 234.296 714.649 236.557 714.649 238.843C714.649 241.587 714.014 244.077 712.744 246.312C711.524 248.548 709.644 250.326 707.104 251.647C704.564 252.968 701.464 253.629 697.806 253.629C694.554 253.629 691.633 252.917 689.042 251.495C686.45 250.072 684.748 247.887 683.935 244.94L682.64 239.682H660.157L658.861 244.94C658.048 247.887 656.295 250.072 653.602 251.495C650.96 252.917 647.988 253.629 644.686 253.629C641.434 253.629 638.538 252.994 635.997 251.723C633.508 250.453 631.577 248.7 630.205 246.465C628.833 244.178 628.147 241.612 628.147 238.767C628.147 236.735 628.579 234.499 629.443 232.06L656.194 160.573C657.312 157.626 659.191 155.441 661.833 154.018C664.476 152.545 667.702 151.808 671.513 151.808C675.222 151.808 678.397 152.52 681.039 153.942C683.732 155.365 685.587 157.524 686.603 160.42L713.43 232.06ZM676.619 215.37L671.513 194.792L666.33 215.37H676.619Z"/>
</mask>
<path d="M42.0696 3.51299C47.8618 3.51299 53.6031 5.03724 59.2937 8.08576C65.0351 11.1343 69.7603 15.5546 73.4693 21.3468C77.2291 27.139 79.1091 33.9474 79.1091 41.7719V45.4301C79.1091 52.7974 77.2546 59.3009 73.5455 64.9406C69.8365 70.5296 65.1113 74.8229 59.3699 77.8206C53.6793 80.8184 47.9634 82.3172 42.222 82.3172H36.3536V87.8807C36.3536 98.8554 30.9679 104.343 20.1964 104.343C14.9123 104.343 10.9239 103.022 8.231 100.38C5.53814 97.7376 4.19171 93.8 4.19171 88.5667V19.5177C4.19171 14.2844 5.53814 10.3213 8.231 7.62849C10.9747 4.88482 14.9631 3.51299 20.1964 3.51299H42.0696ZM36.3536 35.7511V51.2985H40.0118C41.3836 51.2985 42.5268 51.1969 43.4414 50.9937C44.4068 50.7396 45.2197 50.1553 45.8802 49.2408C46.5915 48.2754 46.9472 46.7766 46.9472 44.7442V41.6195C46.9472 39.7396 46.2105 38.2915 44.737 37.2753C43.2636 36.2592 41.6377 35.7511 39.8594 35.7511H36.3536Z" fill="#C9F1FF"/>
<path d="M165.839 38.3423C165.789 42.8135 164.874 46.9798 163.096 50.8412C161.317 54.6519 158.853 58.0815 155.703 61.13C157.888 63.0099 159.666 65.0931 161.038 67.3795C162.461 69.6658 163.35 72.0285 163.705 74.4673L165.23 84.6798C165.484 86.4581 165.611 87.9824 165.611 89.2526C165.611 94.4351 164.137 98.4235 161.19 101.218C158.294 103.962 154.179 105.334 148.844 105.334C144.627 105.334 141.248 104.241 138.708 102.056C136.167 99.8716 134.516 96.6452 133.754 92.3773L131.848 79.4973C131.747 78.2779 131.163 77.1855 130.096 76.2202C129.079 75.2548 127.301 74.7721 124.761 74.7721H124.532H123.084V88.5667C123.084 93.8 121.712 97.7376 118.968 100.38C116.225 103.022 112.211 104.343 106.927 104.343C101.643 104.343 97.6542 103.022 94.9614 100.38C92.2685 97.7376 90.9221 93.8 90.9221 88.5667V19.5177C90.9221 14.2844 92.2685 10.3213 94.9614 7.62849C97.705 4.88482 101.694 3.51299 106.927 3.51299H126.132C133.042 3.51299 139.495 4.73239 145.491 7.17121C151.537 9.61002 156.44 13.4461 160.2 18.6794C163.96 23.9127 165.839 30.467 165.839 38.3423ZM129.638 45.735C131.061 45.735 132.23 45.2269 133.144 44.2107C134.109 43.1945 134.592 41.9497 134.592 40.4763V39.1044C134.592 37.885 134.084 36.8689 133.068 36.0559C132.102 35.243 130.908 34.8365 129.486 34.8365H122.169V45.735H129.638ZM165.839 38.4947V38.3423V38.1899V38.4947Z" fill="#C9F1FF"/>
<path d="M257.524 82.7745C258.337 85.0101 258.743 87.271 258.743 89.5574C258.743 92.3011 258.108 94.7907 256.838 97.0263C255.618 99.2619 253.738 101.04 251.198 102.361C248.658 103.682 245.558 104.343 241.9 104.343C238.648 104.343 235.727 103.631 233.135 102.209C230.544 100.786 228.842 98.6014 228.029 95.6545L226.734 90.3958H204.251L202.955 95.6545C202.142 98.6014 200.389 100.786 197.696 102.209C195.054 103.631 192.082 104.343 188.78 104.343C185.528 104.343 182.632 103.708 180.091 102.437C177.602 101.167 175.671 99.4143 174.299 97.1787C172.927 94.8923 172.241 92.3265 172.241 89.4812C172.241 87.4489 172.673 85.2133 173.537 82.7745L200.288 11.2867C201.405 8.33981 203.285 6.15504 205.927 4.73239C208.569 3.25894 211.796 2.52222 215.606 2.52222C219.316 2.52222 222.491 3.23354 225.133 4.65618C227.826 6.07882 229.68 8.23819 230.697 11.1343L257.524 82.7745ZM220.713 66.0838L215.606 45.5063L210.424 66.0838H220.713Z" fill="#C9F1FF"/>
<path d="M63.7141 192.887C68.4393 192.887 71.8942 194.106 74.079 196.545C76.2638 198.933 77.3562 202.541 77.3562 207.367V224.896C77.3562 229.317 76.467 233.407 74.6887 237.167C72.9612 240.927 70.8273 243.823 68.2868 245.855C64.781 248.599 60.8942 250.707 56.6262 252.181C52.3583 253.603 46.8964 254.315 40.2405 254.315C32.0095 254.315 24.8708 252.74 18.8246 249.589C12.7784 246.439 8.12938 241.943 4.87763 236.1C1.62588 230.206 0 223.245 0 215.217V190.829C0 182.7 1.62588 175.663 4.87763 169.718C8.12938 163.723 12.7784 159.125 18.8246 155.924C24.9216 152.723 32.1111 151.122 40.3929 151.122C45.677 151.122 50.2752 151.834 54.1874 153.256C58.0997 154.679 61.9866 156.66 65.848 159.201C68.5917 161.081 70.5986 163.164 71.8688 165.45C73.1899 167.686 73.8504 169.998 73.8504 172.386C73.8504 175.129 73.0882 177.771 71.564 180.312C70.0905 182.801 68.1598 184.834 65.7718 186.409C63.4346 187.933 61.072 188.695 58.684 188.695C55.3306 188.695 51.4946 187.501 47.1758 185.113C46.2105 184.554 44.864 184.122 43.1365 183.818C41.4599 183.513 39.6053 183.36 37.573 183.36C35.8963 183.36 34.5753 184.097 33.6099 185.571C32.6446 186.993 32.1619 188.975 32.1619 191.515V214.074C32.1619 216.919 32.7716 219.155 33.991 220.781C35.2104 222.407 36.8617 223.22 38.9448 223.22C43.67 223.22 46.7948 222.813 48.319 222V218.723H47.8617C44.9657 218.723 42.6793 217.58 41.0026 215.294C39.3259 213.007 38.4876 209.882 38.4876 205.919C38.4876 201.448 39.6816 198.171 42.0696 196.088C44.4576 193.954 48.0396 192.887 52.8156 192.887H63.7141Z" fill="#C9F1FF"/>
<path d="M89.9313 189.762C89.9313 181.836 91.5572 174.977 94.8089 169.185C98.0607 163.342 102.71 158.871 108.756 155.771C114.802 152.672 121.966 151.122 130.248 151.122C138.581 151.122 145.795 152.672 151.892 155.771C157.99 158.871 162.664 163.342 165.916 169.185C169.218 174.977 170.869 181.836 170.869 189.762V216.056C170.869 223.88 169.218 230.689 165.916 236.481C162.664 242.222 157.99 246.643 151.892 249.742C145.795 252.79 138.581 254.315 130.248 254.315C121.966 254.315 114.802 252.79 108.756 249.742C102.71 246.643 98.0607 242.222 94.8089 236.481C91.5572 230.689 89.9313 223.88 89.9313 216.056V189.762ZM122.169 214.531C122.169 216.869 122.881 218.723 124.303 220.095C125.777 221.416 127.758 222.077 130.248 222.077C132.89 222.077 134.948 221.416 136.421 220.095C137.945 218.723 138.708 216.869 138.708 214.531V190.982C138.708 188.594 137.945 186.739 136.421 185.418C134.948 184.046 132.89 183.36 130.248 183.36C127.758 183.36 125.777 184.046 124.303 185.418C122.881 186.739 122.169 188.594 122.169 190.982V214.531Z" fill="#C9F1FF"/>
<path d="M261.258 187.628C261.207 192.099 260.293 196.266 258.514 200.127C256.736 203.938 254.272 207.367 251.122 210.416C253.307 212.296 255.085 214.379 256.457 216.665C257.879 218.952 258.768 221.314 259.124 223.753L260.648 233.966C260.902 235.744 261.029 237.268 261.029 238.539C261.029 243.721 259.556 247.71 256.609 250.504C253.713 253.248 249.597 254.619 244.263 254.619C240.045 254.619 236.667 253.527 234.126 251.342C231.586 249.158 229.935 245.931 229.172 241.663L227.267 228.783C227.165 227.564 226.581 226.471 225.514 225.506C224.498 224.541 222.72 224.058 220.179 224.058H219.951H218.503V237.853C218.503 243.086 217.131 247.024 214.387 249.666C211.643 252.308 207.63 253.629 202.345 253.629C197.061 253.629 193.073 252.308 190.38 249.666C187.687 247.024 186.341 243.086 186.341 237.853V168.804C186.341 163.57 187.687 159.607 190.38 156.914C193.124 154.171 197.112 152.799 202.345 152.799H221.551C228.461 152.799 234.914 154.018 240.909 156.457C246.955 158.896 251.858 162.732 255.618 167.965C259.378 173.199 261.258 179.753 261.258 187.628ZM225.057 195.021C226.48 195.021 227.648 194.513 228.563 193.497C229.528 192.48 230.011 191.236 230.011 189.762V188.39C230.011 187.171 229.503 186.155 228.486 185.342C227.521 184.529 226.327 184.122 224.904 184.122H217.588V195.021H225.057ZM261.258 187.781V187.628V187.476V187.781Z" fill="#C9F1FF"/>
<path d="M352.942 232.06C353.755 234.296 354.162 236.557 354.162 238.843C354.162 241.587 353.527 244.077 352.256 246.312C351.037 248.548 349.157 250.326 346.617 251.647C344.076 252.968 340.977 253.629 337.319 253.629C334.067 253.629 331.145 252.917 328.554 251.495C325.963 250.072 324.261 247.887 323.448 244.94L322.152 239.682H299.669L298.374 244.94C297.561 247.887 295.808 250.072 293.115 251.495C290.473 252.917 287.501 253.629 284.198 253.629C280.946 253.629 278.05 252.994 275.51 251.723C273.02 250.453 271.09 248.7 269.718 246.465C268.346 244.178 267.66 241.612 267.66 238.767C267.66 236.735 268.092 234.499 268.956 232.06L295.706 160.573C296.824 157.626 298.704 155.441 301.346 154.018C303.988 152.545 307.214 151.808 311.025 151.808C314.734 151.808 317.91 152.52 320.552 153.942C323.245 155.365 325.099 157.524 326.115 160.42L352.942 232.06ZM316.131 215.37L311.025 194.792L305.843 215.37H316.131Z" fill="#C9F1FF"/>
<path d="M446.608 230.993C448.285 233.839 449.123 236.684 449.123 239.529C449.123 242.171 448.437 244.559 447.065 246.693C445.694 248.827 443.814 250.529 441.426 251.8C439.038 253.019 436.37 253.629 433.423 253.629C429.663 253.629 426.589 252.917 424.201 251.495C421.813 250.072 419.654 247.71 417.723 244.407L406.901 221.467L400.499 228.631C399.534 229.596 398.467 230.435 397.298 231.146V238.843C397.298 244.077 395.952 248.014 393.259 250.656C390.566 253.298 386.578 254.619 381.294 254.619C376.009 254.619 371.996 253.298 369.252 250.656C366.508 248.014 365.136 244.077 365.136 238.843V167.432C365.136 162.249 366.508 158.337 369.252 155.695C371.996 153.053 376.009 151.732 381.294 151.732C386.578 151.732 390.566 153.053 393.259 155.695C395.952 158.337 397.298 162.249 397.298 167.432V184.732L423.516 155.238C425.04 153.51 426.589 152.342 428.165 151.732C429.74 151.122 431.594 150.817 433.728 150.817C437.285 150.817 440.333 151.529 442.874 152.951C445.465 154.323 447.421 156.178 448.742 158.515C450.063 160.852 450.724 163.393 450.724 166.136C450.724 168.321 450.292 170.48 449.428 172.614C448.615 174.748 447.396 176.704 445.77 178.483L429.765 196.24L446.608 230.993Z" fill="#C9F1FF"/>
<path d="M538.902 232.06C539.715 234.296 540.121 236.557 540.121 238.843C540.121 241.587 539.486 244.077 538.216 246.312C536.997 248.548 535.117 250.326 532.576 251.647C530.036 252.968 526.937 253.629 523.278 253.629C520.027 253.629 517.105 252.917 514.514 251.495C511.923 250.072 510.22 247.887 509.408 244.94L508.112 239.682H485.629L484.333 244.94C483.521 247.887 481.768 250.072 479.075 251.495C476.433 252.917 473.46 253.629 470.158 253.629C466.906 253.629 464.01 252.994 461.47 251.723C458.98 250.453 457.049 248.7 455.677 246.465C454.306 244.178 453.62 241.612 453.62 238.767C453.62 236.735 454.052 234.499 454.915 232.06L481.666 160.573C482.784 157.626 484.664 155.441 487.306 154.018C489.948 152.545 493.174 151.808 496.985 151.808C500.694 151.808 503.869 152.52 506.511 153.942C509.204 155.365 511.059 157.524 512.075 160.42L538.902 232.06ZM502.091 215.37L496.985 194.792L491.802 215.37H502.091Z" fill="#C9F1FF"/>
<path d="M606.655 220.552C611.889 220.603 615.826 222 618.468 224.744C621.161 227.488 622.508 231.552 622.508 236.938C622.508 247.405 617.224 252.638 606.655 252.638H567.101C561.867 252.638 557.879 251.063 555.135 247.913C552.442 244.763 551.096 240.139 551.096 234.042V167.356C551.096 162.224 552.442 158.337 555.135 155.695C557.828 153.053 561.817 151.732 567.101 151.732C572.385 151.732 576.399 153.053 579.142 155.695C581.886 158.337 583.258 162.224 583.258 167.356V220.4L606.655 220.552Z" fill="#C9F1FF"/>
<path d="M713.43 232.06C714.243 234.296 714.649 236.557 714.649 238.843C714.649 241.587 714.014 244.077 712.744 246.312C711.524 248.548 709.644 250.326 707.104 251.647C704.564 252.968 701.464 253.629 697.806 253.629C694.554 253.629 691.633 252.917 689.042 251.495C686.45 250.072 684.748 247.887 683.935 244.94L682.64 239.682H660.157L658.861 244.94C658.048 247.887 656.295 250.072 653.602 251.495C650.96 252.917 647.988 253.629 644.686 253.629C641.434 253.629 638.538 252.994 635.997 251.723C633.508 250.453 631.577 248.7 630.205 246.465C628.833 244.178 628.147 241.612 628.147 238.767C628.147 236.735 628.579 234.499 629.443 232.06L656.194 160.573C657.312 157.626 659.191 155.441 661.833 154.018C664.476 152.545 667.702 151.808 671.513 151.808C675.222 151.808 678.397 152.52 681.039 153.942C683.732 155.365 685.587 157.524 686.603 160.42L713.43 232.06ZM676.619 215.37L671.513 194.792L666.33 215.37H676.619Z" fill="#C9F1FF"/>
<path d="M59.2937 8.08576L58.6158 9.35109L58.6205 9.35357L59.2937 8.08576ZM73.4693 21.3468L72.2604 22.1209L72.2653 22.1284L73.4693 21.3468ZM73.5455 64.9406L74.7416 65.7344L74.7448 65.7294L73.5455 64.9406ZM59.3699 77.8206L58.7055 76.5482L58.7009 76.5506L59.3699 77.8206ZM36.3536 82.3172V80.8818H34.9181V82.3172H36.3536ZM36.3536 35.7511V34.3156H34.9181V35.7511H36.3536ZM36.3536 51.2985H34.9181V52.734H36.3536V51.2985ZM43.4414 50.9937L43.7528 52.3949L43.7799 52.3889L43.8067 52.3819L43.4414 50.9937ZM45.8802 49.2408L44.7245 48.3892L44.7165 48.4003L45.8802 49.2408ZM163.096 50.8412L164.397 51.4483L164.4 51.4417L163.096 50.8412ZM155.703 61.13L154.705 60.0985L153.575 61.1922L154.767 62.2181L155.703 61.13ZM161.038 67.3795L159.807 68.118L159.813 68.1279L159.819 68.1378L161.038 67.3795ZM163.705 74.4673L162.285 74.6744L162.286 74.6792L163.705 74.4673ZM165.23 84.6798L166.651 84.4768L166.649 84.4679L165.23 84.6798ZM161.19 101.218L162.178 102.26L162.178 102.26L161.19 101.218ZM133.754 92.3773L132.334 92.5874L132.337 92.6086L132.341 92.6296L133.754 92.3773ZM131.848 79.4973L130.418 79.6165L130.422 79.6621L130.428 79.7074L131.848 79.4973ZM130.096 76.2202L129.107 77.2609L129.12 77.2729L129.132 77.2846L130.096 76.2202ZM123.084 74.7721V73.3367H121.649V74.7721H123.084ZM145.491 7.17121L144.95 8.50086L144.954 8.50243L145.491 7.17121ZM133.144 44.2107L132.103 43.2221L132.09 43.2361L132.077 43.2505L133.144 44.2107ZM133.068 36.0559L132.143 37.1539L132.157 37.1655L132.171 37.1768L133.068 36.0559ZM122.169 34.8365V33.4011H120.734V34.8365H122.169ZM122.169 45.735H120.734V47.1704H122.169V45.735ZM257.524 82.7745L258.873 82.2839L258.868 82.2711L257.524 82.7745ZM256.838 97.0263L255.59 96.3172L255.583 96.328L255.578 96.339L256.838 97.0263ZM228.029 95.6545L226.635 95.9979L226.64 96.0171L226.645 96.0362L228.029 95.6545ZM226.734 90.3958L228.127 90.0524L227.858 88.9603H226.734V90.3958ZM204.251 90.3958V88.9603H203.126L202.857 90.0524L204.251 90.3958ZM202.955 95.6545L204.339 96.0362L204.344 96.0171L204.349 95.9979L202.955 95.6545ZM197.696 102.209L197.026 100.94L197.016 100.945L197.696 102.209ZM180.091 102.437L179.439 103.716L179.449 103.721L180.091 102.437ZM174.299 97.1787L173.068 97.9173L173.072 97.9234L173.076 97.9295L174.299 97.1787ZM173.537 82.7745L172.193 82.2714L172.188 82.2833L172.184 82.2953L173.537 82.7745ZM200.288 11.2867L198.946 10.7776L198.943 10.7836L200.288 11.2867ZM205.927 4.73239L206.608 5.99626L206.617 5.99123L206.627 5.98606L205.927 4.73239ZM225.133 4.65618L224.453 5.92008L224.463 5.92539L225.133 4.65618ZM230.697 11.1343L229.342 11.6095L229.347 11.6237L229.352 11.6377L230.697 11.1343ZM220.713 66.0838V67.5193H222.548L222.106 65.7381L220.713 66.0838ZM215.606 45.5063L217 45.1606L214.215 45.1558L215.606 45.5063ZM210.424 66.0838L209.032 65.7333L208.582 67.5193H210.424V66.0838ZM74.079 196.545L73.0098 197.503L73.0149 197.509L73.0199 197.514L74.079 196.545ZM74.6887 237.167L73.3911 236.553L73.3877 236.56L73.3844 236.567L74.6887 237.167ZM68.2868 245.855L69.1715 246.985L69.1775 246.981L69.1835 246.976L68.2868 245.855ZM56.6262 252.181L57.0802 253.542L57.0874 253.54L57.0947 253.538L56.6262 252.181ZM4.87763 236.1L3.62078 236.793L3.62334 236.798L4.87763 236.1ZM4.87763 169.718L6.13698 170.407L6.13943 170.403L4.87763 169.718ZM18.8246 155.924L18.1574 154.653L18.153 154.655L18.8246 155.924ZM65.848 159.201L66.6594 158.017L66.6482 158.009L66.637 158.002L65.848 159.201ZM71.8688 165.45L70.614 166.147L70.6233 166.164L70.633 166.181L71.8688 165.45ZM71.564 180.312L70.3331 179.573L70.3287 179.581L71.564 180.312ZM65.7718 186.409L66.5559 187.611L66.5621 187.607L65.7718 186.409ZM47.1758 185.113L46.4566 186.356L46.4689 186.363L46.4812 186.369L47.1758 185.113ZM43.1365 183.818L42.8798 185.23L42.8871 185.231L43.1365 183.818ZM33.6099 185.571L34.7977 186.377L34.8042 186.367L34.8106 186.357L33.6099 185.571ZM48.319 222L48.9945 223.267L49.7545 222.862V222H48.319ZM48.319 218.723H49.7545V217.288H48.319V218.723ZM42.0696 196.088L43.0132 197.17L43.0196 197.164L43.026 197.158L42.0696 196.088ZM94.8089 169.185L96.0606 169.887L96.0632 169.883L94.8089 169.185ZM165.916 169.185L164.661 169.883L164.665 169.889L164.669 169.896L165.916 169.185ZM165.916 236.481L164.669 235.77L164.667 235.773L165.916 236.481ZM151.892 249.742L152.534 251.026L152.543 251.021L151.892 249.742ZM108.756 249.742L108.101 251.019L108.11 251.024L108.756 249.742ZM94.8089 236.481L93.5573 237.184L93.5599 237.188L94.8089 236.481ZM124.303 220.095L123.307 221.128L123.326 221.146L123.345 221.164L124.303 220.095ZM136.421 220.095L137.379 221.164L137.381 221.162L136.421 220.095ZM136.421 185.418L135.443 186.469L135.462 186.486L135.481 186.503L136.421 185.418ZM124.303 185.418L125.28 186.47L125.281 186.469L124.303 185.418ZM258.514 200.127L259.815 200.734L259.818 200.728L258.514 200.127ZM251.122 210.416L250.124 209.384L248.993 210.478L250.185 211.504L251.122 210.416ZM256.457 216.665L255.226 217.404L255.232 217.414L255.238 217.424L256.457 216.665ZM259.124 223.753L257.704 223.96L257.704 223.965L259.124 223.753ZM260.648 233.966L262.069 233.763L262.068 233.754L260.648 233.966ZM256.609 250.504L257.596 251.546L257.597 251.546L256.609 250.504ZM229.172 241.663L227.752 241.873L227.756 241.895L227.759 241.916L229.172 241.663ZM227.267 228.783L225.837 228.903L225.84 228.948L225.847 228.993L227.267 228.783ZM225.514 225.506L224.526 226.547L224.538 226.559L224.551 226.571L225.514 225.506ZM218.503 224.058V222.623H217.067V224.058H218.503ZM240.909 156.457L240.368 157.787L240.372 157.788L240.909 156.457ZM228.563 193.497L227.522 192.508L227.509 192.522L227.496 192.536L228.563 193.497ZM228.486 185.342L227.562 186.44L227.576 186.451L227.59 186.463L228.486 185.342ZM217.588 184.122V182.687H216.153V184.122H217.588ZM217.588 195.021H216.153V196.456H217.588V195.021ZM352.942 232.06L354.291 231.57L354.287 231.557L352.942 232.06ZM352.256 246.312L351.008 245.603L351.002 245.614L350.996 245.625L352.256 246.312ZM323.448 244.94L322.054 245.284L322.059 245.303L322.064 245.322L323.448 244.94ZM322.152 239.682L323.546 239.338L323.277 238.246H322.152V239.682ZM299.669 239.682V238.246H298.545L298.276 239.338L299.669 239.682ZM298.374 244.94L299.758 245.322L299.763 245.303L299.768 245.284L298.374 244.94ZM293.115 251.495L292.445 250.226L292.435 250.231L293.115 251.495ZM275.51 251.723L274.858 253.002L274.868 253.007L275.51 251.723ZM269.718 246.465L268.487 247.203L268.491 247.209L268.494 247.215L269.718 246.465ZM268.956 232.06L267.611 231.557L267.607 231.569L267.602 231.581L268.956 232.06ZM295.706 160.573L294.364 160.064L294.362 160.07L295.706 160.573ZM301.346 154.018L302.027 155.282L302.036 155.277L302.045 155.272L301.346 154.018ZM320.552 153.942L319.871 155.206L319.881 155.211L320.552 153.942ZM326.115 160.42L324.761 160.896L324.766 160.91L324.771 160.924L326.115 160.42ZM316.131 215.37V216.805H317.967L317.525 215.024L316.131 215.37ZM311.025 194.792L312.418 194.447L309.633 194.442L311.025 194.792ZM305.843 215.37L304.451 215.019L304.001 216.805H305.843V215.37ZM446.608 230.993L445.316 231.62L445.342 231.672L445.371 231.722L446.608 230.993ZM441.426 251.8L442.078 253.078L442.089 253.073L442.1 253.067L441.426 251.8ZM417.723 244.407L416.425 245.019L416.452 245.077L416.484 245.131L417.723 244.407ZM406.901 221.467L408.199 220.854L407.275 218.895L405.831 220.51L406.901 221.467ZM400.499 228.631L401.514 229.646L401.543 229.617L401.57 229.587L400.499 228.631ZM397.298 231.146L396.552 229.92L395.863 230.339V231.146H397.298ZM397.298 184.732H395.863V188.508L398.371 185.686L397.298 184.732ZM423.516 155.238L424.588 156.191L424.592 156.187L423.516 155.238ZM442.874 152.951L442.172 154.204L442.187 154.212L442.202 154.22L442.874 152.951ZM449.428 172.614L448.097 172.076L448.092 172.089L448.087 172.103L449.428 172.614ZM445.77 178.483L444.71 177.514L444.703 177.522L445.77 178.483ZM429.765 196.24L428.699 195.279L428.052 195.997L428.473 196.866L429.765 196.24ZM538.902 232.06L540.251 231.57L540.246 231.557L538.902 232.06ZM538.216 246.312L536.968 245.603L536.962 245.614L536.956 245.625L538.216 246.312ZM509.408 244.94L508.014 245.284L508.019 245.303L508.024 245.322L509.408 244.94ZM508.112 239.682L509.506 239.338L509.237 238.246H508.112V239.682ZM485.629 239.682V238.246H484.504L484.235 239.338L485.629 239.682ZM484.333 244.94L485.717 245.322L485.722 245.303L485.727 245.284L484.333 244.94ZM479.075 251.495L478.404 250.226L478.394 250.231L479.075 251.495ZM461.47 251.723L460.817 253.002L460.828 253.007L461.47 251.723ZM455.677 246.465L454.447 247.203L454.45 247.209L454.454 247.215L455.677 246.465ZM454.915 232.06L453.571 231.557L453.566 231.569L453.562 231.581L454.915 232.06ZM481.666 160.573L480.324 160.064L480.322 160.07L481.666 160.573ZM487.306 154.018L487.986 155.282L487.996 155.277L488.005 155.272L487.306 154.018ZM506.511 153.942L505.831 155.206L505.841 155.211L506.511 153.942ZM512.075 160.42L510.721 160.896L510.725 160.91L510.731 160.924L512.075 160.42ZM502.091 215.37V216.805H503.926L503.484 215.024L502.091 215.37ZM496.985 194.792L498.378 194.447L495.593 194.442L496.985 194.792ZM491.802 215.37L490.41 215.019L489.961 216.805H491.802V215.37ZM606.655 220.552L606.669 219.117L606.665 219.117L606.655 220.552ZM618.468 224.744L617.434 225.74L617.444 225.749L618.468 224.744ZM555.135 247.913L554.044 248.846L554.053 248.856L555.135 247.913ZM583.258 220.4H581.822V221.826L583.249 221.835L583.258 220.4ZM713.43 232.06L714.779 231.57L714.774 231.557L713.43 232.06ZM712.744 246.312L711.496 245.603L711.49 245.614L711.484 245.625L712.744 246.312ZM683.935 244.94L682.542 245.284L682.546 245.303L682.552 245.322L683.935 244.94ZM682.64 239.682L684.033 239.338L683.764 238.246H682.64V239.682ZM660.157 239.682V238.246H659.032L658.763 239.338L660.157 239.682ZM658.861 244.94L660.245 245.322L660.25 245.303L660.255 245.284L658.861 244.94ZM653.602 251.495L652.932 250.226L652.922 250.231L653.602 251.495ZM635.997 251.723L635.345 253.002L635.355 253.007L635.997 251.723ZM630.205 246.465L628.974 247.203L628.978 247.209L628.982 247.215L630.205 246.465ZM629.443 232.06L628.099 231.557L628.094 231.569L628.09 231.581L629.443 232.06ZM656.194 160.573L654.852 160.064L654.849 160.07L656.194 160.573ZM661.833 154.018L662.514 155.282L662.523 155.277L662.533 155.272L661.833 154.018ZM681.039 153.942L680.359 155.206L680.369 155.211L681.039 153.942ZM686.603 160.42L685.248 160.896L685.253 160.91L685.258 160.924L686.603 160.42ZM676.619 215.37V216.805H678.454L678.012 215.024L676.619 215.37ZM671.513 194.792L672.906 194.447L670.121 194.442L671.513 194.792ZM666.33 215.37L664.938 215.019L664.488 216.805H666.33V215.37ZM42.0696 4.94843C47.5991 4.94843 53.1095 6.40123 58.6158 9.35108L59.9715 6.82045C54.0968 3.67326 48.1244 2.07754 42.0696 2.07754V4.94843ZM58.6205 9.35357C64.1311 12.2795 68.6766 16.5241 72.2605 22.1209L74.6781 20.5727C70.844 14.5852 65.939 9.98902 59.9669 6.81796L58.6205 9.35357ZM72.2653 22.1284C75.8546 27.6579 77.6736 34.1868 77.6736 41.7719H80.5445C80.5445 33.708 78.6037 26.6201 74.6733 20.5653L72.2653 22.1284ZM77.6736 41.7719V45.4301H80.5445V41.7719H77.6736ZM77.6736 45.4301C77.6736 52.5438 75.8871 58.7677 72.3462 64.1519L74.7448 65.7294C78.622 59.834 80.5445 53.051 80.5445 45.4301H77.6736ZM72.3495 64.1469C68.7695 69.5415 64.2243 73.6667 58.7055 76.5482L60.0343 79.0931C65.9983 75.9791 70.9035 71.5177 74.7416 65.7344L72.3495 64.1469ZM58.7009 76.5506C53.1914 79.4529 47.7034 80.8818 42.222 80.8818V83.7526C48.2234 83.7526 54.1673 82.1838 60.0389 79.0906L58.7009 76.5506ZM42.222 80.8818H36.3536V83.7526H42.222V80.8818ZM34.9181 82.3172V87.8807H37.789V82.3172H34.9181ZM34.9181 87.8807C34.9181 93.1535 33.6245 96.8431 31.2899 99.2218C28.9601 101.595 25.354 102.907 20.1964 102.907V105.778C25.8103 105.778 30.2828 104.346 33.3388 101.233C36.3898 98.1241 37.789 93.5827 37.789 87.8807H34.9181ZM20.1964 102.907C15.1359 102.907 11.5687 101.643 9.2363 99.355L7.2257 101.404C10.279 104.4 14.6888 105.778 20.1964 105.778V102.907ZM9.2363 99.355C6.91108 97.0737 5.62716 93.567 5.62716 88.5667H2.75627C2.75627 94.033 4.16521 98.4016 7.2257 101.404L9.2363 99.355ZM5.62716 88.5667V19.5177H2.75627V88.5667H5.62716ZM5.62716 19.5177C5.62716 14.5195 6.91027 10.9792 9.24601 8.6435L7.21599 6.61348C4.16602 9.66345 2.75627 14.0493 2.75627 19.5177H5.62716ZM9.24601 8.6435C11.6372 6.25228 15.2072 4.94843 20.1964 4.94843V2.07754C14.719 2.07754 10.3121 3.51736 7.21599 6.61348L9.24601 8.6435ZM20.1964 4.94843H42.0696V2.07754H20.1964V4.94843ZM34.9181 35.7511V51.2985H37.789V35.7511H34.9181ZM36.3536 52.734H40.0118V49.8631H36.3536V52.734ZM40.0118 52.734C41.4448 52.734 42.7008 52.6287 43.7528 52.3949L43.13 49.5924C42.3529 49.7651 41.3225 49.8631 40.0118 49.8631V52.734ZM43.8067 52.3819C45.1353 52.0322 46.2156 51.2281 47.0439 50.0812L44.7165 48.4003C44.2238 49.0825 43.6782 49.447 43.0761 49.6055L43.8067 52.3819ZM47.0358 50.0923C48.0168 48.7609 48.3826 46.891 48.3826 44.7442H45.5118C45.5118 46.6621 45.1662 47.7899 44.7246 48.3893L47.0358 50.0923ZM48.3826 44.7442V41.6195H45.5118V44.7442H48.3826ZM48.3826 41.6195C48.3826 39.2958 47.4366 37.3934 45.552 36.0937L43.9221 38.457C44.9844 39.1896 45.5118 40.1833 45.5118 41.6195H48.3826ZM45.552 36.0937C43.8405 34.9134 41.9308 34.3156 39.8594 34.3156V37.1865C41.3446 37.1865 42.6866 37.6049 43.9221 38.457L45.552 36.0937ZM39.8594 34.3156H36.3536V37.1865H39.8594V34.3156ZM164.404 38.326C164.355 42.606 163.481 46.5721 161.792 50.2408L164.4 51.4417C166.267 47.3875 167.222 43.0209 167.275 38.3586L164.404 38.326ZM161.795 50.2342C160.094 53.8794 157.735 57.1666 154.705 60.0985L156.701 62.1615C159.972 58.9964 162.541 55.4244 164.397 51.4483L161.795 50.2342ZM154.767 62.2181C156.845 64.0061 158.52 65.9733 159.807 68.118L162.269 66.6409C160.812 64.2128 158.931 62.0138 156.639 60.0419L154.767 62.2181ZM159.819 68.1378C161.147 70.272 161.96 72.4487 162.285 74.6744L165.126 74.2601C164.739 71.6082 163.774 69.0597 162.257 66.6211L159.819 68.1378ZM162.286 74.6792L163.81 84.8917L166.649 84.4679L165.125 74.2554L162.286 74.6792ZM163.809 84.8828C164.057 86.619 164.175 88.0717 164.175 89.2526H167.046C167.046 87.8931 166.911 86.2972 166.651 84.4768L163.809 84.8828ZM164.175 89.2526C164.175 94.1562 162.79 97.7231 160.203 100.176L162.178 102.26C165.485 99.124 167.046 94.7139 167.046 89.2526H164.175ZM160.203 100.176C157.653 102.592 153.938 103.898 148.844 103.898V106.769C154.419 106.769 158.935 105.332 162.178 102.26L160.203 100.176ZM148.844 103.898C144.879 103.898 141.862 102.876 139.644 100.968L137.772 103.145C140.634 105.607 144.375 106.769 148.844 106.769V103.898ZM139.644 100.968C137.419 99.0552 135.888 96.1646 135.167 92.125L132.341 92.6296C133.144 97.1259 134.915 100.688 137.772 103.145L139.644 100.968ZM135.174 92.1673L133.268 79.2873L130.428 79.7074L132.334 92.5874L135.174 92.1673ZM133.279 79.3781C133.142 77.733 132.345 76.3196 131.059 75.1557L129.132 77.2846C129.98 78.0514 130.352 78.8229 130.418 79.6165L133.279 79.3781ZM131.084 75.1795C129.655 73.8214 127.399 73.3367 124.761 73.3367V76.2076C127.203 76.2076 128.504 76.6882 129.107 77.2609L131.084 75.1795ZM124.761 73.3367H124.532V76.2076H124.761V73.3367ZM124.532 73.3367H123.084V76.2076H124.532V73.3367ZM121.649 74.7721V88.5667H124.519V74.7721H121.649ZM121.649 88.5667C121.649 93.5598 120.343 97.0631 117.973 99.3457L119.964 101.414C123.081 98.4122 124.519 94.0401 124.519 88.5667H121.649ZM117.973 99.3457C115.586 101.644 111.985 102.907 106.927 102.907V105.778C112.437 105.778 116.864 104.399 119.964 101.414L117.973 99.3457ZM106.927 102.907C101.866 102.907 98.2991 101.643 95.9667 99.355L93.9561 101.404C97.0094 104.4 101.419 105.778 106.927 105.778V102.907ZM95.9667 99.355C93.6414 97.0737 92.3575 93.567 92.3575 88.5667H89.4866C89.4866 94.033 90.8956 98.4016 93.9561 101.404L95.9667 99.355ZM92.3575 88.5667V19.5177H89.4866V88.5667H92.3575ZM92.3575 19.5177C92.3575 14.5195 93.6406 10.9792 95.9764 8.6435L93.9464 6.61348C90.8964 9.66345 89.4866 14.0493 89.4866 19.5177H92.3575ZM95.9764 8.6435C98.3676 6.25228 101.938 4.94843 106.927 4.94843V2.07754C101.449 2.07754 97.0425 3.51736 93.9464 6.61348L95.9764 8.6435ZM106.927 4.94843H126.132V2.07754H106.927V4.94843ZM126.132 4.94843C132.87 4.94843 139.137 6.13653 144.95 8.50085L146.031 5.84157C139.853 3.32826 133.215 2.07754 126.132 2.07754V4.94843ZM144.954 8.50243C150.751 10.8408 155.435 14.5071 159.034 19.5169L161.365 17.8418C157.445 12.385 152.323 8.37923 146.028 5.83998L144.954 8.50243ZM159.034 19.5169C162.583 24.4562 164.404 30.6996 164.404 38.3423H167.275C167.275 30.2344 165.336 23.3691 161.365 17.8418L159.034 19.5169ZM129.638 47.1704C131.449 47.1704 133.012 46.5033 134.211 45.171L132.077 43.2505C131.447 43.9505 130.673 44.2995 129.638 44.2995V47.1704ZM134.185 45.1994C135.418 43.9017 136.028 42.2969 136.028 40.4763H133.157C133.157 41.6026 132.801 42.4874 132.103 43.2221L134.185 45.1994ZM136.028 40.4763V39.1044H133.157V40.4763H136.028ZM136.028 39.1044C136.028 37.4163 135.295 35.9993 133.965 34.935L132.171 37.1768C132.873 37.7384 133.157 38.3537 133.157 39.1044H136.028ZM133.992 34.9579C132.735 33.8993 131.201 33.4011 129.486 33.4011V36.272C130.616 36.272 131.47 36.5867 132.143 37.1539L133.992 34.9579ZM129.486 33.4011H122.169V36.272H129.486V33.4011ZM120.734 34.8365V45.735H123.605V34.8365H120.734ZM122.169 47.1704H129.638V44.2995H122.169V47.1704ZM167.275 38.4947V38.3423H164.404V38.4947H167.275ZM167.275 38.3423V38.1899H164.404V38.3423H167.275ZM164.404 38.1899V38.4947H167.275V38.1899H164.404ZM256.175 83.265C256.933 85.3498 257.308 87.4451 257.308 89.5574H260.178C260.178 87.097 259.74 84.6703 258.873 82.2839L256.175 83.265ZM257.308 89.5574C257.308 92.0697 256.729 94.3123 255.59 96.3172L258.086 97.7354C259.487 95.2692 260.178 92.5325 260.178 89.5574H257.308ZM255.578 96.339C254.511 98.2936 252.856 99.8813 250.536 101.088L251.86 103.635C254.621 102.199 256.725 100.23 258.098 97.7137L255.578 96.339ZM250.536 101.088C248.249 102.277 245.39 102.907 241.9 102.907V105.778C245.726 105.778 249.066 105.088 251.86 103.635L250.536 101.088ZM241.9 102.907C238.865 102.907 236.185 102.246 233.826 100.951L232.445 103.467C235.268 105.017 238.431 105.778 241.9 105.778V102.907ZM233.826 100.951C231.588 99.7215 230.127 97.8602 229.413 95.2728L226.645 96.0362C227.558 99.3426 229.501 101.851 232.445 103.467L233.826 100.951ZM229.423 95.3111L228.127 90.0524L225.34 90.7392L226.635 95.9979L229.423 95.3111ZM226.734 88.9603H204.251V91.8312H226.734V88.9603ZM202.857 90.0524L201.561 95.3111L204.349 95.9979L205.645 90.7392L202.857 90.0524ZM201.571 95.2728C200.863 97.8398 199.367 99.7026 197.026 100.94L198.367 103.478C201.411 101.87 203.421 99.363 204.339 96.0362L201.571 95.2728ZM197.016 100.945C194.603 102.244 191.869 102.907 188.78 102.907V105.778C192.295 105.778 195.505 105.019 198.377 103.473L197.016 100.945ZM188.78 102.907C185.718 102.907 183.047 102.311 180.733 101.154L179.449 103.721C182.216 105.105 185.337 105.778 188.78 105.778V102.907ZM180.744 101.159C178.473 100 176.747 98.4235 175.523 96.428L173.076 97.9295C174.595 100.405 176.73 102.334 179.439 103.716L180.744 101.159ZM175.53 96.4402C174.301 94.392 173.677 92.0845 173.677 89.4812H170.806C170.806 92.5685 171.553 95.3927 173.068 97.9173L175.53 96.4402ZM173.677 89.4812C173.677 87.6498 174.067 85.5787 174.89 83.2537L172.184 82.2953C171.28 84.8479 170.806 87.2479 170.806 89.4812H173.677ZM174.881 83.2775L201.632 11.7898L198.943 10.7836L172.193 82.2714L174.881 83.2775ZM201.63 11.7958C202.632 9.15419 204.286 7.24635 206.608 5.99626L205.247 3.46853C202.284 5.06372 200.179 7.52543 198.946 10.7776L201.63 11.7958ZM206.627 5.98606C209.006 4.65892 211.978 3.95766 215.606 3.95766V1.08677C211.614 1.08677 208.133 1.85896 205.228 3.47873L206.627 5.98606ZM215.606 3.95766C219.133 3.95766 222.063 4.63361 224.453 5.92005L225.814 3.39232C222.919 1.83347 219.498 1.08677 215.606 1.08677V3.95766ZM224.463 5.92539C226.833 7.17758 228.445 9.05189 229.342 11.6095L232.051 10.659C230.916 7.42449 228.819 4.98007 225.804 3.38697L224.463 5.92539ZM229.352 11.6377L256.179 83.2779L258.868 82.2711L232.041 10.6309L229.352 11.6377ZM222.106 65.7381L217 45.1606L214.213 45.8521L219.32 66.4296L222.106 65.7381ZM214.215 45.1558L209.032 65.7333L211.816 66.4344L216.998 45.8569L214.215 45.1558ZM210.424 67.5193H220.713V64.6484H210.424V67.5193ZM63.7141 194.322C68.2158 194.322 71.2001 195.483 73.0098 197.503L75.1482 195.587C72.5884 192.73 68.6627 191.452 63.7141 191.452V194.322ZM73.0199 197.514C74.8672 199.533 75.9207 202.727 75.9207 207.367H78.7916C78.7916 202.354 77.6604 198.333 75.1381 195.576L73.0199 197.514ZM75.9207 207.367V224.896H78.7916V207.367H75.9207ZM75.9207 224.896C75.9207 229.118 75.073 232.997 73.3911 236.553L75.9863 237.78C77.861 233.817 78.7916 229.515 78.7916 224.896H75.9207ZM73.3844 236.567C71.7256 240.178 69.715 242.874 67.3901 244.734L69.1835 246.976C71.9396 244.771 74.1969 241.675 75.9931 237.766L73.3844 236.567ZM67.4022 244.725C64.0234 247.369 60.2776 249.402 56.1578 250.824L57.0947 253.538C61.5108 252.013 65.5387 249.829 69.1715 246.985L67.4022 244.725ZM56.1723 250.819C52.1029 252.175 46.8088 252.879 40.2405 252.879V255.75C46.984 255.75 52.6138 255.031 57.0802 253.542L56.1723 250.819ZM40.2405 252.879C32.1929 252.879 25.291 251.34 19.4879 248.316L18.1614 250.862C24.4507 254.139 31.826 255.75 40.2405 255.75V252.879ZM19.4879 248.316C13.6855 245.293 9.24433 240.994 6.13192 235.402L3.62334 236.798C7.01444 242.891 11.8713 247.585 18.1614 250.862L19.4879 248.316ZM6.13447 235.406C3.02052 229.762 1.43544 223.049 1.43544 215.217H-1.43544C-1.43544 223.441 0.231234 230.65 3.62079 236.793L6.13447 235.406ZM1.43544 215.217V190.829H-1.43544V215.217H1.43544ZM1.43544 190.829C1.43544 182.893 3.02176 176.102 6.13697 170.407L3.61829 169.029C0.229989 175.224 -1.43544 182.507 -1.43544 190.829H1.43544ZM6.13943 170.403C9.25589 164.657 13.6992 160.261 19.4962 157.192L18.153 154.655C11.8576 157.988 7.00288 162.789 3.61583 169.034L6.13943 170.403ZM19.4918 157.195C25.3453 154.122 32.2968 152.558 40.3929 152.558V149.687C31.9254 149.687 24.498 151.324 18.1574 154.653L19.4918 157.195ZM40.3929 152.558C45.5527 152.558 49.9778 153.253 53.6969 154.605L54.678 151.907C50.5726 150.414 45.8012 149.687 40.3929 149.687V152.558ZM53.6969 154.605C57.4934 155.986 61.2808 157.914 65.0591 160.4L66.637 158.002C62.6923 155.406 58.706 153.372 54.678 151.907L53.6969 154.605ZM65.0367 160.385C67.6452 162.172 69.4772 164.101 70.614 166.147L73.1236 164.753C71.7201 162.227 69.5382 159.989 66.6594 158.017L65.0367 160.385ZM70.633 166.181C71.8352 168.215 72.4149 170.277 72.4149 172.386H75.2858C75.2858 169.719 74.5446 167.157 73.1047 164.72L70.633 166.181ZM72.4149 172.386C72.4149 174.848 71.7346 177.238 70.3331 179.573L72.7949 181.05C74.4419 178.305 75.2858 175.41 75.2858 172.386H72.4149ZM70.3287 179.581C68.9649 181.885 67.1855 183.757 64.9815 185.211L66.5621 187.607C69.1341 185.911 71.2162 183.718 72.7993 181.043L70.3287 179.581ZM64.9877 185.207C62.8436 186.605 60.7492 187.26 58.684 187.26V190.131C61.3948 190.131 64.0256 189.261 66.5559 187.611L64.9877 185.207ZM58.684 187.26C55.6615 187.26 52.0697 186.179 47.8704 183.857L46.4812 186.369C50.9194 188.824 54.9997 190.131 58.684 190.131V187.26ZM47.895 183.871C46.7255 183.194 45.1952 182.723 43.386 182.404L42.8871 185.231C44.5328 185.522 45.6954 185.915 46.4566 186.356L47.895 183.871ZM43.3933 182.405C41.6176 182.082 39.6756 181.925 37.573 181.925V184.796C39.5351 184.796 41.3021 184.943 42.8798 185.23L43.3933 182.405ZM37.573 181.925C35.3836 181.925 33.6238 182.93 32.4092 184.784L34.8106 186.357C35.5268 185.264 36.409 184.796 37.573 184.796V181.925ZM32.4221 184.765C31.2353 186.514 30.7264 188.817 30.7264 191.515H33.5973C33.5973 189.132 34.0538 187.473 34.7977 186.377L32.4221 184.765ZM30.7264 191.515V214.074H33.5973V191.515H30.7264ZM30.7264 214.074C30.7264 217.109 31.3753 219.686 32.8426 221.642L35.1393 219.92C34.1678 218.624 33.5973 216.73 33.5973 214.074H30.7264ZM32.8426 221.642C34.341 223.64 36.4232 224.655 38.9448 224.655V221.784C37.3002 221.784 36.0798 221.174 35.1393 219.92L32.8426 221.642ZM38.9448 224.655C41.342 224.655 43.3715 224.552 45.0174 224.338C46.634 224.128 48.0019 223.796 48.9945 223.267L47.6435 220.734C47.1119 221.017 46.1553 221.295 44.6471 221.491C43.1683 221.684 41.2728 221.784 38.9448 221.784V224.655ZM49.7545 222V218.723H46.8836V222H49.7545ZM48.319 217.288H47.8617V220.159H48.319V217.288ZM47.8617 217.288C45.4113 217.288 43.5596 216.353 42.1601 214.445L39.845 216.142C41.7989 218.807 44.52 220.159 47.8617 220.159V217.288ZM42.1601 214.445C40.7232 212.485 39.923 209.695 39.923 205.919H37.0521C37.0521 210.07 37.9286 213.529 39.845 216.142L42.1601 214.445ZM39.923 205.919C39.923 201.687 41.0497 198.882 43.0132 197.17L41.1259 195.006C38.3134 197.46 37.0521 201.21 37.0521 205.919H39.923ZM43.026 197.158C45.0476 195.352 48.2235 194.322 52.8156 194.322V191.452C47.8556 191.452 43.8676 192.556 41.1131 195.018L43.026 197.158ZM52.8156 194.322H63.7141V191.452H52.8156V194.322ZM91.3668 189.762C91.3668 182.035 92.9507 175.427 96.0606 169.887L93.5573 168.482C90.1637 174.527 88.4959 181.638 88.4959 189.762H91.3668ZM96.0632 169.883C99.1745 164.292 103.613 160.021 109.411 157.049L108.101 154.494C101.806 157.721 96.9469 162.391 93.5547 168.487L96.0632 169.883ZM109.411 157.049C115.215 154.074 122.145 152.558 130.248 152.558V149.687C121.788 149.687 114.39 151.27 108.101 154.494L109.411 157.049ZM130.248 152.558C138.403 152.558 145.386 154.074 151.242 157.051L152.543 154.492C146.205 151.27 138.758 149.687 130.248 149.687V152.558ZM151.242 157.051C157.091 160.024 161.552 164.295 164.661 169.883L167.17 168.487C163.776 162.388 158.888 157.717 152.543 154.492L151.242 157.051ZM164.669 169.896C167.826 175.434 169.434 182.038 169.434 189.762H172.305C172.305 181.634 170.61 174.52 167.163 168.474L164.669 169.896ZM169.434 189.762V216.056H172.305V189.762H169.434ZM169.434 216.056C169.434 223.674 167.828 230.229 164.669 235.77L167.163 237.192C170.609 231.148 172.305 224.086 172.305 216.056H169.434ZM164.667 235.773C161.559 241.26 157.097 245.486 151.242 248.462L152.543 251.021C158.882 247.799 163.769 243.184 167.165 237.188L164.667 235.773ZM151.251 248.458C145.392 251.387 138.407 252.879 130.248 252.879V255.75C138.755 255.75 146.199 254.194 152.534 251.026L151.251 248.458ZM130.248 252.879C122.141 252.879 115.208 251.387 109.402 248.46L108.11 251.024C114.396 254.193 121.791 255.75 130.248 255.75V252.879ZM109.411 248.464C103.606 245.489 99.1673 241.263 96.058 235.773L93.5599 237.188C96.9541 243.181 101.813 247.796 108.101 251.019L109.411 248.464ZM96.0606 235.778C92.9492 230.236 91.3668 223.678 91.3668 216.056H88.4959C88.4959 224.082 90.1652 231.141 93.5573 237.183L96.0606 235.778ZM91.3668 216.056V189.762H88.4959V216.056H91.3668ZM120.734 214.531C120.734 217.181 121.553 219.437 123.307 221.128L125.3 219.062C124.209 218.01 123.605 216.556 123.605 214.531H120.734ZM123.345 221.164C125.145 222.777 127.499 223.512 130.248 223.512V220.641C128.017 220.641 126.409 220.055 125.262 219.026L123.345 221.164ZM130.248 223.512C133.123 223.512 135.565 222.791 137.379 221.164L135.463 219.026C134.331 220.042 132.657 220.641 130.248 220.641V223.512ZM137.381 221.162C139.252 219.479 140.143 217.213 140.143 214.531H137.272C137.272 216.525 136.639 217.968 135.461 219.028L137.381 221.162ZM140.143 214.531V190.982H137.272V214.531H140.143ZM140.143 190.982C140.143 188.262 139.259 185.978 137.361 184.333L135.481 186.503C136.632 187.501 137.272 188.926 137.272 190.982H140.143ZM137.399 184.368C135.586 182.679 133.136 181.925 130.248 181.925V184.796C132.644 184.796 134.31 185.414 135.443 186.469L137.399 184.368ZM130.248 181.925C127.485 181.925 125.124 182.693 123.325 184.368L125.281 186.469C126.43 185.399 128.031 184.796 130.248 184.796V181.925ZM123.327 184.366C121.546 186.019 120.734 188.293 120.734 190.982H123.605C123.605 188.894 124.215 187.459 125.28 186.47L123.327 184.366ZM120.734 190.982V214.531H123.605V190.982H120.734ZM259.823 187.612C259.774 191.892 258.9 195.858 257.211 199.527L259.818 200.728C261.685 196.673 262.64 192.307 262.693 187.645L259.823 187.612ZM257.214 199.52C255.513 203.165 253.153 206.453 250.124 209.384L252.12 211.447C255.391 208.282 257.96 204.71 259.815 200.734L257.214 199.52ZM250.185 211.504C252.263 213.292 253.939 215.259 255.226 217.404L257.688 215.927C256.231 213.499 254.35 211.3 252.058 209.328L250.185 211.504ZM255.238 217.424C256.566 219.558 257.379 221.735 257.704 223.96L260.545 223.546C260.158 220.894 259.193 218.346 257.675 215.907L255.238 217.424ZM257.704 223.965L259.229 234.178L262.068 233.754L260.544 223.541L257.704 223.965ZM259.227 234.169C259.475 235.905 259.594 237.358 259.594 238.539H262.465C262.465 237.179 262.329 235.583 262.069 233.763L259.227 234.169ZM259.594 238.539C259.594 243.442 258.208 247.009 255.621 249.462L257.597 251.546C260.903 248.41 262.465 244 262.465 238.539H259.594ZM255.622 249.462C253.072 251.878 249.357 253.184 244.263 253.184V256.055C249.838 256.055 254.354 254.618 257.596 251.546L255.622 249.462ZM244.263 253.184C240.297 253.184 237.28 252.162 235.062 250.254L233.19 252.431C236.053 254.893 239.794 256.055 244.263 256.055V253.184ZM235.062 250.254C232.838 248.341 231.307 245.451 230.586 241.411L227.759 241.916C228.562 246.412 230.334 249.974 233.19 252.431L235.062 250.254ZM230.592 241.453L228.687 228.573L225.847 228.993L227.752 241.873L230.592 241.453ZM228.698 228.664C228.56 227.019 227.764 225.606 226.477 224.442L224.551 226.571C225.399 227.337 225.77 228.109 225.837 228.903L228.698 228.664ZM226.503 224.465C225.073 223.107 222.818 222.623 220.179 222.623V225.494C222.622 225.494 223.923 225.974 224.526 226.547L226.503 224.465ZM220.179 222.623H219.951V225.494H220.179V222.623ZM219.951 222.623H218.503V225.494H219.951V222.623ZM217.067 224.058V237.853H219.938V224.058H217.067ZM217.067 237.853C217.067 242.846 215.762 246.349 213.391 248.632L215.383 250.7C218.5 247.698 219.938 243.326 219.938 237.853H217.067ZM213.391 248.632C211.004 250.93 207.404 252.193 202.345 252.193V255.064C207.855 255.064 212.282 253.685 215.383 250.7L213.391 248.632ZM202.345 252.193C197.285 252.193 193.718 250.929 191.385 248.641L189.375 250.69C192.428 253.686 196.838 255.064 202.345 255.064V252.193ZM191.385 248.641C189.06 246.36 187.776 242.853 187.776 237.853H184.905C184.905 243.319 186.314 247.688 189.375 250.69L191.385 248.641ZM187.776 237.853V168.804H184.905V237.853H187.776ZM187.776 168.804C187.776 163.806 189.059 160.265 191.395 157.929L189.365 155.899C186.315 158.949 184.905 163.335 184.905 168.804H187.776ZM191.395 157.929C193.786 155.538 197.356 154.234 202.345 154.234V151.364C196.868 151.364 192.461 152.803 189.365 155.899L191.395 157.929ZM202.345 154.234H221.551V151.364H202.345V154.234ZM221.551 154.234C228.288 154.234 234.556 155.422 240.368 157.787L241.45 155.128C235.272 152.614 228.634 151.364 221.551 151.364V154.234ZM240.372 157.788C246.169 160.127 250.853 163.793 254.453 168.803L256.784 167.128C252.864 161.671 247.741 157.665 241.446 155.126L240.372 157.788ZM254.453 168.803C258.001 173.742 259.823 179.986 259.823 187.628H262.694C262.694 179.52 260.755 172.655 256.784 167.128L254.453 168.803ZM225.057 196.456C226.868 196.456 228.431 195.789 229.63 194.457L227.496 192.536C226.866 193.236 226.091 193.585 225.057 193.585V196.456ZM229.603 194.485C230.836 193.188 231.446 191.583 231.446 189.762H228.575C228.575 190.889 228.22 191.773 227.522 192.508L229.603 194.485ZM231.446 189.762V188.39H228.575V189.762H231.446ZM231.446 188.39C231.446 186.702 230.714 185.285 229.383 184.221L227.59 186.463C228.292 187.024 228.575 187.64 228.575 188.39H231.446ZM229.411 184.244C228.154 183.185 226.62 182.687 224.904 182.687V185.558C226.035 185.558 226.888 185.873 227.562 186.44L229.411 184.244ZM224.904 182.687H217.588V185.558H224.904V182.687ZM216.153 184.122V195.021H219.023V184.122H216.153ZM217.588 196.456H225.057V193.585H217.588V196.456ZM262.694 187.781V187.628H259.823V187.781H262.694ZM262.694 187.628V187.476H259.823V187.628H262.694ZM259.823 187.476V187.781H262.694V187.476H259.823ZM351.593 232.551C352.351 234.636 352.726 236.731 352.726 238.843H355.597C355.597 236.383 355.159 233.956 354.291 231.57L351.593 232.551ZM352.726 238.843C352.726 241.356 352.147 243.598 351.008 245.603L353.504 247.021C354.906 244.555 355.597 241.818 355.597 238.843H352.726ZM350.996 245.625C349.93 247.58 348.274 249.167 345.954 250.374L347.279 252.921C350.04 251.485 352.144 249.516 353.517 247L350.996 245.625ZM345.954 250.374C343.667 251.563 340.809 252.193 337.319 252.193V255.064C341.145 255.064 344.485 254.374 347.279 252.921L345.954 250.374ZM337.319 252.193C334.284 252.193 331.604 251.532 329.245 250.236L327.863 252.753C330.687 254.303 333.85 255.064 337.319 255.064V252.193ZM329.245 250.236C327.006 249.007 325.545 247.146 324.832 244.559L322.064 245.322C322.976 248.629 324.919 251.137 327.863 252.753L329.245 250.236ZM324.842 244.597L323.546 239.338L320.758 240.025L322.054 245.284L324.842 244.597ZM322.152 238.246H299.669V241.117H322.152V238.246ZM298.276 239.338L296.98 244.597L299.768 245.284L301.063 240.025L298.276 239.338ZM296.99 244.559C296.282 247.126 294.786 248.989 292.445 250.226L293.786 252.764C296.83 251.156 298.84 248.649 299.758 245.322L296.99 244.559ZM292.435 250.231C290.022 251.53 287.288 252.193 284.198 252.193V255.064C287.714 255.064 290.924 254.305 293.796 252.759L292.435 250.231ZM284.198 252.193C281.137 252.193 278.466 251.596 276.152 250.439L274.868 253.007C277.635 254.391 280.756 255.064 284.198 255.064V252.193ZM276.162 250.445C273.892 249.286 272.166 247.709 270.941 245.714L268.494 247.215C270.013 249.691 272.149 251.62 274.858 253.002L276.162 250.445ZM270.949 245.726C269.72 243.678 269.095 241.37 269.095 238.767H266.225C266.225 241.854 266.972 244.679 268.487 247.203L270.949 245.726ZM269.095 238.767C269.095 236.936 269.485 234.865 270.309 232.54L267.602 231.581C266.698 234.134 266.225 236.534 266.225 238.767H269.095ZM270.3 232.564L297.051 161.076L294.362 160.07L267.611 231.557L270.3 232.564ZM297.048 161.082C298.05 158.44 299.705 156.532 302.027 155.282L300.666 152.754C297.703 154.35 295.598 156.811 294.364 160.064L297.048 161.082ZM302.045 155.272C304.425 153.945 307.397 153.244 311.025 153.244V150.373C307.032 150.373 303.551 151.145 300.647 152.765L302.045 155.272ZM311.025 153.244C314.552 153.244 317.482 153.92 319.871 155.206L321.232 152.678C318.337 151.119 314.916 150.373 311.025 150.373V153.244ZM319.881 155.211C322.251 156.464 323.863 158.338 324.761 160.896L327.47 159.945C326.335 156.71 324.238 154.266 321.222 152.673L319.881 155.211ZM324.771 160.924L351.598 232.564L354.287 231.557L327.46 159.917L324.771 160.924ZM317.525 215.024L312.418 194.447L309.632 195.138L314.738 215.716L317.525 215.024ZM309.633 194.442L304.451 215.019L307.235 215.72L312.417 195.143L309.633 194.442ZM305.843 216.805H316.131V213.934H305.843V216.805ZM445.371 231.722C446.939 234.383 447.688 236.979 447.688 239.529H450.559C450.559 236.389 449.63 233.295 447.845 230.265L445.371 231.722ZM447.688 239.529C447.688 241.908 447.075 244.025 445.858 245.917L448.273 247.47C449.8 245.094 450.559 242.435 450.559 239.529H447.688ZM445.858 245.917C444.628 247.831 442.937 249.37 440.751 250.532L442.1 253.067C444.69 251.689 446.759 249.824 448.273 247.47L445.858 245.917ZM440.773 250.521C438.606 251.627 436.166 252.193 433.423 252.193V255.064C436.574 255.064 439.469 254.411 442.078 253.078L440.773 250.521ZM433.423 252.193C429.834 252.193 427.037 251.513 424.936 250.262L423.467 252.728C426.142 254.322 429.493 255.064 433.423 255.064V252.193ZM424.936 250.262C422.82 249.001 420.815 246.851 418.963 243.682L416.484 245.131C418.493 248.568 420.807 251.143 423.467 252.728L424.936 250.262ZM419.022 243.794L408.199 220.854L405.603 222.079L416.425 245.019L419.022 243.794ZM405.831 220.51L399.429 227.674L401.57 229.587L407.971 222.423L405.831 220.51ZM399.484 227.616C398.6 228.5 397.623 229.268 396.552 229.92L398.045 232.372C399.311 231.601 400.468 230.692 401.514 229.646L399.484 227.616ZM395.863 231.146V238.843H398.734V231.146H395.863ZM395.863 238.843C395.863 243.844 394.579 247.35 392.254 249.632L394.264 251.681C397.325 248.678 398.734 244.31 398.734 238.843H395.863ZM392.254 249.632C389.921 251.92 386.354 253.184 381.294 253.184V256.055C386.801 256.055 391.211 254.677 394.264 251.681L392.254 249.632ZM381.294 253.184C376.235 253.184 372.635 251.921 370.248 249.622L368.256 251.69C371.357 254.676 375.784 256.055 381.294 256.055V253.184ZM370.248 249.622C367.877 247.34 366.572 243.837 366.572 238.843H363.701C363.701 244.317 365.139 248.689 368.256 251.69L370.248 249.622ZM366.572 238.843V167.432H363.701V238.843H366.572ZM366.572 167.432C366.572 162.494 367.875 159.014 370.248 156.729L368.256 154.661C365.142 157.66 363.701 162.004 363.701 167.432H366.572ZM370.248 156.729C372.635 154.43 376.235 153.167 381.294 153.167V150.297C375.784 150.297 371.357 151.676 368.256 154.661L370.248 156.729ZM381.294 153.167C386.354 153.167 389.921 154.431 392.254 156.72L394.264 154.67C391.211 151.675 386.801 150.297 381.294 150.297V153.167ZM392.254 156.72C394.581 159.003 395.863 162.487 395.863 167.432H398.734C398.734 162.012 397.322 157.671 394.264 154.67L392.254 156.72ZM395.863 167.432V184.732H398.734V167.432H395.863ZM398.371 185.686L424.588 156.191L422.443 154.284L396.225 183.779L398.371 185.686ZM424.592 156.187C426.017 154.573 427.386 153.573 428.683 153.071L427.646 150.393C425.793 151.111 424.063 152.448 422.439 154.288L424.592 156.187ZM428.683 153.071C430.055 152.539 431.727 152.253 433.728 152.253V149.382C431.462 149.382 429.424 149.705 427.646 150.393L428.683 153.071ZM433.728 152.253C437.093 152.253 439.889 152.925 442.172 154.204L443.575 151.699C440.778 150.132 437.476 149.382 433.728 149.382V152.253ZM442.202 154.22C444.574 155.476 446.319 157.145 447.492 159.221L449.992 157.809C448.523 155.211 446.356 153.171 443.545 151.683L442.202 154.22ZM447.492 159.221C448.689 161.338 449.288 163.634 449.288 166.136H452.159C452.159 163.151 451.437 160.366 449.992 157.809L447.492 159.221ZM449.288 166.136C449.288 168.127 448.896 170.104 448.097 172.076L450.759 173.153C451.688 170.857 452.159 168.515 452.159 166.136H449.288ZM448.087 172.103C447.341 174.059 446.221 175.862 444.71 177.514L446.829 179.451C448.57 177.547 449.889 175.437 450.769 173.125L448.087 172.103ZM444.703 177.522L428.699 195.279L430.831 197.201L446.836 179.444L444.703 177.522ZM428.473 196.866L445.316 231.62L447.9 230.367L431.057 195.614L428.473 196.866ZM537.553 232.551C538.311 234.636 538.686 236.731 538.686 238.843H541.557C541.557 236.383 541.119 233.956 540.251 231.57L537.553 232.551ZM538.686 238.843C538.686 241.356 538.107 243.598 536.968 245.603L539.464 247.021C540.865 244.555 541.557 241.818 541.557 238.843H538.686ZM536.956 245.625C535.89 247.58 534.234 249.167 531.914 250.374L533.239 252.921C535.999 251.485 538.104 249.516 539.476 247L536.956 245.625ZM531.914 250.374C529.627 251.563 526.768 252.193 523.278 252.193V255.064C527.105 255.064 530.445 254.374 533.239 252.921L531.914 250.374ZM523.278 252.193C520.243 252.193 517.563 251.532 515.205 250.236L513.823 252.753C516.647 254.303 519.81 255.064 523.278 255.064V252.193ZM515.205 250.236C512.966 249.007 511.505 247.146 510.791 244.559L508.024 245.322C508.936 248.629 510.879 251.137 513.823 252.753L515.205 250.236ZM510.801 244.597L509.506 239.338L506.718 240.025L508.014 245.284L510.801 244.597ZM508.112 238.246H485.629V241.117H508.112V238.246ZM484.235 239.338L482.94 244.597L485.727 245.284L487.023 240.025L484.235 239.338ZM482.95 244.559C482.242 247.126 480.746 248.989 478.404 250.226L479.745 252.764C482.79 251.156 484.799 248.649 485.717 245.322L482.95 244.559ZM478.394 250.231C475.982 251.53 473.247 252.193 470.158 252.193V255.064C473.674 255.064 476.884 254.305 479.755 252.759L478.394 250.231ZM470.158 252.193C467.097 252.193 464.426 251.596 462.112 250.439L460.828 253.007C463.594 254.391 466.716 255.064 470.158 255.064V252.193ZM462.122 250.445C459.852 249.286 458.125 247.709 456.901 245.714L454.454 247.215C455.973 249.691 458.108 251.62 460.817 253.002L462.122 250.445ZM456.908 245.726C455.679 243.678 455.055 241.37 455.055 238.767H452.184C452.184 241.854 452.932 244.679 454.447 247.203L456.908 245.726ZM455.055 238.767C455.055 236.936 455.445 234.865 456.268 232.54L453.562 231.581C452.658 234.134 452.184 236.534 452.184 238.767H455.055ZM456.26 232.564L483.01 161.076L480.322 160.07L453.571 231.557L456.26 232.564ZM483.008 161.082C484.01 158.44 485.665 156.532 487.986 155.282L486.625 152.754C483.663 154.35 481.557 156.811 480.324 160.064L483.008 161.082ZM488.005 155.272C490.385 153.945 493.356 153.244 496.985 153.244V150.373C492.992 150.373 489.511 151.145 486.607 152.765L488.005 155.272ZM496.985 153.244C500.512 153.244 503.442 153.92 505.831 155.206L507.192 152.678C504.297 151.119 500.876 150.373 496.985 150.373V153.244ZM505.841 155.211C508.211 156.464 509.823 158.338 510.721 160.896L513.43 159.945C512.295 156.71 510.197 154.266 507.182 152.673L505.841 155.211ZM510.731 160.924L537.558 232.564L540.246 231.557L513.419 159.917L510.731 160.924ZM503.484 215.024L498.378 194.447L495.592 195.138L500.698 215.716L503.484 215.024ZM495.593 194.442L490.41 215.019L493.194 215.72L498.377 195.143L495.593 194.442ZM491.802 216.805H502.091V213.934H491.802V216.805ZM606.641 221.988C611.637 222.036 615.147 223.364 617.434 225.74L619.502 223.748C616.506 220.636 612.14 219.17 606.669 219.117L606.641 221.988ZM617.444 225.749C619.783 228.133 621.072 231.776 621.072 236.938H623.943C623.943 231.329 622.539 226.843 619.493 223.739L617.444 225.749ZM621.072 236.938C621.072 241.947 619.809 245.44 617.534 247.693C615.257 249.949 611.722 251.202 606.655 251.202V254.073C612.157 254.073 616.548 252.711 619.555 249.733C622.564 246.753 623.943 242.396 623.943 236.938H621.072ZM606.655 251.202H567.101V254.073H606.655V251.202ZM567.101 251.202C562.169 251.202 558.622 249.731 556.218 246.97L554.053 248.856C557.136 252.395 561.566 254.073 567.101 254.073V251.202ZM556.226 246.98C553.84 244.188 552.531 239.954 552.531 234.042H549.661C549.661 240.324 551.045 245.337 554.044 248.845L556.226 246.98ZM552.531 234.042V167.356H549.661V234.042H552.531ZM552.531 167.356C552.531 162.467 553.81 159.006 556.141 156.72L554.13 154.67C551.075 157.668 549.661 161.981 549.661 167.356H552.531ZM556.141 156.72C558.473 154.431 562.04 153.167 567.101 153.167V150.297C561.593 150.297 557.183 151.675 554.13 154.67L556.141 156.72ZM567.101 153.167C572.159 153.167 575.76 154.43 578.147 156.729L580.138 154.661C577.038 151.676 572.611 150.297 567.101 150.297V153.167ZM578.147 156.729C580.522 159.017 581.822 162.474 581.822 167.356H584.693C584.693 161.974 583.25 157.658 580.138 154.661L578.147 156.729ZM581.822 167.356V220.4H584.693V167.356H581.822ZM583.249 221.835L606.646 221.988L606.665 219.117L583.267 218.964L583.249 221.835ZM712.081 232.551C712.839 234.636 713.214 236.731 713.214 238.843H716.085C716.085 236.383 715.646 233.956 714.779 231.57L712.081 232.551ZM713.214 238.843C713.214 241.356 712.635 243.598 711.496 245.603L713.992 247.021C715.393 244.555 716.085 241.818 716.085 238.843H713.214ZM711.484 245.625C710.417 247.58 708.762 249.167 706.442 250.374L707.766 252.921C710.527 251.485 712.631 249.516 714.004 247L711.484 245.625ZM706.442 250.374C704.155 251.563 701.296 252.193 697.806 252.193V255.064C701.633 255.064 704.972 254.374 707.766 252.921L706.442 250.374ZM697.806 252.193C694.771 252.193 692.091 251.532 689.732 250.236L688.351 252.753C691.174 254.303 694.337 255.064 697.806 255.064V252.193ZM689.732 250.236C687.494 249.007 686.033 247.146 685.319 244.559L682.552 245.322C683.464 248.629 685.407 251.137 688.351 252.753L689.732 250.236ZM685.329 244.597L684.033 239.338L681.246 240.025L682.542 245.284L685.329 244.597ZM682.64 238.246H660.157V241.117H682.64V238.246ZM658.763 239.338L657.467 244.597L660.255 245.284L661.551 240.025L658.763 239.338ZM657.477 244.559C656.769 247.126 655.273 248.989 652.932 250.226L654.273 252.764C657.317 251.156 659.327 248.649 660.245 245.322L657.477 244.559ZM652.922 250.231C650.51 251.53 647.775 252.193 644.686 252.193V255.064C648.201 255.064 651.411 254.305 654.283 252.759L652.922 250.231ZM644.686 252.193C641.624 252.193 638.953 251.596 636.639 250.439L635.355 253.007C638.122 254.391 641.243 255.064 644.686 255.064V252.193ZM636.65 250.445C634.379 249.286 632.653 247.709 631.429 245.714L628.982 247.215C630.501 249.691 632.636 251.62 635.345 253.002L636.65 250.445ZM631.436 245.726C630.207 243.678 629.583 241.37 629.583 238.767H626.712C626.712 241.854 627.46 244.679 628.974 247.203L631.436 245.726ZM629.583 238.767C629.583 236.936 629.973 234.865 630.796 232.54L628.09 231.581C627.186 234.134 626.712 236.534 626.712 238.767H629.583ZM630.787 232.564L657.538 161.076L654.849 160.07L628.099 231.557L630.787 232.564ZM657.536 161.082C658.538 158.44 660.192 156.532 662.514 155.282L661.153 152.754C658.19 154.35 656.085 156.811 654.852 160.064L657.536 161.082ZM662.533 155.272C664.912 153.945 667.884 153.244 671.513 153.244V150.373C667.52 150.373 664.039 151.145 661.134 152.765L662.533 155.272ZM671.513 153.244C675.039 153.244 677.969 153.92 680.359 155.206L681.72 152.678C678.825 151.119 675.404 150.373 671.513 150.373V153.244ZM680.369 155.211C682.739 156.464 684.351 158.338 685.248 160.896L687.957 159.945C686.822 156.71 684.725 154.266 681.71 152.673L680.369 155.211ZM685.258 160.924L712.085 232.564L714.774 231.557L687.947 159.917L685.258 160.924ZM678.012 215.024L672.906 194.447L670.119 195.138L675.226 215.716L678.012 215.024ZM670.121 194.442L664.938 215.019L667.722 215.72L672.904 195.143L670.121 194.442ZM666.33 216.805H676.619V213.934H666.33V216.805Z" fill="#1AB5EB" mask="url(#path-1-inside-1)"/>
<path d="M362.185 103.601C357.866 103.601 354.589 102.433 352.353 100.095C350.118 97.7073 349 94.2015 349 89.5779V18.2426C349 13.5174 350.194 9.93538 352.582 7.49657C355.021 5.00694 358.603 3.76213 363.328 3.76213H400.672C405.398 3.76213 408.98 5.00694 411.418 7.49657C413.857 9.93538 415.077 13.5174 415.077 18.2426C415.077 23.0186 413.857 26.6514 411.418 29.1411C408.98 31.6307 405.398 32.8755 400.672 32.8755H380.4V39.3536H392.746C397.522 39.3536 401.13 40.5222 403.569 42.8594C406.007 45.1458 407.227 48.55 407.227 53.0719C407.227 57.5431 406.007 60.9219 403.569 63.2082C401.13 65.4438 397.522 66.5616 392.746 66.5616H380.4V74.4878H400.672C405.398 74.4878 408.98 75.758 411.418 78.2984C413.857 80.788 415.077 84.4971 415.077 89.4255C415.077 94.0999 413.857 97.6311 411.418 100.019C408.98 102.407 405.398 103.601 400.672 103.601H362.185Z" fill="#1AB5EB"/>
<path d="M442.361 103.601C438.042 103.601 434.765 102.433 432.529 100.095C430.294 97.7073 429.176 94.2015 429.176 89.5779V18.2426C429.176 13.5174 430.37 9.93538 432.758 7.49657C435.197 5.00694 438.779 3.76213 443.504 3.76213H480.848C485.574 3.76213 489.156 5.00694 491.594 7.49657C494.033 9.93538 495.253 13.5174 495.253 18.2426C495.253 23.0186 494.033 26.6514 491.594 29.1411C489.156 31.6307 485.574 32.8755 480.848 32.8755H460.576V39.3536H472.922C477.698 39.3536 481.306 40.5222 483.745 42.8594C486.183 45.1458 487.403 48.55 487.403 53.0719C487.403 57.5431 486.183 60.9219 483.745 63.2082C481.306 65.4438 477.698 66.5616 472.922 66.5616H460.576V74.4878H480.848C485.574 74.4878 489.156 75.758 491.594 78.2984C494.033 80.788 495.253 84.4971 495.253 89.4255C495.253 94.0999 494.033 97.6311 491.594 100.019C489.156 102.407 485.574 103.601 480.848 103.601H442.361Z" fill="#1AB5EB"/>
<path d="M577.563 3C582.745 3 586.658 4.37183 589.3 7.1155C591.992 9.85917 593.339 13.8731 593.339 19.1572V91.6357C593.339 96.0052 592.043 99.3586 589.452 101.696C586.861 103.982 583.533 105.125 579.468 105.125C573.269 105.125 568.57 102.966 565.369 98.6473L541.514 66.1806V88.892C541.514 94.1761 540.142 98.2154 537.398 101.01C534.655 103.754 530.641 105.125 525.357 105.125C520.124 105.125 516.135 103.754 513.391 101.01C510.699 98.2662 509.352 94.2269 509.352 88.892V17.7853C509.352 14.9908 510.013 12.4758 511.334 10.2402C512.705 7.95384 514.585 6.17554 516.973 4.90533C519.361 3.63511 522.029 3 524.976 3C527.973 3 530.565 3.50809 532.749 4.52426C534.934 5.54043 536.84 7.14091 538.465 9.32568L561.177 39.7347V19.1572C561.177 13.8222 562.549 9.80836 565.292 7.1155C568.087 4.37183 572.177 3 577.563 3Z" fill="#1AB5EB"/>
<path fill-rule="evenodd" clip-rule="evenodd" d="M545.512 71.6219L541.514 66.1806V74.2455C531.255 80.8481 520.488 86.3802 509.426 90.9822C509.377 90.3091 509.352 89.6124 509.352 88.892V17.7853C509.352 14.9908 510.013 12.4758 511.334 10.2402C512.705 7.95384 514.585 6.17554 516.973 4.90533C519.361 3.63511 522.029 3 524.976 3C527.973 3 530.565 3.50809 532.749 4.52426C534.934 5.54043 536.84 7.14091 538.465 9.32568L561.177 39.7347V19.1572C561.177 13.8222 562.549 9.80836 565.292 7.1155C568.087 4.37183 572.177 3 577.563 3C582.745 3 586.658 4.37183 589.3 7.1155C591.992 9.85917 593.339 13.8731 593.339 19.1572V44.5548C578.124 51.8375 562.076 60.7551 545.512 71.6219ZM493.844 96.8064C494.783 94.7863 495.253 92.326 495.253 89.4255C495.253 84.4971 494.033 80.788 491.594 78.2984C489.156 75.758 485.574 74.4878 480.848 74.4878H460.576V66.5616H472.922C477.698 66.5616 481.306 65.4438 483.745 63.2082C486.183 60.9219 487.403 57.5431 487.403 53.0719C487.403 48.55 486.183 45.1458 483.745 42.8594C481.306 40.5222 477.698 39.3536 472.922 39.3536H460.576V32.8755H480.848C485.574 32.8755 489.156 31.6307 491.594 29.1411C494.033 26.6514 495.253 23.0186 495.253 18.2426C495.253 13.5174 494.033 9.93538 491.594 7.49657C489.156 5.00694 485.574 3.76213 480.848 3.76213H443.504C438.779 3.76213 435.197 5.00694 432.758 7.49657C430.37 9.93538 429.176 13.5174 429.176 18.2426V89.5779C429.176 94.2015 430.294 97.7073 432.529 100.095C434.765 102.433 438.042 103.601 442.361 103.601H469.467C477.64 101.742 485.791 99.4945 493.844 96.8064ZM362.185 103.601C357.866 103.601 354.589 102.433 352.353 100.095C350.118 97.7073 349 94.2015 349 89.5779V18.2426C349 13.5174 350.194 9.93538 352.582 7.49657C355.021 5.00694 358.603 3.76213 363.328 3.76213H400.672C405.398 3.76213 408.98 5.00694 411.418 7.49657C413.857 9.93538 415.077 13.5174 415.077 18.2426C415.077 23.0186 413.857 26.6514 411.418 29.1411C408.98 31.6307 405.398 32.8755 400.672 32.8755H380.4V39.3536H392.746C397.522 39.3536 401.13 40.5222 403.569 42.8594C406.007 45.1458 407.227 48.55 407.227 53.0719C407.227 57.5431 406.007 60.9219 403.569 63.2082C401.13 65.4438 397.522 66.5616 392.746 66.5616H380.4V74.4878H400.672C405.398 74.4878 408.98 75.758 411.418 78.2984C413.857 80.788 415.077 84.4971 415.077 89.4255C415.077 94.0999 413.857 97.6311 411.418 100.019C408.98 102.407 405.398 103.601 400.672 103.601H362.185Z" fill="url(#paint0_linear)" fill-opacity="0.5"/>
<path fill-rule="evenodd" clip-rule="evenodd" d="M488.853 76.223C471.705 86.8117 452.99 95.1064 433.137 100.679C432.926 100.493 432.724 100.299 432.529 100.095C430.294 97.7073 429.176 94.2015 429.176 89.5779V18.2426C429.176 13.5174 430.37 9.93539 432.758 7.49655C435.197 5.00696 438.779 3.76215 443.504 3.76215H480.848C485.574 3.76215 489.156 5.00696 491.594 7.49655C494.033 9.93539 495.253 13.5174 495.253 18.2426C495.253 23.0186 494.033 26.6514 491.594 29.1411C489.156 31.6307 485.574 32.8755 480.848 32.8755H460.576V39.3536H472.922C477.698 39.3536 481.306 40.5222 483.745 42.8594C486.183 45.1458 487.403 48.55 487.403 53.0719C487.403 57.5431 486.183 60.9219 483.745 63.2083C481.306 65.4438 477.698 66.5616 472.922 66.5616H460.576V74.4878H480.848C484.037 74.4878 486.705 75.0662 488.853 76.223ZM548.247 22.4221C536.993 37.1585 523.916 50.4278 509.352 61.8929V17.7853C509.352 14.9908 510.013 12.4758 511.334 10.2402C512.705 7.95386 514.585 6.17554 516.973 4.90533C519.361 3.6351 522.029 3 524.976 3C527.973 3 530.565 3.50809 532.749 4.52426C534.934 5.54044 536.84 7.1409 538.465 9.32568L548.247 22.4221ZM362.185 103.601C357.866 103.601 354.589 102.433 352.353 100.095C350.118 97.7073 349 94.2015 349 89.5779V18.2426C349 13.5174 350.194 9.93539 352.582 7.49655C355.021 5.00696 358.603 3.76215 363.328 3.76215H400.672C405.398 3.76215 408.98 5.00696 411.418 7.49655C413.857 9.93539 415.077 13.5174 415.077 18.2426C415.077 23.0186 413.857 26.6514 411.418 29.1411C408.98 31.6307 405.398 32.8755 400.672 32.8755H380.4V39.3536H392.746C397.522 39.3536 401.13 40.5222 403.569 42.8594C406.007 45.1458 407.227 48.55 407.227 53.0719C407.227 57.5431 406.007 60.9219 403.569 63.2083C401.13 65.4438 397.522 66.5616 392.746 66.5616H380.4V74.4878H400.672C405.398 74.4878 408.98 75.758 411.418 78.2984C413.857 80.7881 415.077 84.4971 415.077 89.4255C415.077 94.0999 413.857 97.6311 411.418 100.019C408.98 102.407 405.398 103.601 400.672 103.601H362.185Z" fill="url(#paint1_linear)" fill-opacity="0.5"/>
<path fill-rule="evenodd" clip-rule="evenodd" d="M414.893 92.3986C401.975 97.9448 388.145 101.775 373.691 103.601H362.185C357.866 103.601 354.589 102.433 352.353 100.095C350.118 97.7074 349 94.2016 349 89.578V18.2427C349 13.5175 350.194 9.93546 352.582 7.49664C355.021 5.00702 358.603 3.76221 363.328 3.76221H400.672C405.398 3.76221 408.98 5.00702 411.418 7.49664C413.857 9.93546 415.077 13.5175 415.077 18.2427C415.077 23.0187 413.857 26.6515 411.418 29.1411C408.98 31.6308 405.398 32.8756 400.672 32.8756H380.4V39.3537H392.746C397.522 39.3537 401.13 40.5223 403.569 42.8595C406.007 45.1458 407.227 48.55 407.227 53.072C407.227 57.5432 406.007 60.922 403.569 63.2083C401.13 65.4439 397.522 66.5617 392.746 66.5617H380.4V74.4878H400.672C405.398 74.4878 408.98 75.7581 411.418 78.2985C413.857 80.7881 415.077 84.4971 415.077 89.4256C415.077 90.4741 415.015 91.4651 414.893 92.3986ZM479.52 40.3343C466.303 58.8072 449.103 74.2362 429.176 85.3664V18.2427C429.176 13.5175 430.37 9.93546 432.758 7.49664C435.197 5.00702 438.779 3.76221 443.504 3.76221H480.848C485.574 3.76221 489.156 5.00702 491.594 7.49664C493.182 9.08369 494.252 11.1548 494.806 13.7101C491.88 20.2436 488.512 26.536 484.74 32.5492C483.542 32.7668 482.245 32.8756 480.848 32.8756H460.576V39.3537H472.922C475.448 39.3537 477.647 39.6806 479.52 40.3343Z" fill="url(#paint2_linear)" fill-opacity="0.5"/>
<path fill-rule="evenodd" clip-rule="evenodd" d="M409.517 76.7224C394.247 90.0896 374.936 98.9529 353.655 101.239C353.188 100.895 352.754 100.514 352.353 100.095C350.118 97.7074 349 94.2016 349 89.578V18.2427C349 13.5175 350.194 9.93546 352.582 7.49664C355.021 5.00702 358.603 3.76221 363.328 3.76221H400.672C405.398 3.76221 408.98 5.00702 411.418 7.49664C413.857 9.93546 415.077 13.5175 415.077 18.2427C415.077 23.0187 413.857 26.6515 411.418 29.1411C408.98 31.6308 405.398 32.8756 400.672 32.8756H380.4V39.3537H392.746C397.522 39.3537 401.13 40.5223 403.569 42.8595C406.007 45.1458 407.227 48.55 407.227 53.072C407.227 57.5432 406.007 60.9219 403.569 63.2083C401.13 65.4439 397.522 66.5617 392.746 66.5617H380.4V74.4878H400.672C404.291 74.4878 407.239 75.2327 409.517 76.7224ZM444.132 3.76221C443.527 21.9525 438.135 38.9305 429.176 53.477V18.2427C429.176 13.5175 430.37 9.93546 432.758 7.49664C435.197 5.00702 438.779 3.76221 443.504 3.76221H444.132Z" fill="url(#paint3_linear)" fill-opacity="0.5"/>
<path fill-rule="evenodd" clip-rule="evenodd" d="M395.347 32.8756C395.902 29.273 396.189 25.5822 396.189 21.8243C396.189 15.5865 395.396 9.53405 393.905 3.76221H363.328C358.603 3.76221 355.021 5.00702 352.582 7.49664C350.194 9.93546 349 13.5175 349 18.2427V89.4354C361.437 84.8702 372.264 76.9714 380.4 66.8218V66.5617H380.607C386.868 58.6774 391.51 49.4507 394.033 39.3833C393.614 39.3635 393.185 39.3537 392.746 39.3537H380.4V32.8756H395.347Z" fill="url(#paint4_linear)" fill-opacity="0.5"/>
<path d="M306.474 33.6528C289.614 28.4189 273.316 24.5828 260.549 22.6088C254.165 21.6218 248.67 21.0985 244.376 21.1063C242.229 21.1102 240.383 21.244 238.837 21.5424C237.292 21.8408 235.998 22.3249 235.191 23.0289C234.383 23.733 234.179 24.5551 234.408 25.4043C234.637 26.2535 235.285 27.1638 236.298 28.1487C238.324 30.1184 241.819 32.3857 246.519 34.8397C255.921 39.7478 270.15 45.3881 287.01 50.6219C303.87 55.8558 320.165 59.6912 332.933 61.6652C339.316 62.6522 344.811 63.1756 349.105 63.1677C351.252 63.1639 353.1 63.0285 354.646 62.7301C356.191 62.4317 357.485 61.9477 358.292 61.2436C359.1 60.5396 359.304 59.7174 359.075 58.8682C358.846 58.019 358.196 57.1102 357.183 56.1253C355.158 54.1556 351.663 51.8883 346.962 49.4343C337.56 44.5263 323.334 38.8867 306.474 33.6528ZM305.512 34.4913C322.309 39.7056 336.481 45.3281 345.787 50.1862C350.44 52.6152 353.875 54.8568 355.803 56.7316C356.767 57.669 357.349 58.5162 357.539 59.2211C357.729 59.926 357.544 60.4557 357.074 60.8653C356.604 61.2748 355.794 61.613 354.512 61.8607C353.229 62.1084 351.519 62.2442 349.476 62.2479C345.389 62.2554 339.965 61.7471 333.647 60.7702C321.009 58.8163 304.768 54.9976 287.972 49.7834C271.175 44.5692 257.001 38.9459 247.695 34.0879C243.042 31.6588 239.606 29.4172 237.678 27.5425C236.714 26.6051 236.132 25.7578 235.942 25.0529C235.752 24.348 235.94 23.8168 236.41 23.4072C236.879 22.9977 237.687 22.661 238.97 22.4134C240.253 22.1657 241.962 22.0298 244.006 22.0261C248.093 22.0187 253.516 22.5269 259.835 23.5039C272.472 25.4577 288.715 29.2771 305.512 34.4913Z" fill="#CCCCCC"/>
<path d="M236.115 23.1106C235.585 23.7353 234.214 24.0619 234.408 24.7805C234.637 25.6297 235.285 26.5404 236.298 27.5253C238.324 29.495 241.818 31.7624 246.519 34.2164C255.921 39.1244 270.15 44.7645 287.01 49.9984C303.87 55.2323 320.165 59.0676 332.933 61.0415C339.316 62.0285 344.811 62.552 349.105 62.5441C351.252 62.5402 353.101 62.4051 354.646 62.1067C356.191 61.8084 357.485 61.324 358.292 60.62C358.637 60.3198 358.865 59.9972 359.003 59.6612L357.604 59.2445C357.57 59.6406 357.387 59.9686 357.074 60.2416C356.604 60.6511 355.794 60.9891 354.511 61.2368C353.229 61.4845 351.519 61.6206 349.476 61.6243C345.389 61.6317 339.965 61.1236 333.647 60.1467C321.01 58.1928 304.768 54.3737 287.972 49.1595C271.175 43.9453 257 38.3225 247.694 33.4645C243.041 31.0355 239.606 28.7935 237.678 26.9188C236.714 25.9814 236.132 25.1344 235.942 24.4295C235.799 23.8989 235.871 23.4666 236.115 23.1106Z" fill="url(#paint5_linear)"/>
<path fill-rule="evenodd" clip-rule="evenodd" d="M347.374 44.9703L356.085 42.7617L366.76 47.9151L371.178 58.5901L367.251 68.2834L358.908 74.0503L353.386 73.0687L347.865 72.8233L344.797 68.7742L340.748 64.8478V60.676L340.012 54.6637L344.306 49.8783L347.374 44.9703Z" fill="#D54049"/>
<path d="M351.054 58.7444L354.49 48.5603L348.708 52.9413L351.054 58.7444Z" fill="white" fill-opacity="0.1"/>
<path d="M354.49 48.5283L347.373 44.97L344.306 49.878L354.49 48.5283Z" fill="black" fill-opacity="0.15"/>
<path d="M341.484 58.3446L354.49 48.5286L344.306 49.8783L341.484 58.3446Z" fill="black" fill-opacity="0.25"/>
<path d="M354.49 48.5284L356.085 42.7615L347.374 44.9701L354.49 48.5284Z" fill="black" fill-opacity="0.3"/>
<path d="M354.49 48.5284L356.085 42.7615L365.165 48.5284H354.49Z" fill="black" fill-opacity="0.15"/>
<path d="M366.76 47.9149L365.165 48.5284L356.085 42.7615L366.76 47.9149Z" fill="black" fill-opacity="0.5"/>
<path d="M365.165 48.5286L366.269 56.7495L371.177 58.59L365.165 48.5286Z" fill="white" fill-opacity="0.1"/>
<path d="M366.76 47.9146L371.177 58.5895L365.165 48.5281L366.76 47.9146Z" fill="black" fill-opacity="0.2"/>
<path d="M371.177 58.5895L367.251 68.2829L366.269 56.749L371.177 58.5895Z" fill="black" fill-opacity="0.55"/>
<path d="M366.269 56.749L367.251 68.2829L363.202 66.8105L366.269 56.749Z" fill="black" fill-opacity="0.25"/>
<path d="M358.907 74.0496L353.385 73.068L367.25 68.2827L358.907 74.0496Z" fill="black" fill-opacity="0.6"/>
<path d="M367.25 68.2827L353.385 73.068L363.201 66.8103L367.25 68.2827Z" fill="black" fill-opacity="0.5"/>
<path d="M363.201 66.8103L353.385 73.068L349.827 66.8103H363.201Z" fill="black" fill-opacity="0.4"/>
<path d="M347.864 72.8228L344.796 68.7737L353.385 73.0682L347.864 72.8228Z" fill="black" fill-opacity="0.7"/>
<path d="M349.827 66.8103L344.796 68.7735L353.385 73.068L349.827 66.8103Z" fill="black" fill-opacity="0.5"/>
<path d="M340.747 64.8481V60.6763L341.483 58.345L344.796 68.7745L340.747 64.8481Z" fill="black" fill-opacity="0.7"/>
<path d="M344.306 49.8779L341.484 58.3443L340.747 60.6756L340.011 54.6632L344.306 49.8779Z" fill="black" fill-opacity="0.6"/>
<path d="M349.828 66.8113L341.484 58.345L344.797 68.7745L349.828 66.8113Z" fill="black" fill-opacity="0.4"/>
<path d="M351.055 58.7131L341.484 58.345L349.828 66.8113L351.055 58.7131Z" fill="black" fill-opacity="0.15"/>
<path d="M366.269 56.7495L354.49 48.5286L357.803 58.2219L366.269 56.7495Z" fill="black" fill-opacity="0.05"/>
<path d="M366.269 56.7495L354.49 48.5286H365.165L366.269 56.7495Z" fill="white" fill-opacity="0.05"/>
<path d="M349.827 66.8102L357.802 58.2212L363.201 66.8102H349.827Z" fill="black" fill-opacity="0.15"/>
<path d="M349.827 66.8102L351.054 58.712L357.802 58.2212L349.827 66.8102Z" fill="white" fill-opacity="0.15"/>
<path d="M279.431 13.9801L298.404 62.8123L306.209 44.7427L307.03 42.8573L319.996 10.878C319.996 10.878 324.964 -0.286362 337.471 4.74772C342.893 6.93041 344.935 11.1555 344.816 15.2731C344.739 17.9189 343.336 20.1892 342.486 22.6104C342.106 23.6949 341.685 24.7657 341.246 25.8279C331.099 50.3721 309.036 98.7041 309.036 98.7041C309.036 98.7041 305.496 105.115 297.552 104.721C289.608 104.328 286.304 97.8782 286.304 97.8782L281.663 86.7089L276.393 73.927L253.74 19.142C253.74 19.142 249.61 9.15253 261.723 3.6465C263.668 2.76267 266.277 2.98352 267.902 3.05271C276.396 3.4146 279.431 13.9801 279.431 13.9801Z" fill="#1AB5EB"/>
<path d="M286.304 97.8785L287.648 95.8457L296.509 102.04L295.648 102.427L299.047 104.75C299.047 104.75 290.659 105.378 286.304 97.8785Z" fill="#4584CD"/>
<path d="M307.155 101.137L308.73 98.7259L306.553 97.2867L307.135 96.3407L304.865 95.1359L307.089 93.9377L309.249 94.7134L310.42 95.6715L309.036 98.7043C309.036 98.7043 308.408 99.8644 307.155 101.137Z" fill="#1F73A4"/>
<path d="M295.647 102.427L299.046 104.75C299.046 104.75 303.906 104.642 307.154 101.136L308.729 98.7256L306.552 97.2864L295.992 101.674L296.508 102.04L295.647 102.427Z" fill="#3DB0E9"/>
<path d="M286.657 88.0166L288.206 96.2326L287.647 95.8455L286.304 97.8783C286.304 97.8783 284.485 94.2035 284.022 92.5296L286.657 88.0166Z" fill="#477ED2"/>
<path d="M282.057 87.7707L287.405 86.4729L286.658 88.0166L284.023 92.5296L282.057 87.7707Z" fill="#445BCB"/>
<path d="M277.809 77.3488L280.326 79.2759L285.95 76.6802L286.343 82.8941L284.77 83.0121L289.017 86.3944L287.405 86.473L282.056 87.7709L277.809 77.3488Z" fill="#4848CB"/>
<path d="M276.393 73.927L277.809 77.3486L280.326 79.2757L285.95 76.68L277.14 74.0843L276.393 73.927Z" fill="#4765D0"/>
<path d="M266.286 49.4253L272.441 52.37L284.338 59.0215L276.747 58.6282L277.888 59.5328L277.14 74.0844L276.393 73.9271L266.286 49.4253Z" fill="#438BDE"/>
<path d="M271.359 45.728L266.286 49.4249L272.441 52.3697L271.359 45.728Z" fill="#368AF3"/>
<path d="M262.195 39.6328L266.05 41.9139L270.258 44.7455L271.359 45.7288L266.286 49.4257L262.195 39.6328Z" fill="#4188F9"/>
<path d="M268.409 41.1663L267.74 43.0934L266.049 41.9135L268.409 41.1663Z" fill="#3155C7"/>
<path d="M268.409 41.1664L269.511 41.0091L274.663 40.4585L270.258 44.7453L267.741 43.0935L268.409 41.1664Z" fill="#3D8AF8"/>
<path d="M266.049 36.7612L267.976 37.1938L267.78 37.7051L269.903 37.9411L269.431 38.8457L270.886 39.9075L269.51 41.0087L268.409 41.166L266.049 41.9133L264.358 40.9694L266.049 36.7612Z" fill="#4D8BFE"/>
<path d="M261.369 37.3512L266.049 36.7612L264.358 40.9694L262.195 39.6322L261.369 37.3512Z" fill="#4D70FB"/>
<path d="M267.012 36.643L264.83 31.5303L261.369 37.3509L267.012 36.643Z" fill="#416DFC"/>
<path d="M257.083 27.3223L264.831 31.5305L261.37 37.3511L257.083 27.3223Z" fill="#3F70FE"/>
<path d="M257.083 27.3226L257.909 27.7946L263.376 21.4233L264.831 31.5309L257.083 27.3226Z" fill="#3A5CFF"/>
<path d="M254.742 21.3835L263.374 21.4229L257.908 27.7941L257.082 27.3222L254.742 21.3835Z" fill="#4332FF"/>
<path d="M254.713 8.93166L255.313 21.3055L254.743 21.3841C254.743 21.3841 251 15.2166 254.713 8.93164L254.713 8.93166Z" fill="#641BDC"/>
<path d="M266.128 9.23155L259.836 14.4623L262.707 17.7659L255.313 21.3055L254.712 8.93164L262.614 9.13922L266.128 9.23155Z" fill="#641AF5"/>
<path d="M264.766 2.8689L262.6 9.14347L254.712 8.93139C254.712 8.93139 257.858 3.74298 264.766 2.8689Z" fill="#3A00FD"/>
<path d="M266.128 9.23115L262.6 9.14333L264.766 2.86879L267.033 2.85938L270.622 8.8974L266.128 9.23115Z" fill="#5826FF"/>
<path d="M270.622 8.89722L277.18 9.30964L272.303 11.748L266.128 9.23097L270.622 8.89722Z" fill="#3D64FF"/>
<path d="M277.181 9.30954L272.304 11.7479L267.034 2.85962C267.034 2.85962 274.231 2.85963 277.181 9.30954Z" fill="#3F54FC"/>
<path d="M272.303 11.7483L280.798 17.333L280.129 15.7598L272.303 11.7483Z" fill="#1B53C6"/>
<path d="M272.303 11.748L266.128 9.23096L274.309 25.1591L272.303 11.748Z" fill="#269AF2"/>
<path d="M280.798 17.333L275.252 24.9234L274.308 25.1594L272.303 11.7483L280.798 17.333Z" fill="#2879FF"/>
<path d="M275.253 24.9235L280.798 17.333L283.748 24.5695L275.253 24.9235Z" fill="#1C96F6"/>
<path d="M287.061 32.8977L278.163 32.5142L275.253 24.9238L283.748 24.5698L287.061 32.8977Z" fill="#1496E9"/>
<path d="M288.979 40.9694V37.8231L287.524 34.1262L281.585 41.5987L288.979 40.9694Z" fill="#1C94AD"/>
<path d="M288.979 40.9697L287.012 44.6666L284.928 48.2455L281.585 41.599L288.979 40.9697Z" fill="#1F91B5"/>
<path d="M290.788 42.5823L288.979 42.7396V37.8235L290.788 42.5823Z" fill="#1D2D89"/>
<path d="M292.478 47.105L287.012 44.6666L288.978 40.9697V42.7395L290.787 42.5822L292.478 47.105Z" fill="#2991B5"/>
<path d="M294.328 52.0994L292.479 47.1046L287.012 44.6663L285.833 46.7114L290.513 55.4817L294.328 52.0994Z" fill="#2379B2"/>
<path d="M296.136 56.9375L290.197 60.3985L290.512 55.4824L294.327 52.1001L296.136 56.9375Z" fill="#1B408C"/>
<path d="M298.404 62.8123L296.333 65.9433L296.884 58.7068L298.404 62.8123Z" fill="#24309A"/>
<path d="M302.17 54.1218L306.536 56.291L307.259 56.4578L302.587 59.6003L301.975 59.211L302.226 62.6594L295.607 66.9977L298.404 62.8121L302.17 54.1218Z" fill="#347BBE"/>
<path d="M302.169 54.1218L310.294 45.1775L309.177 47.0025L309.622 47.4474L310.067 46.8634L309.233 51.0071L309.122 50.1172L308.51 51.6745L307.843 51.758L306.536 56.2909L302.169 54.1218Z" fill="#3477BE"/>
<path d="M317.334 29.4858L315.839 36.565L313.873 33.6154L317.334 29.4858Z" fill="#3F61B8"/>
<path d="M309.705 36.1318L315.84 36.5645L315.014 36.9578L312.93 44.5482L311.947 44.0369L310.93 45.6572L309.705 36.1318Z" fill="#3C6BBB"/>
<path d="M314.713 23.4477L322.5 19.4988L329.645 25.7098L314.713 23.4477Z" fill="#3972BF"/>
<path d="M322.5 19.4991L326.282 12.7135L325.461 4.98242C325.461 4.98242 322.555 5.98357 320.108 10.7112L314.713 23.448L322.5 19.4991Z" fill="#3B61BB"/>
<path d="M334.089 9.58526L326.281 12.7135L325.46 4.98242L334.089 9.58526Z" fill="#3B61BB"/>
<path d="M333.873 3.59208L339.463 13.5201L334.089 9.58539L325.46 4.98256C325.46 4.98256 328.784 2.98027 333.873 3.59208Z" fill="#3A76BE"/>
<path d="M340.685 6.58132L339.462 13.5198L333.872 3.5918C333.872 3.5918 336.597 3.70304 340.685 6.58132Z" fill="#3B8EBF"/>
<path d="M340.686 6.58154L339.462 13.52L342.923 17.0191L344.26 18.206C344.26 18.206 347.193 12.2964 340.686 6.58154Z" fill="#4498C3"/>
<path d="M314.713 23.4482L321.544 24.2551L321.662 28.7386L314.713 23.4482Z" fill="#3B65BB"/>
<path d="M312.144 30.1544L317.335 29.4858L321.661 28.7386L314.712 23.4482L312.144 30.1544Z" fill="#3A51BB"/>
<path d="M321.661 28.738L315.84 36.5645L317.334 29.4853L321.661 28.738Z" fill="#2E78BD"/>
<path d="M317.335 29.4858L313.874 33.6154L312.144 30.1544L317.335 29.4858Z" fill="#3C49B0"/>
<path d="M312.143 30.1538L313.874 33.6147L309.705 36.1318L312.143 30.1538Z" fill="#3441B2"/>
<path d="M305.103 47.1439L310.294 45.1775L302.169 54.1218L305.103 47.1439Z" fill="#415EAF"/>
<path d="M307.03 42.8572L310.294 45.1776L305.103 47.144L307.03 42.8572Z" fill="#37539E"/>
<path d="M309.705 36.1318L310.93 45.6572L307.03 42.8571L309.705 36.1318Z" fill="#384EAB"/>
<path d="M315.84 36.5644L313.874 33.6147L309.705 36.1318L315.84 36.5644Z" fill="#3F61B8"/>
<path d="M340.685 6.58132L339.462 13.5198L333.872 3.5918C333.872 3.5918 337.376 4.06454 340.685 6.58132Z" fill="#398BBC"/>
<path d="M296.883 58.7071L296.333 65.9435L291.767 59.4091L296.136 56.9373L296.883 58.7071Z" fill="#1E2896"/>
<path d="M287.524 34.1261L281.585 41.5986L279.95 32.5137L287.061 32.8971L287.524 34.1261Z" fill="#2397C5"/>
<path d="M272.303 11.7482L280.129 15.7597C280.129 15.7597 278.202 10.2537 277.179 9.30981L272.303 11.7482Z" fill="#236BFE"/>
<path d="M264.83 31.5304L267.012 36.6431L276.834 30.2889L275.252 24.9231L273.561 20.8329L266.127 9.23096L259.835 14.4617L262.706 17.7653L254.742 21.3835L263.374 21.4228L264.83 31.5304Z" fill="#279EF2"/>
<path d="M266.128 9.23096L272.303 11.748L273.562 20.8329L266.128 9.23096Z" fill="#269AF2"/>
<path d="M310.419 95.6709L304.864 95.1353L303.697 91.1084L308.381 80.4017L308.746 79.9758L316.168 81.8617L310.388 87.2759L310.419 95.6709Z" fill="#2599E0"/>
<path d="M310.42 95.6714L310.39 87.2764L316.169 81.8622L316.929 81.269L310.42 95.6714Z" fill="#2078AC"/>
<path d="M304.638 78.5107L308.746 79.9768L316.168 81.8627L316.928 81.2695L322.447 69.2192L320.812 69.6494L316.597 75.5856L311.908 77.0481L304.638 78.5107Z" fill="#2B8DDB"/>
<path d="M320.812 69.6484L316.597 75.5846L311.908 77.0472L304.638 78.5097L320.812 69.6484Z" fill="#2BA0DB"/>
<path d="M322.447 69.2182L326.491 59.8838L323.91 63.9703L315.178 67.7987L320.813 69.6484L322.447 69.2182Z" fill="#2A9FE3"/>
<path d="M326.49 59.8842L323.909 63.9707L313.757 67.1538L322.36 54.4211L326.49 59.8842Z" fill="#35A0D1"/>
<path d="M326.49 59.8838L323.909 63.9703L314.015 68.3149L313.757 67.1535L323.909 63.9703L326.49 59.8838Z" fill="#35B8D1"/>
<path d="M326.491 59.8843L321.028 52.7867L329.717 52.7007L326.491 59.8843Z" fill="#3FA6E7"/>
<path d="M329.717 52.7005L321.028 52.7866L322.103 50.8939L327.695 46.8074L326.792 42.3337L333.33 44.4415L329.717 52.7005Z" fill="#35A1D2"/>
<path d="M333.329 44.4415L326.791 42.3337L335.265 39.9248L333.329 44.4415Z" fill="#349FE4"/>
<path d="M335.265 39.9248L336.426 37.1287L330.576 30.1602L326.791 42.3336L335.265 39.9248Z" fill="#32A0BF"/>
<path d="M336.427 37.1286L339.783 29.4287L330.577 30.16L336.427 37.1286Z" fill="#35A0D8"/>
<path d="M339.783 29.4292L341.46 25.3427L339.094 25.7298L338.535 22.5466L330.577 30.1604L339.783 29.4292Z" fill="#30A0BA"/>
<path d="M341.46 25.3428L339.094 25.73L338.535 22.5468L340.084 20.6111L342.105 23.7082L341.46 25.3428Z" fill="#2B8BAD"/>
<path d="M342.105 23.7082L340.083 20.6111L343.826 19.2776L342.105 23.7082Z" fill="#448FAE"/>
<path d="M343.826 19.2774L344.26 18.2059L342.923 17.019L343.826 19.2774Z" fill="#287296"/>
<path d="M343.826 19.2774L340.083 20.6109L342.923 17.019L343.826 19.2774Z" fill="#47A4B7"/>
<path d="M342.923 17.0188L339.462 13.5198L339.833 18.5342L340.084 20.6106L342.923 17.0188Z" fill="#3391C0"/>
<path d="M338.535 22.5463L335.453 21.6671L339.833 18.5342L340.084 20.6106L338.535 22.5463Z" fill="#3493C2"/>
<path d="M244.376 20.483C242.229 20.4869 240.382 20.6208 238.837 20.9192C237.291 21.2176 233.156 22.6168 234.587 25.4817C235.601 26.6827 234.566 24.4686 235.242 23.9429L236.055 24.7523C236.01 24.642 235.97 24.5341 235.942 24.4299C235.751 23.725 235.939 23.1939 236.409 22.7843C236.879 22.3748 237.687 22.038 238.969 21.7903C240.252 21.5426 241.962 21.4065 244.005 21.4028C248.092 21.3954 253.515 21.9035 259.834 22.8804C272.471 24.8343 288.715 28.654 305.511 33.8682C322.308 39.0824 336.48 44.7052 345.786 49.5633C350.439 51.9923 353.874 54.2336 355.803 56.1083C356.767 57.0457 357.233 59.012 357.424 59.7169C357.503 60.0112 357.513 60.2735 357.468 60.5108L358.648 60.8699C358.884 60.3827 359.295 59.6704 359.152 59.1398C359.003 57.8742 358.196 56.4873 357.183 55.5024C355.157 53.5327 351.662 51.2654 346.962 48.8114C337.56 43.9033 323.333 38.2638 306.473 33.0299C289.613 27.796 273.315 23.9596 260.548 21.9856C254.165 20.9986 248.67 20.4752 244.376 20.483Z" fill="#CCCCCC"/>
<path d="M244.375 20.483C242.228 20.4869 240.382 20.6208 238.837 20.9192C237.291 21.2176 235.569 23.3566 234.762 24.0606C234.121 24.6193 235.215 24.3204 235.249 24.9822L236.055 24.7523C236.009 24.642 235.97 24.5341 235.941 24.4299C235.751 23.725 235.939 23.1939 236.409 22.7843C236.878 22.3748 237.686 22.038 238.969 21.7903C240.252 21.5426 241.961 21.4065 244.005 21.4028C248.092 21.3954 253.515 21.9035 259.834 22.8804C272.471 24.8343 288.715 28.654 305.511 33.8682C322.308 39.0824 336.48 44.7052 345.786 49.5633C350.439 51.9923 353.874 54.2336 355.802 56.1083C356.767 57.0457 358.395 58.4984 358.585 59.2033C358.664 59.4976 358.674 59.7599 358.629 59.9972L358.551 60.966C358.788 60.4788 359.146 60.1922 359.003 59.6616C358.774 58.8124 358.196 56.4873 357.183 55.5024C355.157 53.5327 351.662 51.2654 346.961 48.8114C337.56 43.9033 323.333 38.2638 306.473 33.0299C289.613 27.796 273.315 23.9596 260.548 21.9856C254.164 20.9986 248.669 20.4752 244.375 20.483Z" fill="#CCCCCC"/>
<path d="M244.375 21.1058C242.228 21.1097 240.382 21.2436 238.837 21.542C237.291 21.8404 235.998 22.3247 235.19 23.0287C234.549 23.5874 234.717 25.2066 234.751 25.8685L236.055 25.3751C236.009 25.2648 235.97 25.1569 235.941 25.0527C235.751 24.3478 235.939 23.8167 236.409 23.4071C236.878 22.9976 237.686 22.6608 238.969 22.4131C240.252 22.1654 241.961 22.0293 244.005 22.0256C248.092 22.0182 253.515 22.5263 259.834 23.5032C272.471 25.4571 288.715 29.2768 305.511 34.491C322.308 39.7052 336.48 45.328 345.786 50.1861C350.439 52.6151 353.874 54.8564 355.802 56.7311C356.766 57.6685 357.217 59.0306 357.407 59.7355C357.486 60.0298 357.496 60.2921 357.451 60.5294L358.551 60.9659C358.788 60.4786 359.086 59.9132 358.943 59.3827C358.714 58.5335 358.196 57.1101 357.183 56.1252C355.157 54.1555 351.662 51.8882 346.961 49.4342C337.56 44.5261 323.333 38.8866 306.473 33.6527C289.613 28.4188 273.315 24.5824 260.548 22.6084C254.164 21.6214 248.669 21.098 244.375 21.1058Z" fill="url(#paint6_linear)"/>
<defs>
<linearGradient id="paint0_linear" x1="506.689" y1="25.3242" x2="553.189" y2="84.3242" gradientUnits="userSpaceOnUse">
<stop stop-color="white" stop-opacity="0"/>
<stop offset="0.810358" stop-opacity="0.2"/>
</linearGradient>
<linearGradient id="paint1_linear" x1="492.689" y1="19.3242" x2="528.689" y2="61.8242" gradientUnits="userSpaceOnUse">
<stop stop-color="white" stop-opacity="0.2"/>
<stop offset="0.834152" stop-opacity="0.24"/>
</linearGradient>
<linearGradient id="paint2_linear" x1="412.189" y1="17.3242" x2="472.189" y2="61.3242" gradientUnits="userSpaceOnUse">
<stop stop-color="white" stop-opacity="0"/>
<stop offset="0.914263" stop-opacity="0.2"/>
</linearGradient>
<linearGradient id="paint3_linear" x1="382.189" y1="28.8242" x2="438.189" y2="65.8242" gradientUnits="userSpaceOnUse">
<stop stop-color="white" stop-opacity="0"/>
<stop offset="0.88409" stop-opacity="0.2"/>
</linearGradient>
<linearGradient id="paint4_linear" x1="356.689" y1="25.3242" x2="396.019" y2="41.1749" gradientUnits="userSpaceOnUse">
<stop stop-color="white" stop-opacity="0"/>
<stop offset="1" stop-opacity="0.24"/>
<stop offset="1" stop-opacity="0.2"/>
</linearGradient>
<linearGradient id="paint5_linear" x1="234.389" y1="42.8274" x2="359.003" y2="42.8274" gradientUnits="userSpaceOnUse">
<stop stop-color="#CCCCCC"/>
<stop offset="1" stop-color="#CCCCCC" stop-opacity="0"/>
</linearGradient>
<linearGradient id="paint6_linear" x1="234.687" y1="24.3762" x2="360.001" y2="60.3882" gradientUnits="userSpaceOnUse">
<stop stop-color="#C5C5C5"/>
<stop offset="1" stop-color="#555555"/>
</linearGradient>
</defs>
</svg>
