<svg width="417" height="106" viewBox="0 0 417 106" fill="none" xmlns="http://www.w3.org/2000/svg">
<path d="M140.185 103.601C135.866 103.601 132.589 102.433 130.353 100.095C128.118 97.7073 127 94.2015 127 89.5779V18.2426C127 13.5174 128.194 9.93538 130.582 7.49657C133.021 5.00694 136.603 3.76213 141.328 3.76213H178.672C183.398 3.76213 186.98 5.00694 189.418 7.49657C191.857 9.93538 193.077 13.5174 193.077 18.2426C193.077 23.0186 191.857 26.6514 189.418 29.1411C186.98 31.6307 183.398 32.8755 178.672 32.8755H158.4V39.3536H170.746C175.522 39.3536 179.13 40.5222 181.569 42.8594C184.007 45.1458 185.227 48.55 185.227 53.0719C185.227 57.5431 184.007 60.9219 181.569 63.2082C179.13 65.4438 175.522 66.5616 170.746 66.5616H158.4V74.4878H178.672C183.398 74.4878 186.98 75.758 189.418 78.2984C191.857 80.788 193.077 84.4971 193.077 89.4255C193.077 94.0999 191.857 97.6311 189.418 100.019C186.98 102.407 183.398 103.601 178.672 103.601H140.185Z" fill="#1AB5EB"/>
<path d="M220.361 103.601C216.042 103.601 212.765 102.433 210.529 100.095C208.294 97.7073 207.176 94.2015 207.176 89.5779V18.2426C207.176 13.5174 208.37 9.93538 210.758 7.49657C213.197 5.00694 216.779 3.76213 221.504 3.76213H258.848C263.574 3.76213 267.156 5.00694 269.594 7.49657C272.033 9.93538 273.253 13.5174 273.253 18.2426C273.253 23.0186 272.033 26.6514 269.594 29.1411C267.156 31.6307 263.574 32.8755 258.848 32.8755H238.576V39.3536H250.922C255.698 39.3536 259.306 40.5222 261.745 42.8594C264.183 45.1458 265.403 48.55 265.403 53.0719C265.403 57.5431 264.183 60.9219 261.745 63.2082C259.306 65.4438 255.698 66.5616 250.922 66.5616H238.576V74.4878H258.848C263.574 74.4878 267.156 75.758 269.594 78.2984C272.033 80.788 273.253 84.4971 273.253 89.4255C273.253 94.0999 272.033 97.6311 269.594 100.019C267.156 102.407 263.574 103.601 258.848 103.601H220.361Z" fill="#1AB5EB"/>
<path d="M355.563 3C360.745 3 364.658 4.37183 367.3 7.1155C369.992 9.85917 371.339 13.8731 371.339 19.1572V91.6357C371.339 96.0052 370.043 99.3586 367.452 101.696C364.861 103.982 361.533 105.125 357.468 105.125C351.269 105.125 346.57 102.966 343.369 98.6473L319.514 66.1806V88.892C319.514 94.1761 318.142 98.2154 315.398 101.01C312.655 103.754 308.641 105.125 303.357 105.125C298.124 105.125 294.135 103.754 291.391 101.01C288.699 98.2662 287.352 94.2269 287.352 88.892V17.7853C287.352 14.9908 288.013 12.4758 289.334 10.2402C290.705 7.95384 292.585 6.17554 294.973 4.90533C297.361 3.63511 300.029 3 302.976 3C305.973 3 308.565 3.50809 310.749 4.52426C312.934 5.54043 314.84 7.14091 316.465 9.32568L339.177 39.7347V19.1572C339.177 13.8222 340.549 9.80836 343.292 7.1155C346.087 4.37183 350.177 3 355.563 3Z" fill="#1AB5EB"/>
<path fill-rule="evenodd" clip-rule="evenodd" d="M323.512 71.6219L319.514 66.1806V74.2455C309.255 80.8481 298.488 86.3802 287.426 90.9822C287.377 90.3091 287.352 89.6124 287.352 88.892V17.7853C287.352 14.9908 288.013 12.4758 289.334 10.2402C290.705 7.95384 292.585 6.17554 294.973 4.90533C297.361 3.63511 300.029 3 302.976 3C305.973 3 308.565 3.50809 310.749 4.52426C312.934 5.54043 314.84 7.14091 316.465 9.32568L339.177 39.7347V19.1572C339.177 13.8222 340.549 9.80836 343.292 7.1155C346.087 4.37183 350.177 3 355.563 3C360.745 3 364.658 4.37183 367.3 7.1155C369.992 9.85917 371.339 13.8731 371.339 19.1572V44.5548C356.124 51.8375 340.076 60.7551 323.512 71.6219ZM271.844 96.8064C272.783 94.7863 273.253 92.326 273.253 89.4255C273.253 84.4971 272.033 80.788 269.594 78.2984C267.156 75.758 263.574 74.4878 258.848 74.4878H238.576V66.5616H250.922C255.698 66.5616 259.306 65.4438 261.745 63.2082C264.183 60.9219 265.403 57.5431 265.403 53.0719C265.403 48.55 264.183 45.1458 261.745 42.8594C259.306 40.5222 255.698 39.3536 250.922 39.3536H238.576V32.8755H258.848C263.574 32.8755 267.156 31.6307 269.594 29.1411C272.033 26.6514 273.253 23.0186 273.253 18.2426C273.253 13.5174 272.033 9.93538 269.594 7.49657C267.156 5.00694 263.574 3.76213 258.848 3.76213H221.504C216.779 3.76213 213.197 5.00694 210.758 7.49657C208.37 9.93538 207.176 13.5174 207.176 18.2426V89.5779C207.176 94.2015 208.294 97.7073 210.529 100.095C212.765 102.433 216.042 103.601 220.361 103.601H247.467C255.64 101.742 263.791 99.4945 271.844 96.8064ZM140.185 103.601C135.866 103.601 132.589 102.433 130.353 100.095C128.118 97.7073 127 94.2015 127 89.5779V18.2426C127 13.5174 128.194 9.93538 130.582 7.49657C133.021 5.00694 136.603 3.76213 141.328 3.76213H178.672C183.398 3.76213 186.98 5.00694 189.418 7.49657C191.857 9.93538 193.077 13.5174 193.077 18.2426C193.077 23.0186 191.857 26.6514 189.418 29.1411C186.98 31.6307 183.398 32.8755 178.672 32.8755H158.4V39.3536H170.746C175.522 39.3536 179.13 40.5222 181.569 42.8594C184.007 45.1458 185.227 48.55 185.227 53.0719C185.227 57.5431 184.007 60.9219 181.569 63.2082C179.13 65.4438 175.522 66.5616 170.746 66.5616H158.4V74.4878H178.672C183.398 74.4878 186.98 75.758 189.418 78.2984C191.857 80.788 193.077 84.4971 193.077 89.4255C193.077 94.0999 191.857 97.6311 189.418 100.019C186.98 102.407 183.398 103.601 178.672 103.601H140.185Z" fill="url(#paint0_linear)" fill-opacity="0.5"/>
<path fill-rule="evenodd" clip-rule="evenodd" d="M266.853 76.223C249.705 86.8117 230.99 95.1064 211.137 100.679C210.926 100.493 210.724 100.299 210.529 100.095C208.294 97.7073 207.176 94.2015 207.176 89.5779V18.2426C207.176 13.5174 208.37 9.93539 210.758 7.49655C213.197 5.00696 216.779 3.76215 221.504 3.76215H258.848C263.574 3.76215 267.156 5.00696 269.594 7.49655C272.033 9.93539 273.253 13.5174 273.253 18.2426C273.253 23.0186 272.033 26.6514 269.594 29.1411C267.156 31.6307 263.574 32.8755 258.848 32.8755H238.576V39.3536H250.922C255.698 39.3536 259.306 40.5222 261.745 42.8594C264.183 45.1458 265.403 48.55 265.403 53.0719C265.403 57.5431 264.183 60.9219 261.745 63.2083C259.306 65.4438 255.698 66.5616 250.922 66.5616H238.576V74.4878H258.848C262.037 74.4878 264.705 75.0662 266.853 76.223ZM326.247 22.4221C314.993 37.1585 301.916 50.4278 287.352 61.8929V17.7853C287.352 14.9908 288.013 12.4758 289.334 10.2402C290.705 7.95386 292.585 6.17554 294.973 4.90533C297.361 3.6351 300.029 3 302.976 3C305.973 3 308.565 3.50809 310.749 4.52426C312.934 5.54044 314.84 7.1409 316.465 9.32568L326.247 22.4221ZM140.185 103.601C135.866 103.601 132.589 102.433 130.353 100.095C128.118 97.7073 127 94.2015 127 89.5779V18.2426C127 13.5174 128.194 9.93539 130.582 7.49655C133.021 5.00696 136.603 3.76215 141.328 3.76215H178.672C183.398 3.76215 186.98 5.00696 189.418 7.49655C191.857 9.93539 193.077 13.5174 193.077 18.2426C193.077 23.0186 191.857 26.6514 189.418 29.1411C186.98 31.6307 183.398 32.8755 178.672 32.8755H158.4V39.3536H170.746C175.522 39.3536 179.13 40.5222 181.569 42.8594C184.007 45.1458 185.227 48.55 185.227 53.0719C185.227 57.5431 184.007 60.9219 181.569 63.2083C179.13 65.4438 175.522 66.5616 170.746 66.5616H158.4V74.4878H178.672C183.398 74.4878 186.98 75.758 189.418 78.2984C191.857 80.7881 193.077 84.4971 193.077 89.4255C193.077 94.0999 191.857 97.6311 189.418 100.019C186.98 102.407 183.398 103.601 178.672 103.601H140.185Z" fill="url(#paint1_linear)" fill-opacity="0.5"/>
<path fill-rule="evenodd" clip-rule="evenodd" d="M192.893 92.3986C179.975 97.9448 166.145 101.775 151.691 103.601H140.185C135.866 103.601 132.589 102.433 130.353 100.095C128.118 97.7074 127 94.2016 127 89.578V18.2427C127 13.5175 128.194 9.93546 130.582 7.49664C133.021 5.00702 136.603 3.76221 141.328 3.76221H178.672C183.398 3.76221 186.98 5.00702 189.418 7.49664C191.857 9.93546 193.077 13.5175 193.077 18.2427C193.077 23.0187 191.857 26.6515 189.418 29.1411C186.98 31.6308 183.398 32.8756 178.672 32.8756H158.4V39.3537H170.746C175.522 39.3537 179.13 40.5223 181.569 42.8595C184.007 45.1458 185.227 48.55 185.227 53.072C185.227 57.5432 184.007 60.922 181.569 63.2083C179.13 65.4439 175.522 66.5617 170.746 66.5617H158.4V74.4878H178.672C183.398 74.4878 186.98 75.7581 189.418 78.2985C191.857 80.7881 193.077 84.4971 193.077 89.4256C193.077 90.4741 193.015 91.4651 192.893 92.3986ZM257.52 40.3343C244.303 58.8072 227.103 74.2362 207.176 85.3664V18.2427C207.176 13.5175 208.37 9.93546 210.758 7.49664C213.197 5.00702 216.779 3.76221 221.504 3.76221H258.848C263.574 3.76221 267.156 5.00702 269.594 7.49664C271.182 9.08369 272.252 11.1548 272.806 13.7101C269.88 20.2436 266.512 26.536 262.74 32.5492C261.542 32.7668 260.245 32.8756 258.848 32.8756H238.576V39.3537H250.922C253.448 39.3537 255.647 39.6806 257.52 40.3343Z" fill="url(#paint2_linear)" fill-opacity="0.5"/>
<path fill-rule="evenodd" clip-rule="evenodd" d="M187.517 76.7224C172.247 90.0896 152.936 98.9529 131.655 101.239C131.188 100.895 130.754 100.514 130.353 100.095C128.118 97.7074 127 94.2016 127 89.578V18.2427C127 13.5175 128.194 9.93546 130.582 7.49664C133.021 5.00702 136.603 3.76221 141.328 3.76221H178.672C183.398 3.76221 186.98 5.00702 189.418 7.49664C191.857 9.93546 193.077 13.5175 193.077 18.2427C193.077 23.0187 191.857 26.6515 189.418 29.1411C186.98 31.6308 183.398 32.8756 178.672 32.8756H158.4V39.3537H170.746C175.522 39.3537 179.13 40.5223 181.569 42.8595C184.007 45.1458 185.227 48.55 185.227 53.072C185.227 57.5432 184.007 60.9219 181.569 63.2083C179.13 65.4439 175.522 66.5617 170.746 66.5617H158.4V74.4878H178.672C182.291 74.4878 185.239 75.2327 187.517 76.7224ZM222.132 3.76221C221.527 21.9525 216.135 38.9305 207.176 53.477V18.2427C207.176 13.5175 208.37 9.93546 210.758 7.49664C213.197 5.00702 216.779 3.76221 221.504 3.76221H222.132Z" fill="url(#paint3_linear)" fill-opacity="0.5"/>
<path fill-rule="evenodd" clip-rule="evenodd" d="M173.347 32.8756C173.902 29.273 174.189 25.5822 174.189 21.8243C174.189 15.5865 173.396 9.53405 171.905 3.76221H141.328C136.603 3.76221 133.021 5.00702 130.582 7.49664C128.194 9.93546 127 13.5175 127 18.2427V89.4354C139.437 84.8702 150.264 76.9714 158.4 66.8218V66.5617H158.607C164.868 58.6774 169.51 49.4507 172.033 39.3833C171.614 39.3635 171.185 39.3537 170.746 39.3537H158.4V32.8756H173.347Z" fill="url(#paint4_linear)" fill-opacity="0.5"/>
<path d="M84.4739 33.6528C67.6139 28.4189 51.3159 24.5828 38.5487 22.6088C32.165 21.6218 26.67 21.0985 22.3759 21.1063C20.2289 21.1102 18.3827 21.244 16.8374 21.5424C15.2921 21.8408 13.9984 22.3249 13.1908 23.0289C12.3832 23.733 12.1786 24.5551 12.4076 25.4043C12.6366 26.2535 13.2852 27.1638 14.2981 28.1487C16.3239 30.1184 19.8186 32.3857 24.5195 34.8397C33.9213 39.7478 48.1498 45.3881 65.0097 50.6219C81.8697 55.8558 98.1655 59.6912 110.933 61.6652C117.316 62.6522 122.811 63.1756 127.105 63.1677C129.252 63.1639 131.1 63.0285 132.646 62.7301C134.191 62.4317 135.485 61.9477 136.292 61.2436C137.1 60.5396 137.304 59.7174 137.075 58.8682C136.846 58.019 136.196 57.1102 135.183 56.1253C133.158 54.1556 129.663 51.8883 124.962 49.4343C115.56 44.5263 101.334 38.8867 84.4739 33.6528ZM83.512 34.4913C100.309 39.7056 114.481 45.3281 123.787 50.1862C128.44 52.6152 131.875 54.8568 133.803 56.7316C134.767 57.669 135.349 58.5162 135.539 59.2211C135.729 59.926 135.544 60.4557 135.074 60.8653C134.604 61.2748 133.794 61.613 132.512 61.8607C131.229 62.1084 129.519 62.2442 127.476 62.2479C123.389 62.2554 117.965 61.7471 111.647 60.7702C99.0095 58.8163 82.7682 54.9976 65.9716 49.7834C49.175 44.5692 35.0006 38.9459 25.6945 34.0879C21.0415 31.6588 17.6065 29.4172 15.6783 27.5425C14.7143 26.6051 14.1323 25.7578 13.9422 25.0529C13.7521 24.348 13.9397 23.8168 14.4095 23.4072C14.8793 22.9977 15.6872 22.661 16.9699 22.4134C18.2526 22.1657 19.9622 22.0298 22.0058 22.0261C26.0929 22.0187 31.5161 22.5269 37.8347 23.5039C50.4719 25.4577 66.7154 29.2771 83.512 34.4913Z" fill="#CCCCCC"/>
<path d="M14.1148 23.1106C13.5849 23.7353 12.214 24.0619 12.4078 24.7805C12.6368 25.6297 13.285 26.5404 14.2979 27.5253C16.3236 29.495 19.8182 31.7624 24.5191 34.2164C33.9209 39.1244 48.15 44.7645 65.0099 49.9984C81.8699 55.2323 98.1653 59.0676 110.933 61.0415C117.316 62.0285 122.811 62.552 127.105 62.5441C129.252 62.5402 131.101 62.4051 132.646 62.1067C134.191 61.8084 135.485 61.324 136.292 60.62C136.637 60.3198 136.865 59.9972 137.003 59.6612L135.604 59.2445C135.57 59.6406 135.387 59.9686 135.074 60.2416C134.604 60.6511 133.794 60.9891 132.511 61.2368C131.229 61.4845 129.519 61.6206 127.476 61.6243C123.389 61.6317 117.965 61.1236 111.647 60.1467C99.0095 58.1928 82.7683 54.3737 65.9717 49.1595C49.1751 43.9453 35.0005 38.3225 25.6944 33.4645C21.0414 31.0355 17.6063 28.7935 15.6782 26.9188C14.7141 25.9814 14.1321 25.1344 13.942 24.4295C13.7989 23.8989 13.8706 23.4666 14.1148 23.1106Z" fill="url(#paint5_linear)"/>
<path fill-rule="evenodd" clip-rule="evenodd" d="M125.374 44.9703L134.085 42.7617L144.76 47.9151L149.178 58.5901L145.251 68.2834L136.908 74.0503L131.386 73.0687L125.865 72.8233L122.797 68.7742L118.748 64.8478V60.676L118.012 54.6637L122.306 49.8783L125.374 44.9703Z" fill="#D54049"/>
<path d="M129.054 58.7444L132.49 48.5603L126.708 52.9413L129.054 58.7444Z" fill="white" fill-opacity="0.1"/>
<path d="M132.49 48.5283L125.373 44.97L122.306 49.878L132.49 48.5283Z" fill="black" fill-opacity="0.15"/>
<path d="M119.484 58.3446L132.49 48.5286L122.306 49.8783L119.484 58.3446Z" fill="black" fill-opacity="0.25"/>
<path d="M132.49 48.5284L134.085 42.7615L125.374 44.9701L132.49 48.5284Z" fill="black" fill-opacity="0.3"/>
<path d="M132.49 48.5284L134.085 42.7615L143.165 48.5284H132.49Z" fill="black" fill-opacity="0.15"/>
<path d="M144.76 47.9149L143.165 48.5284L134.085 42.7615L144.76 47.9149Z" fill="black" fill-opacity="0.5"/>
<path d="M143.165 48.5286L144.269 56.7495L149.177 58.59L143.165 48.5286Z" fill="white" fill-opacity="0.1"/>
<path d="M144.76 47.9146L149.177 58.5895L143.165 48.5281L144.76 47.9146Z" fill="black" fill-opacity="0.2"/>
<path d="M149.177 58.5895L145.251 68.2829L144.269 56.749L149.177 58.5895Z" fill="black" fill-opacity="0.55"/>
<path d="M144.269 56.749L145.251 68.2829L141.202 66.8105L144.269 56.749Z" fill="black" fill-opacity="0.25"/>
<path d="M136.907 74.0496L131.385 73.068L145.25 68.2827L136.907 74.0496Z" fill="black" fill-opacity="0.6"/>
<path d="M145.25 68.2827L131.385 73.068L141.201 66.8103L145.25 68.2827Z" fill="black" fill-opacity="0.5"/>
<path d="M141.201 66.8103L131.385 73.068L127.827 66.8103H141.201Z" fill="black" fill-opacity="0.4"/>
<path d="M125.864 72.8228L122.796 68.7737L131.385 73.0682L125.864 72.8228Z" fill="black" fill-opacity="0.7"/>
<path d="M127.827 66.8103L122.796 68.7735L131.385 73.068L127.827 66.8103Z" fill="black" fill-opacity="0.5"/>
<path d="M118.747 64.8481V60.6763L119.483 58.345L122.796 68.7745L118.747 64.8481Z" fill="black" fill-opacity="0.7"/>
<path d="M122.306 49.8779L119.484 58.3443L118.747 60.6756L118.011 54.6632L122.306 49.8779Z" fill="black" fill-opacity="0.6"/>
<path d="M127.828 66.8113L119.484 58.345L122.797 68.7745L127.828 66.8113Z" fill="black" fill-opacity="0.4"/>
<path d="M129.055 58.7131L119.484 58.345L127.828 66.8113L129.055 58.7131Z" fill="black" fill-opacity="0.15"/>
<path d="M144.269 56.7495L132.49 48.5286L135.803 58.2219L144.269 56.7495Z" fill="black" fill-opacity="0.05"/>
<path d="M144.269 56.7495L132.49 48.5286H143.165L144.269 56.7495Z" fill="white" fill-opacity="0.05"/>
<path d="M127.827 66.8102L135.802 58.2212L141.201 66.8102H127.827Z" fill="black" fill-opacity="0.15"/>
<path d="M127.827 66.8102L129.054 58.712L135.802 58.2212L127.827 66.8102Z" fill="white" fill-opacity="0.15"/>
<path d="M57.4312 13.9801L76.404 62.8123L84.2094 44.7427L85.0302 42.8573L97.9957 10.878C97.9957 10.878 102.964 -0.286362 115.471 4.74772C120.893 6.93041 122.935 11.1555 122.816 15.2731C122.739 17.9189 121.336 20.1892 120.486 22.6104C120.106 23.6949 119.685 24.7657 119.246 25.8279C109.099 50.3721 87.036 98.7041 87.036 98.7041C87.036 98.7041 83.4964 105.115 75.552 104.721C67.6076 104.328 64.3039 97.8782 64.3039 97.8782L59.6632 86.7089L54.3931 73.927L31.7397 19.142C31.7397 19.142 27.6102 9.15253 39.7235 3.6465C41.6679 2.76267 44.2774 2.98352 45.9016 3.05271C54.3959 3.4146 57.4312 13.9801 57.4312 13.9801Z" fill="#1AB5EB"/>
<path d="M64.3042 97.8785L65.6475 95.8457L74.5088 102.04L73.6485 102.427L77.0467 104.75C77.0467 104.75 68.6586 105.378 64.3042 97.8785Z" fill="#4584CD"/>
<path d="M85.1553 101.137L86.7299 98.7259L84.5531 97.2867L85.135 96.3407L82.8647 95.1359L85.0894 93.9377L87.2489 94.7134L88.42 95.6715L87.0364 98.7043C87.0364 98.7043 86.4076 99.8644 85.1553 101.137Z" fill="#1F73A4"/>
<path d="M73.6475 102.427L77.0457 104.75C77.0457 104.75 81.9065 104.642 85.1542 101.136L86.7287 98.7256L84.552 97.2864L73.9916 101.674L74.5078 102.04L73.6475 102.427Z" fill="#3DB0E9"/>
<path d="M64.6575 88.0166L66.2061 96.2326L65.6469 95.8455L64.3035 97.8783C64.3035 97.8783 62.4846 94.2035 62.0225 92.5296L64.6575 88.0166Z" fill="#477ED2"/>
<path d="M60.0566 87.7707L65.4054 86.4729L64.6581 88.0166L62.0231 92.5296L60.0566 87.7707Z" fill="#445BCB"/>
<path d="M55.8086 77.3488L58.3256 79.2759L63.9496 76.6802L64.3429 82.8941L62.7698 83.0121L67.0173 86.3944L65.4048 86.473L60.0561 87.7709L55.8086 77.3488Z" fill="#4848CB"/>
<path d="M54.3931 73.927L55.8089 77.3486L58.3259 79.2757L63.95 76.68L55.1403 74.0843L54.3931 73.927Z" fill="#4765D0"/>
<path d="M44.2856 49.4253L50.4413 52.37L62.3375 59.0215L54.7471 58.6282L55.8876 59.5328L55.1404 74.0844L54.3931 73.9271L44.2856 49.4253Z" fill="#438BDE"/>
<path d="M49.3591 45.728L44.2856 49.4249L50.4413 52.3697L49.3591 45.728Z" fill="#368AF3"/>
<path d="M40.1953 39.6328L44.0495 41.9139L48.2577 44.7455L49.3589 45.7288L44.2855 49.4257L40.1953 39.6328Z" fill="#4188F9"/>
<path d="M46.409 41.1663L45.7404 43.0934L44.0493 41.9135L46.409 41.1663Z" fill="#3155C7"/>
<path d="M46.4093 41.1664L47.5105 41.0091L52.6626 40.4585L48.2578 44.7453L45.7407 43.0935L46.4093 41.1664Z" fill="#3D8AF8"/>
<path d="M44.0491 36.7612L45.9761 37.1938L45.7795 37.7051L47.9033 37.9411L47.4313 38.8457L48.8865 39.9075L47.51 41.0087L46.4088 41.166L44.0491 41.9133L42.3579 40.9694L44.0491 36.7612Z" fill="#4D8BFE"/>
<path d="M39.3687 37.3512L44.0488 36.7612L42.3576 40.9694L40.1946 39.6322L39.3687 37.3512Z" fill="#4D70FB"/>
<path d="M45.0123 36.643L42.8296 31.5303L39.3687 37.3509L45.0123 36.643Z" fill="#416DFC"/>
<path d="M35.083 27.3223L42.8308 31.5305L39.3698 37.3511L35.083 27.3223Z" fill="#3F70FE"/>
<path d="M35.083 27.3226L35.9089 27.7946L41.3756 21.4233L42.8308 31.5309L35.083 27.3226Z" fill="#3A5CFF"/>
<path d="M32.7417 21.3835L41.3744 21.4229L35.9077 27.7941L35.0818 27.3222L32.7417 21.3835Z" fill="#4332FF"/>
<path d="M32.7126 8.93166L33.3129 21.3055L32.7426 21.3841C32.7426 21.3841 29 15.2166 32.7126 8.93164L32.7126 8.93166Z" fill="#641BDC"/>
<path d="M44.1281 9.23155L37.8355 14.4623L40.7065 17.7659L33.3127 21.3055L32.7124 8.93164L40.6138 9.13922L44.1281 9.23155Z" fill="#641AF5"/>
<path d="M42.7656 2.8689L40.5999 9.14347L32.7124 8.93139C32.7124 8.93139 35.8577 3.74298 42.7656 2.8689Z" fill="#3A00FD"/>
<path d="M44.1283 9.23115L40.6001 9.14333L42.7658 2.86879L45.0329 2.85938L48.6219 8.8974L44.1283 9.23115Z" fill="#5826FF"/>
<path d="M48.622 8.89722L55.1798 9.30964L50.303 11.748L44.1284 9.23097L48.622 8.89722Z" fill="#3D64FF"/>
<path d="M55.1805 9.30954L50.3037 11.7479L45.0337 2.85962C45.0337 2.85962 52.2309 2.85963 55.1805 9.30954Z" fill="#3F54FC"/>
<path d="M50.3027 11.7483L58.7977 17.333L58.1292 15.7598L50.3027 11.7483Z" fill="#1B53C6"/>
<path d="M50.303 11.748L44.1284 9.23096L52.3088 25.1591L50.303 11.748Z" fill="#269AF2"/>
<path d="M58.7977 17.333L53.2524 24.9234L52.3085 25.1594L50.3027 11.7483L58.7977 17.333Z" fill="#2879FF"/>
<path d="M53.2529 24.9235L58.7983 17.333L61.748 24.5695L53.2529 24.9235Z" fill="#1C96F6"/>
<path d="M65.0614 32.8977L56.1633 32.5142L53.2529 24.9238L61.7479 24.5698L65.0614 32.8977Z" fill="#1496E9"/>
<path d="M66.9788 40.9694V37.8231L65.5236 34.1262L59.585 41.5987L66.9788 40.9694Z" fill="#1C94AD"/>
<path d="M66.9788 40.9697L65.0123 44.6666L62.9279 48.2455L59.585 41.599L66.9788 40.9697Z" fill="#1F91B5"/>
<path d="M68.7876 42.5823L66.9785 42.7396V37.8235L68.7876 42.5823Z" fill="#1D2D89"/>
<path d="M70.4784 47.105L65.0117 44.6666L66.9781 40.9697V42.7395L68.7873 42.5822L70.4784 47.105Z" fill="#2991B5"/>
<path d="M72.3275 52.0994L70.4791 47.1046L65.0124 44.6663L63.8325 46.7114L68.5126 55.4817L72.3275 52.0994Z" fill="#2379B2"/>
<path d="M74.1359 56.9375L68.1973 60.3985L68.5119 55.4824L72.3268 52.1001L74.1359 56.9375Z" fill="#1B408C"/>
<path d="M76.4042 62.8123L74.333 65.9433L74.8836 58.7068L76.4042 62.8123Z" fill="#24309A"/>
<path d="M80.17 54.1218L84.5361 56.291L85.2592 56.4578L80.5872 59.6003L79.9753 59.211L80.2256 62.6594L73.6069 66.9977L76.4043 62.8121L80.17 54.1218Z" fill="#347BBE"/>
<path d="M80.1694 54.1218L88.2942 45.1775L87.1775 47.0025L87.6224 47.4474L88.0674 46.8634L87.2331 51.0071L87.1218 50.1172L86.51 51.6745L85.8426 51.758L84.5355 56.2909L80.1694 54.1218Z" fill="#3477BE"/>
<path d="M95.334 29.4858L93.8395 36.565L91.873 33.6154L95.334 29.4858Z" fill="#3F61B8"/>
<path d="M87.7051 36.1318L93.8404 36.5645L93.0145 36.9578L90.93 44.5482L89.9468 44.0369L88.9303 45.6572L87.7051 36.1318Z" fill="#3C6BBB"/>
<path d="M92.7129 23.4477L100.5 19.4988L107.645 25.7098L92.7129 23.4477Z" fill="#3972BF"/>
<path d="M100.5 19.4991L104.282 12.7135L103.461 4.98242C103.461 4.98242 100.555 5.98357 98.108 10.7112L92.7129 23.448L100.5 19.4991Z" fill="#3B61BB"/>
<path d="M112.089 9.58526L104.281 12.7135L103.46 4.98242L112.089 9.58526Z" fill="#3B61BB"/>
<path d="M111.873 3.59208L117.463 13.5201L112.089 9.58539L103.46 4.98256C103.46 4.98256 106.784 2.98027 111.873 3.59208Z" fill="#3A76BE"/>
<path d="M118.685 6.58132L117.462 13.5198L111.872 3.5918C111.872 3.5918 114.597 3.70304 118.685 6.58132Z" fill="#3B8EBF"/>
<path d="M118.686 6.58154L117.462 13.52L120.923 17.0191L122.26 18.206C122.26 18.206 125.193 12.2964 118.686 6.58154Z" fill="#4498C3"/>
<path d="M92.7129 23.4482L99.5436 24.2551L99.6616 28.7386L92.7129 23.4482Z" fill="#3B65BB"/>
<path d="M90.1436 30.1544L95.335 29.4858L99.6611 28.7386L92.7125 23.4482L90.1436 30.1544Z" fill="#3A51BB"/>
<path d="M99.6605 28.738L93.8398 36.5645L95.3343 29.4853L99.6605 28.738Z" fill="#2E78BD"/>
<path d="M95.335 29.4858L91.874 33.6154L90.1436 30.1544L95.335 29.4858Z" fill="#3C49B0"/>
<path d="M90.1435 30.1538L91.8739 33.6147L87.7051 36.1318L90.1435 30.1538Z" fill="#3441B2"/>
<path d="M83.1028 47.1439L88.2942 45.1775L80.1694 54.1218L83.1028 47.1439Z" fill="#415EAF"/>
<path d="M85.0301 42.8572L88.2944 45.1776L83.103 47.144L85.0301 42.8572Z" fill="#37539E"/>
<path d="M87.7046 36.1318L88.9299 45.6572L85.0303 42.8571L87.7046 36.1318Z" fill="#384EAB"/>
<path d="M93.8404 36.5644L91.8739 33.6147L87.7051 36.1318L93.8404 36.5644Z" fill="#3F61B8"/>
<path d="M118.685 6.58132L117.462 13.5198L111.872 3.5918C111.872 3.5918 115.376 4.06454 118.685 6.58132Z" fill="#398BBC"/>
<path d="M74.8833 58.7071L74.3327 65.9435L69.7666 59.4091L74.136 56.9373L74.8833 58.7071Z" fill="#1E2896"/>
<path d="M65.5235 34.1261L59.5849 41.5986L57.9502 32.5137L65.0614 32.8971L65.5235 34.1261Z" fill="#2397C5"/>
<path d="M50.3027 11.7482L58.1292 15.7597C58.1292 15.7597 56.202 10.2537 55.1795 9.30981L50.3027 11.7482Z" fill="#236BFE"/>
<path d="M42.8295 31.5304L45.0123 36.6431L54.8342 30.2889L53.2516 24.9231L51.5605 20.8329L44.1274 9.23096L37.8348 14.4617L40.7058 17.7653L32.7417 21.3835L41.3744 21.4228L42.8295 31.5304Z" fill="#279EF2"/>
<path d="M44.1284 9.23096L50.303 11.748L51.5616 20.8329L44.1284 9.23096Z" fill="#269AF2"/>
<path d="M88.4189 95.6709L82.8636 95.1353L81.6968 91.1084L86.381 80.4017L86.746 79.9758L94.1677 81.8617L88.3885 87.2759L88.4189 95.6709Z" fill="#2599E0"/>
<path d="M88.4201 95.6714L88.3896 87.2764L94.1688 81.8622L94.9293 81.269L88.4201 95.6714Z" fill="#2078AC"/>
<path d="M82.6382 78.5107L86.7463 79.9768L94.168 81.8627L94.9284 81.2695L100.447 69.2192L98.8121 69.6494L94.5966 75.5856L89.9078 77.0481L82.6382 78.5107Z" fill="#2B8DDB"/>
<path d="M98.8121 69.6484L94.5966 75.5846L89.9078 77.0472L82.6382 78.5097L98.8121 69.6484Z" fill="#2BA0DB"/>
<path d="M100.447 69.2182L104.491 59.8838L101.91 63.9703L93.1777 67.7987L98.8128 69.6484L100.447 69.2182Z" fill="#2A9FE3"/>
<path d="M104.49 59.8842L101.909 63.9707L91.7573 67.1538L100.36 54.4211L104.49 59.8842Z" fill="#35A0D1"/>
<path d="M104.49 59.8838L101.909 63.9703L92.0154 68.3149L91.7573 67.1535L101.909 63.9703L104.49 59.8838Z" fill="#35B8D1"/>
<path d="M104.491 59.8843L99.0278 52.7867L107.717 52.7007L104.491 59.8843Z" fill="#3FA6E7"/>
<path d="M107.717 52.7005L99.0278 52.7866L100.103 50.8939L105.695 46.8074L104.792 42.3337L111.33 44.4415L107.717 52.7005Z" fill="#35A1D2"/>
<path d="M111.329 44.4415L104.791 42.3337L113.265 39.9248L111.329 44.4415Z" fill="#349FE4"/>
<path d="M113.265 39.9248L114.426 37.1287L108.576 30.1602L104.791 42.3336L113.265 39.9248Z" fill="#32A0BF"/>
<path d="M114.427 37.1286L117.783 29.4287L108.577 30.16L114.427 37.1286Z" fill="#35A0D8"/>
<path d="M117.783 29.4292L119.46 25.3427L117.094 25.7298L116.535 22.5466L108.577 30.1604L117.783 29.4292Z" fill="#30A0BA"/>
<path d="M119.46 25.3428L117.094 25.73L116.535 22.5468L118.084 20.6111L120.105 23.7082L119.46 25.3428Z" fill="#2B8BAD"/>
<path d="M120.105 23.7082L118.083 20.6111L121.826 19.2776L120.105 23.7082Z" fill="#448FAE"/>
<path d="M121.826 19.2774L122.26 18.2059L120.923 17.019L121.826 19.2774Z" fill="#287296"/>
<path d="M121.826 19.2774L118.083 20.6109L120.923 17.019L121.826 19.2774Z" fill="#47A4B7"/>
<path d="M120.923 17.0188L117.462 13.5198L117.833 18.5342L118.084 20.6106L120.923 17.0188Z" fill="#3391C0"/>
<path d="M116.535 22.5463L113.453 21.6671L117.833 18.5342L118.084 20.6106L116.535 22.5463Z" fill="#3493C2"/>
<path d="M22.3756 20.483C20.2285 20.4869 18.382 20.6208 16.8367 20.9192C15.2914 21.2176 11.1557 22.6168 12.5868 25.4817C13.6007 26.6827 12.5662 24.4686 13.2424 23.9429L14.0547 24.7523C14.0095 24.642 13.9697 24.5341 13.9416 24.4299C13.7515 23.725 13.9391 23.1939 14.4088 22.7843C14.8785 22.3748 15.6865 22.038 16.9693 21.7903C18.252 21.5426 19.9615 21.4065 22.0051 21.4028C26.0922 21.3954 31.5154 21.9035 37.834 22.8804C50.4712 24.8343 66.7148 28.654 83.5114 33.8682C100.308 39.0824 114.48 44.7052 123.786 49.5633C128.439 51.9923 131.874 54.2336 133.803 56.1083C134.767 57.0457 135.233 59.012 135.424 59.7169C135.503 60.0112 135.513 60.2735 135.468 60.5108L136.648 60.8699C136.884 60.3827 137.295 59.6704 137.152 59.1398C137.003 57.8742 136.196 56.4873 135.183 55.5024C133.157 53.5327 129.662 51.2654 124.962 48.8114C115.56 43.9033 101.333 38.2638 84.4732 33.0299C67.6133 27.796 51.3154 23.9596 38.5482 21.9856C32.1645 20.9986 26.6696 20.4752 22.3756 20.483Z" fill="#CCCCCC"/>
<path d="M22.3754 20.483C20.2284 20.4869 18.3818 20.6208 16.8365 20.9192C15.2912 21.2176 13.5695 23.3566 12.7619 24.0606C12.1211 24.6193 13.2154 24.3204 13.2492 24.9822L14.0546 24.7523C14.0094 24.642 13.9696 24.5341 13.9415 24.4299C13.7514 23.725 13.939 23.1939 14.4087 22.7843C14.8784 22.3748 15.6864 22.038 16.9691 21.7903C18.2519 21.5426 19.9614 21.4065 22.0049 21.4028C26.092 21.3954 31.5152 21.9035 37.8338 22.8804C50.471 24.8343 66.7147 28.654 83.5113 33.8682C100.308 39.0824 114.48 44.7052 123.786 49.5633C128.439 51.9923 131.874 54.2336 133.802 56.1083C134.767 57.0457 136.395 58.4984 136.585 59.2033C136.664 59.4976 136.674 59.7599 136.629 59.9972L136.551 60.966C136.788 60.4788 137.146 60.1922 137.003 59.6616C136.774 58.8124 136.196 56.4873 135.183 55.5024C133.157 53.5327 129.662 51.2654 124.961 48.8114C115.56 43.9033 101.333 38.2638 84.4731 33.0299C67.6132 27.796 51.3153 23.9596 38.548 21.9856C32.1644 20.9986 26.6695 20.4752 22.3754 20.483Z" fill="#CCCCCC"/>
<path d="M22.3754 21.1058C20.2284 21.1097 18.3818 21.2436 16.8365 21.542C15.2912 21.8404 13.9977 22.3247 13.1902 23.0287C12.5494 23.5874 12.7171 25.2066 12.7509 25.8685L14.0546 25.3751C14.0094 25.2648 13.9696 25.1569 13.9415 25.0527C13.7514 24.3478 13.939 23.8167 14.4087 23.4071C14.8784 22.9976 15.6864 22.6608 16.9691 22.4131C18.2519 22.1654 19.9614 22.0293 22.0049 22.0256C26.092 22.0182 31.5152 22.5263 37.8338 23.5032C50.471 25.4571 66.7147 29.2768 83.5113 34.491C100.308 39.7052 114.48 45.328 123.786 50.1861C128.439 52.6151 131.874 54.8564 133.802 56.7311C134.766 57.6685 135.217 59.0306 135.407 59.7355C135.486 60.0298 135.496 60.2921 135.451 60.5294L136.551 60.9659C136.788 60.4786 137.086 59.9132 136.943 59.3827C136.714 58.5335 136.196 57.1101 135.183 56.1252C133.157 54.1555 129.662 51.8882 124.961 49.4342C115.56 44.5261 101.333 38.8866 84.4731 33.6527C67.6131 28.4188 51.3153 24.5824 38.548 22.6084C32.1644 21.6214 26.6695 21.098 22.3754 21.1058Z" fill="url(#paint6_linear)"/>
<defs>
<linearGradient id="paint0_linear" x1="284.689" y1="25.3242" x2="331.189" y2="84.3242" gradientUnits="userSpaceOnUse">
<stop stop-color="white" stop-opacity="0"/>
<stop offset="0.810358" stop-opacity="0.2"/>
</linearGradient>
<linearGradient id="paint1_linear" x1="270.689" y1="19.3242" x2="306.689" y2="61.8242" gradientUnits="userSpaceOnUse">
<stop stop-color="white" stop-opacity="0.2"/>
<stop offset="0.834152" stop-opacity="0.24"/>
</linearGradient>
<linearGradient id="paint2_linear" x1="190.189" y1="17.3242" x2="250.189" y2="61.3242" gradientUnits="userSpaceOnUse">
<stop stop-color="white" stop-opacity="0"/>
<stop offset="0.914263" stop-opacity="0.2"/>
</linearGradient>
<linearGradient id="paint3_linear" x1="160.189" y1="28.8242" x2="216.189" y2="65.8242" gradientUnits="userSpaceOnUse">
<stop stop-color="white" stop-opacity="0"/>
<stop offset="0.88409" stop-opacity="0.2"/>
</linearGradient>
<linearGradient id="paint4_linear" x1="134.689" y1="25.3242" x2="174.019" y2="41.1749" gradientUnits="userSpaceOnUse">
<stop stop-color="white" stop-opacity="0"/>
<stop offset="1" stop-opacity="0.24"/>
<stop offset="1" stop-opacity="0.2"/>
</linearGradient>
<linearGradient id="paint5_linear" x1="12.3892" y1="42.8274" x2="137.003" y2="42.8274" gradientUnits="userSpaceOnUse">
<stop stop-color="#CCCCCC"/>
<stop offset="1" stop-color="#CCCCCC" stop-opacity="0"/>
</linearGradient>
<linearGradient id="paint6_linear" x1="12.6871" y1="24.3762" x2="138.001" y2="60.3882" gradientUnits="userSpaceOnUse">
<stop stop-color="#C5C5C5"/>
<stop offset="1" stop-color="#555555"/>
</linearGradient>
</defs>
</svg>
