<svg width="416" height="106" viewBox="0 0 416 106" fill="none" xmlns="http://www.w3.org/2000/svg">
<path d="M140.995 103.777C136.677 103.777 133.399 102.608 131.164 100.271C128.928 97.8831 127.811 94.3773 127.811 89.7537V18.4184C127.811 13.6932 129.005 10.1112 131.393 7.67235C133.831 5.18272 137.413 3.93791 142.139 3.93791H179.483C184.208 3.93791 187.79 5.18272 190.229 7.67235C192.668 10.1112 193.887 13.6932 193.887 18.4184C193.887 23.1944 192.668 26.8272 190.229 29.3168C187.79 31.8065 184.208 33.0513 179.483 33.0513H159.21V39.5294H171.557C176.333 39.5294 179.94 40.698 182.379 43.0352C184.818 45.3216 186.037 48.7257 186.037 53.2477C186.037 57.7189 184.818 61.0976 182.379 63.384C179.94 65.6196 176.333 66.7374 171.557 66.7374H159.21V74.6636H179.483C184.208 74.6636 187.79 75.9338 190.229 78.4742C192.668 80.9638 193.887 84.6729 193.887 89.6013C193.887 94.2757 192.668 97.8069 190.229 100.195C187.79 102.583 184.208 103.777 179.483 103.777H140.995Z" fill="#1AB5EB"/>
<path d="M221.171 103.777C216.853 103.777 213.576 102.608 211.34 100.271C209.104 97.8831 207.987 94.3773 207.987 89.7537V18.4184C207.987 13.6932 209.181 10.1112 211.569 7.67235C214.007 5.18272 217.589 3.93791 222.315 3.93791H259.659C264.384 3.93791 267.966 5.18272 270.405 7.67235C272.844 10.1112 274.063 13.6932 274.063 18.4184C274.063 23.1944 272.844 26.8272 270.405 29.3168C267.966 31.8065 264.384 33.0513 259.659 33.0513H239.386V39.5294H251.733C256.509 39.5294 260.116 40.698 262.555 43.0352C264.994 45.3216 266.213 48.7257 266.213 53.2477C266.213 57.7189 264.994 61.0976 262.555 63.384C260.116 65.6196 256.509 66.7374 251.733 66.7374H239.386V74.6636H259.659C264.384 74.6636 267.966 75.9338 270.405 78.4742C272.844 80.9638 274.063 84.6729 274.063 89.6013C274.063 94.2757 272.844 97.8069 270.405 100.195C267.966 102.583 264.384 103.777 259.659 103.777H221.171Z" fill="#1AB5EB"/>
<path d="M356.373 3.17578C361.556 3.17578 365.468 4.54761 368.11 7.29128C370.803 10.0349 372.149 14.0488 372.149 19.3329V91.8115C372.149 96.181 370.854 99.5344 368.262 101.872C365.671 104.158 362.343 105.301 358.279 105.301C352.08 105.301 347.38 103.142 344.179 98.8231L320.325 66.3563V89.0678C320.325 94.3519 318.953 98.3912 316.209 101.186C313.465 103.929 309.451 105.301 304.167 105.301C298.934 105.301 294.946 103.929 292.202 101.186C289.509 98.442 288.163 94.4027 288.163 89.0678V17.9611C288.163 15.1666 288.823 12.6516 290.144 10.416C291.516 8.12963 293.396 6.35132 295.784 5.08111C298.172 3.81089 300.839 3.17578 303.786 3.17578C306.784 3.17578 309.375 3.68387 311.56 4.70004C313.745 5.71621 315.65 7.31669 317.276 9.50146L339.987 39.9104V19.3329C339.987 13.998 341.359 9.98414 344.103 7.29128C346.897 4.54761 350.988 3.17578 356.373 3.17578Z" fill="#1AB5EB"/>
<path d="M388.673 5.66008C388.673 5.28614 388.804 4.96378 389.066 4.69299C389.328 4.4351 389.649 4.30615 390.029 4.30615C390.422 4.30615 390.749 4.4351 391.011 4.69299C391.286 4.96378 391.424 5.28614 391.424 5.66008C391.424 6.04692 391.286 6.36928 391.011 6.62717C390.749 6.88507 390.422 7.01401 390.029 7.01401C389.649 7.01401 389.328 6.88507 389.066 6.62717C388.804 6.38218 388.673 6.05981 388.673 5.66008Z" fill="#1AB5EB"/>
<path d="M407.99 17.9808C407.99 19.1156 407.892 20.0762 407.696 20.8628C407.512 21.6493 407.289 22.4101 407.027 23.1451L407.735 22.9904H414.554C415.144 22.9904 415.438 23.2741 415.438 23.8414C415.438 24.383 415.144 24.6538 414.554 24.6538H390.716C390.415 24.6538 390.186 24.5893 390.029 24.4604C389.871 24.3314 389.74 24.1058 389.636 23.7834C389.308 22.7905 389.053 21.8686 388.869 21.0175C388.686 20.1665 388.594 19.1994 388.594 18.1162C388.594 16.9041 388.869 15.7952 389.419 14.7894C389.983 13.7837 390.749 12.9906 391.719 12.4104C392.688 11.8301 393.769 11.54 394.961 11.54H401.702C402.842 11.54 403.89 11.8172 404.846 12.3717C405.816 12.9262 406.582 13.6934 407.145 14.6734C407.709 15.6534 407.99 16.7559 407.99 17.9808ZM394.922 13.1841C394.044 13.1841 393.245 13.4033 392.524 13.8417C391.817 14.2801 391.254 14.8733 390.834 15.6211C390.428 16.3819 390.225 17.2201 390.225 18.1356C390.225 19.0382 390.304 19.8312 390.461 20.5146C390.618 21.2109 390.815 21.9072 391.05 22.6035C391.077 22.6422 391.123 22.7712 391.188 22.9904H405.357C405.37 22.9388 405.534 22.5133 405.848 21.7138C406.176 20.9273 406.34 19.7345 406.34 18.1356C406.34 17.2201 406.137 16.3819 405.73 15.6211C405.324 14.8733 404.761 14.2801 404.04 13.8417C403.333 13.4033 402.54 13.1841 401.663 13.1841L394.922 13.1841Z" fill="#1AB5EB"/>
<path d="M407.99 37.3034C407.99 38.5283 407.696 39.6437 407.106 40.6495C406.53 41.6553 405.75 42.4418 404.768 43.0092C403.798 43.5895 402.743 43.8796 401.604 43.8796H398.656C398.433 43.8796 398.25 43.8087 398.106 43.6668C397.961 43.5379 397.889 43.3574 397.889 43.1253V32.3712H394.981C394.116 32.3712 393.317 32.5839 392.583 33.0095C391.85 33.4479 391.26 34.041 390.815 34.7889C390.382 35.5497 390.166 36.3878 390.166 37.3034C390.166 37.9094 390.232 38.4703 390.363 38.9861C390.507 39.5019 390.651 39.9081 390.795 40.2046C390.952 40.5012 391.168 40.888 391.444 41.3651C391.47 41.4296 391.509 41.507 391.561 41.5972C391.614 41.7004 391.64 41.8036 391.64 41.9067C391.64 42.1388 391.561 42.3258 391.404 42.4676C391.247 42.6095 391.064 42.6804 390.854 42.6804C390.566 42.6804 390.336 42.5579 390.166 42.3129C389.118 40.6624 388.594 38.9925 388.594 37.3034C388.594 36.0784 388.876 34.963 389.439 33.9572C390.002 32.9643 390.762 32.1842 391.719 31.6168C392.675 31.0495 393.717 30.7658 394.843 30.7658H401.682C402.835 30.7658 403.89 31.0495 404.846 31.6168C405.816 32.1842 406.582 32.9643 407.145 33.9572C407.709 34.9501 407.99 36.0655 407.99 37.3034ZM399.304 32.3712V42.2742H401.721C402.586 42.2742 403.379 42.0486 404.099 41.5972C404.833 41.1588 405.409 40.5592 405.829 39.7985C406.261 39.0377 406.477 38.206 406.477 37.3034C406.477 36.3878 406.268 35.5561 405.848 34.8083C405.442 34.0604 404.872 33.4672 404.139 33.0288C403.418 32.5904 402.612 32.3712 401.721 32.3712H399.304Z" fill="#1AB5EB"/>
<path d="M398.125 52.1192C398.544 51.1263 398.931 50.3398 399.285 49.7595C399.638 49.1793 400.13 48.6893 400.759 48.2895C401.4 47.8898 402.226 47.6899 403.235 47.6899C404.23 47.6899 405.082 47.922 405.789 48.3862C406.51 48.8633 407.054 49.4887 407.421 50.2624C407.8 51.049 407.99 51.8936 407.99 52.7962C407.99 53.6859 407.886 54.4596 407.676 55.1172C407.466 55.7877 407.172 56.4776 406.792 57.1868C406.713 57.3544 406.602 57.4769 406.458 57.5543C406.313 57.6445 406.163 57.6897 406.006 57.6897C405.809 57.6768 405.632 57.5994 405.475 57.4576C405.331 57.3286 405.259 57.161 405.259 56.9547C405.259 56.8515 405.278 56.729 405.318 56.5872C405.37 56.4453 405.409 56.3422 405.436 56.2777C405.462 56.2261 405.56 56.0198 405.73 55.6588C405.914 55.2977 406.058 54.8658 406.163 54.3629C406.281 53.8729 406.34 53.3571 406.34 52.8155C406.34 52.2353 406.222 51.6808 405.986 51.1521C405.763 50.6234 405.409 50.1915 404.925 49.8562C404.453 49.521 403.864 49.3533 403.156 49.3533C402.488 49.3533 401.944 49.4887 401.525 49.7595C401.106 50.0303 400.759 50.3978 400.483 50.862C400.208 51.3262 399.874 52.0096 399.481 52.9122C398.931 54.2017 398.453 55.1752 398.047 55.8329C397.654 56.5034 397.129 57.032 396.474 57.4189C395.832 57.8057 394.987 57.9991 393.939 57.9991C392.865 57.9991 391.922 57.767 391.109 57.3028C390.31 56.8386 389.688 56.1939 389.243 55.3686C388.81 54.5434 388.594 53.615 388.594 52.5834C388.594 51.6034 388.732 50.6815 389.007 49.8175C389.295 48.9536 389.609 48.2186 389.95 47.6126C390.12 47.1999 390.382 46.9936 390.736 46.9936C390.959 46.9936 391.142 47.0645 391.286 47.2064C391.444 47.3611 391.522 47.5481 391.522 47.7673C391.522 47.8962 391.45 48.1477 391.306 48.5216C390.992 49.1793 390.73 49.8304 390.52 50.4752C390.323 51.1328 390.225 51.8613 390.225 52.6608C390.225 53.7439 390.553 54.6272 391.208 55.3106C391.876 55.994 392.767 56.3357 393.88 56.3357C394.627 56.3357 395.236 56.1875 395.708 55.8909C396.18 55.5943 396.579 55.1688 396.907 54.6143C397.234 54.0598 397.64 53.2281 398.125 52.1192Z" fill="#1AB5EB"/>
<path d="M406.831 65.7165H406.811H389.695C389.419 65.7165 389.21 65.6456 389.066 65.5038C388.922 65.3619 388.849 65.1621 388.849 64.9042C388.849 64.6334 388.922 64.4206 389.066 64.2659C389.21 64.1241 389.419 64.0531 389.695 64.0531H406.065V61.5967C406.065 61.3388 406.13 61.139 406.261 60.9971C406.405 60.8682 406.608 60.8037 406.87 60.8037C407.407 60.8037 407.676 61.068 407.676 61.5967V64.8462V64.8655V64.8848C407.676 65.2459 407.552 65.4909 407.303 65.6198C407.172 65.6843 407.021 65.7165 406.851 65.7165H406.831ZM411.567 64.1112C411.567 63.7759 411.685 63.4922 411.921 63.2601C412.157 63.028 412.438 62.912 412.766 62.912C413.106 62.912 413.395 63.028 413.631 63.2601C413.879 63.4922 414.004 63.7759 414.004 64.1112C414.004 64.4464 413.879 64.7301 413.631 64.9622C413.395 65.1943 413.106 65.3104 412.766 65.3104C412.425 65.3104 412.137 65.1943 411.901 64.9622C411.678 64.7301 411.567 64.4464 411.567 64.1112Z" fill="#1AB5EB"/>
<path d="M382.856 75.755C382.895 75.5229 382.98 75.3359 383.111 75.194C383.242 75.0522 383.412 74.9813 383.622 74.9813C383.897 74.9813 384.113 75.0587 384.271 75.2134C384.415 75.381 384.467 75.6002 384.428 75.871C384.153 76.8768 384.015 78.0115 384.015 79.2752C384.015 80.5904 384.506 81.564 385.489 82.1958C386.472 82.8405 387.965 83.1629 389.97 83.1629L391.306 83.2789C391.28 83.2274 391.123 82.9759 390.834 82.5246C390.546 82.0733 390.278 81.4221 390.029 80.5711C389.793 79.7329 389.675 78.8625 389.675 77.9599C389.675 76.8123 389.97 75.755 390.559 74.7879C391.149 73.8208 391.968 73.0471 393.016 72.4668C394.064 71.8995 395.243 71.6158 396.553 71.6158H401.486C402.756 71.6158 403.883 71.893 404.866 72.4475C405.861 73.0149 406.628 73.7885 407.165 74.7685C407.715 75.7485 407.99 76.8446 407.99 78.0566C407.99 79.2687 407.899 80.3132 407.715 81.19C407.532 82.0797 407.257 83.0017 406.89 83.9559C406.772 84.2525 406.634 84.4523 406.477 84.5555C406.333 84.6716 406.097 84.7296 405.77 84.7296H389.753C387.395 84.7296 385.587 84.2718 384.33 83.3563C383.059 82.4408 382.423 81.1449 382.423 79.4686C382.423 78.2436 382.567 77.0057 382.856 75.755ZM391.326 78.192C391.326 79.2365 391.457 80.1133 391.719 80.8225C391.981 81.5317 392.217 82.0604 392.426 82.4086C392.649 82.7696 392.78 82.9888 392.819 83.0662H405.357C405.396 82.9501 405.514 82.6149 405.711 82.0604C405.907 81.5188 406.058 80.9192 406.163 80.2616C406.268 79.6169 406.32 78.927 406.32 78.192C406.32 77.2636 406.117 76.4255 405.711 75.6776C405.305 74.9297 404.728 74.3366 403.981 73.8981C403.235 73.4726 402.357 73.2599 401.348 73.2599H396.592C395.557 73.2599 394.64 73.4726 393.841 73.8981C393.042 74.3237 392.42 74.9104 391.974 75.6583C391.542 76.4061 391.326 77.2507 391.326 78.192Z" fill="#1AB5EB"/>
<path d="M407.99 98.6364C407.99 99.8743 407.735 100.951 407.224 101.866C406.726 102.795 405.992 103.511 405.023 104.013C404.053 104.529 402.887 104.787 401.525 104.787H389.714C389.439 104.787 389.223 104.71 389.066 104.555C388.922 104.413 388.849 104.213 388.849 103.955C388.849 103.414 389.138 103.143 389.714 103.143H401.446C403.045 103.143 404.257 102.724 405.082 101.886C405.907 101.061 406.32 99.9323 406.32 98.501C406.32 96.6828 405.999 94.955 405.357 93.3174H389.714C389.426 93.3174 389.21 93.2464 389.066 93.1046C388.922 92.9757 388.849 92.7822 388.849 92.5244C388.849 92.2536 388.922 92.0408 389.066 91.8861C389.21 91.7442 389.426 91.6733 389.714 91.6733H405.947C406.13 91.6733 406.294 91.712 406.438 91.7894C406.582 91.8667 406.687 91.9763 406.752 92.1182C407.578 93.975 407.99 96.1477 407.99 98.6364Z" fill="#1AB5EB"/>
<path d="M84.4739 33.6528C67.6139 28.4189 51.3159 24.5828 38.5487 22.6088C32.165 21.6218 26.67 21.0985 22.3759 21.1063C20.2289 21.1102 18.3827 21.244 16.8374 21.5424C15.2921 21.8408 13.9984 22.3249 13.1908 23.0289C12.3832 23.733 12.1786 24.5551 12.4076 25.4043C12.6366 26.2535 13.2852 27.1638 14.2981 28.1487C16.3239 30.1184 19.8186 32.3857 24.5195 34.8397C33.9213 39.7478 48.1498 45.3881 65.0097 50.6219C81.8697 55.8558 98.1655 59.6912 110.933 61.6652C117.316 62.6522 122.811 63.1756 127.105 63.1677C129.252 63.1639 131.1 63.0285 132.646 62.7301C134.191 62.4317 135.485 61.9477 136.292 61.2436C137.1 60.5396 137.304 59.7174 137.075 58.8682C136.846 58.019 136.196 57.1102 135.183 56.1253C133.158 54.1556 129.663 51.8883 124.962 49.4343C115.56 44.5263 101.334 38.8867 84.4739 33.6528V33.6528ZM83.512 34.4913C100.309 39.7056 114.481 45.3282 123.787 50.1862C128.44 52.6152 131.875 54.8568 133.803 56.7316C134.767 57.669 135.349 58.5162 135.539 59.2211C135.729 59.926 135.544 60.4557 135.074 60.8653C134.604 61.2748 133.794 61.613 132.512 61.8607C131.229 62.1084 129.519 62.2442 127.476 62.2479C123.389 62.2554 117.965 61.7471 111.647 60.7702C99.0095 58.8163 82.7682 54.9976 65.9716 49.7834C49.175 44.5692 35.0006 38.9459 25.6945 34.0879C21.0415 31.6588 17.6065 29.4172 15.6783 27.5425C14.7143 26.6051 14.1323 25.7578 13.9422 25.0529C13.7521 24.348 13.9397 23.8168 14.4095 23.4072C14.8793 22.9977 15.6872 22.661 16.9699 22.4134C18.2526 22.1657 19.9622 22.0298 22.0058 22.0261C26.0929 22.0187 31.5161 22.5269 37.8347 23.5039C50.4719 25.4577 66.7154 29.2771 83.512 34.4913V34.4913Z" fill="#CCCCCC"/>
<path d="M14.1148 23.1106C13.5849 23.7353 12.214 24.0619 12.4078 24.7805C12.6368 25.6297 13.285 26.5404 14.2979 27.5253C16.3236 29.495 19.8182 31.7624 24.5191 34.2164C33.9209 39.1244 48.15 44.7645 65.0099 49.9984C81.8699 55.2323 98.1653 59.0676 110.933 61.0415C117.316 62.0285 122.811 62.552 127.105 62.5441C129.252 62.5402 131.101 62.4051 132.646 62.1067C134.191 61.8084 135.485 61.324 136.292 60.62C136.637 60.3198 136.865 59.9972 137.003 59.6612L135.604 59.2445C135.57 59.6406 135.387 59.9686 135.074 60.2416C134.604 60.6511 133.794 60.9891 132.511 61.2368C131.229 61.4845 129.519 61.6206 127.476 61.6243C123.389 61.6317 117.965 61.1236 111.647 60.1467C99.0095 58.1928 82.7683 54.3737 65.9717 49.1595C49.1751 43.9453 35.0005 38.3225 25.6944 33.4645C21.0414 31.0355 17.6063 28.7935 15.6782 26.9188C14.7141 25.9814 14.1321 25.1344 13.942 24.4295C13.7989 23.8989 13.8706 23.4666 14.1148 23.1106Z" fill="url(#paint0_linear)"/>
<path fill-rule="evenodd" clip-rule="evenodd" d="M125.374 44.9703L134.085 42.7617L144.76 47.9151L149.178 58.5901L145.251 68.2834L136.908 74.0503L131.386 73.0687L125.865 72.8233L122.797 68.7742L118.748 64.8478V60.676L118.012 54.6637L122.306 49.8783L125.374 44.9703Z" fill="#D54049"/>
<path d="M129.054 58.7444L132.49 48.5603L126.708 52.9413L129.054 58.7444Z" fill="white" fill-opacity="0.1"/>
<path d="M132.49 48.5283L125.373 44.97L122.306 49.878L132.49 48.5283Z" fill="black" fill-opacity="0.15"/>
<path d="M119.484 58.3446L132.49 48.5286L122.306 49.8783L119.484 58.3446Z" fill="black" fill-opacity="0.25"/>
<path d="M132.49 48.5284L134.085 42.7615L125.374 44.9701L132.49 48.5284Z" fill="black" fill-opacity="0.3"/>
<path d="M132.49 48.5284L134.085 42.7615L143.165 48.5284H132.49Z" fill="black" fill-opacity="0.15"/>
<path d="M144.76 47.9149L143.165 48.5284L134.085 42.7615L144.76 47.9149Z" fill="black" fill-opacity="0.5"/>
<path d="M143.165 48.5286L144.269 56.7495L149.177 58.59L143.165 48.5286Z" fill="white" fill-opacity="0.1"/>
<path d="M144.76 47.9146L149.177 58.5895L143.165 48.5281L144.76 47.9146Z" fill="black" fill-opacity="0.2"/>
<path d="M149.177 58.5895L145.251 68.2829L144.269 56.749L149.177 58.5895Z" fill="black" fill-opacity="0.55"/>
<path d="M144.269 56.749L145.251 68.2829L141.202 66.8105L144.269 56.749Z" fill="black" fill-opacity="0.25"/>
<path d="M136.907 74.0496L131.385 73.068L145.25 68.2827L136.907 74.0496Z" fill="black" fill-opacity="0.6"/>
<path d="M145.25 68.2827L131.385 73.068L141.201 66.8103L145.25 68.2827Z" fill="black" fill-opacity="0.5"/>
<path d="M141.201 66.8103L131.385 73.068L127.827 66.8103H141.201Z" fill="black" fill-opacity="0.4"/>
<path d="M125.864 72.8228L122.796 68.7737L131.385 73.0682L125.864 72.8228Z" fill="black" fill-opacity="0.7"/>
<path d="M127.827 66.8103L122.796 68.7735L131.385 73.068L127.827 66.8103Z" fill="black" fill-opacity="0.5"/>
<path d="M118.747 64.8481V60.6763L119.483 58.345L122.796 68.7745L118.747 64.8481Z" fill="black" fill-opacity="0.7"/>
<path d="M122.306 49.8779L119.484 58.3443L118.747 60.6756L118.011 54.6632L122.306 49.8779Z" fill="black" fill-opacity="0.6"/>
<path d="M127.828 66.8113L119.484 58.345L122.797 68.7745L127.828 66.8113Z" fill="black" fill-opacity="0.4"/>
<path d="M129.055 58.7131L119.484 58.345L127.828 66.8113L129.055 58.7131Z" fill="black" fill-opacity="0.15"/>
<path d="M144.269 56.7495L132.49 48.5286L135.803 58.2219L144.269 56.7495Z" fill="black" fill-opacity="0.05"/>
<path d="M144.269 56.7495L132.49 48.5286H143.165L144.269 56.7495Z" fill="white" fill-opacity="0.05"/>
<path d="M127.827 66.8102L135.802 58.2212L141.201 66.8102H127.827Z" fill="black" fill-opacity="0.15"/>
<path d="M127.827 66.8102L129.054 58.712L135.802 58.2212L127.827 66.8102Z" fill="white" fill-opacity="0.15"/>
<path d="M57.4312 13.9801L76.404 62.8123L84.2094 44.7427L85.0302 42.8573L97.9957 10.878C97.9957 10.878 102.964 -0.286362 115.471 4.74772C120.893 6.93041 122.935 11.1555 122.816 15.2731C122.739 17.9189 121.336 20.1892 120.486 22.6104C120.106 23.6949 119.685 24.7657 119.246 25.8279C109.099 50.3721 87.036 98.7041 87.036 98.7041C87.036 98.7041 83.4964 105.115 75.552 104.721C67.6076 104.328 64.3039 97.8782 64.3039 97.8782L59.6632 86.7089L54.3931 73.927L31.7397 19.142C31.7397 19.142 27.6102 9.15253 39.7235 3.6465C41.6679 2.76267 44.2774 2.98352 45.9016 3.05271C54.3959 3.4146 57.4312 13.9801 57.4312 13.9801V13.9801Z" fill="#1AB5EB"/>
<path d="M64.3042 97.8785L65.6475 95.8457L74.5088 102.04L73.6485 102.427L77.0467 104.75C77.0467 104.75 68.6586 105.378 64.3042 97.8785V97.8785Z" fill="#4584CD"/>
<path d="M85.1553 101.137L86.7299 98.7259L84.5531 97.2867L85.135 96.3407L82.8647 95.1359L85.0894 93.9377L87.2489 94.7134L88.42 95.6715L87.0364 98.7043C87.0364 98.7043 86.4076 99.8644 85.1553 101.137V101.137Z" fill="#1F73A4"/>
<path d="M73.6475 102.427L77.0457 104.75C77.0457 104.75 81.9065 104.642 85.1542 101.136L86.7287 98.7256L84.552 97.2864L73.9916 101.674L74.5078 102.04L73.6475 102.427Z" fill="#3DB0E9"/>
<path d="M64.6575 88.0166L66.2061 96.2326L65.6469 95.8455L64.3035 97.8783C64.3035 97.8783 62.4846 94.2035 62.0225 92.5296L64.6575 88.0166Z" fill="#477ED2"/>
<path d="M60.0566 87.7707L65.4054 86.4729L64.6581 88.0166L62.0231 92.5296L60.0566 87.7707Z" fill="#445BCB"/>
<path d="M55.8086 77.3488L58.3256 79.2759L63.9496 76.6802L64.3429 82.8941L62.7698 83.0121L67.0173 86.3944L65.4048 86.473L60.0561 87.7709L55.8086 77.3488Z" fill="#4848CB"/>
<path d="M54.3931 73.927L55.8089 77.3486L58.3259 79.2757L63.95 76.68L55.1403 74.0843L54.3931 73.927Z" fill="#4765D0"/>
<path d="M44.2856 49.4253L50.4413 52.37L62.3375 59.0215L54.7471 58.6282L55.8876 59.5328L55.1404 74.0844L54.3931 73.9271L44.2856 49.4253Z" fill="#438BDE"/>
<path d="M49.3591 45.728L44.2856 49.4249L50.4413 52.3697L49.3591 45.728Z" fill="#368AF3"/>
<path d="M40.1953 39.6328L44.0495 41.9139L48.2577 44.7455L49.3589 45.7288L44.2855 49.4257L40.1953 39.6328Z" fill="#4188F9"/>
<path d="M46.409 41.1663L45.7404 43.0934L44.0493 41.9135L46.409 41.1663Z" fill="#3155C7"/>
<path d="M46.4093 41.1664L47.5105 41.0091L52.6626 40.4585L48.2578 44.7453L45.7407 43.0935L46.4093 41.1664Z" fill="#3D8AF8"/>
<path d="M44.0491 36.7612L45.9761 37.1938L45.7795 37.7051L47.9033 37.9411L47.4313 38.8457L48.8865 39.9075L47.51 41.0087L46.4088 41.166L44.0491 41.9133L42.3579 40.9694L44.0491 36.7612Z" fill="#4D8BFE"/>
<path d="M39.3687 37.3512L44.0488 36.7612L42.3576 40.9694L40.1946 39.6322L39.3687 37.3512Z" fill="#4D70FB"/>
<path d="M45.0123 36.643L42.8296 31.5303L39.3687 37.3509L45.0123 36.643Z" fill="#416DFC"/>
<path d="M35.083 27.3223L42.8308 31.5305L39.3698 37.3511L35.083 27.3223Z" fill="#3F70FE"/>
<path d="M35.083 27.3226L35.9089 27.7946L41.3756 21.4233L42.8308 31.5309L35.083 27.3226Z" fill="#3A5CFF"/>
<path d="M32.7417 21.3835L41.3744 21.4229L35.9077 27.7941L35.0818 27.3222L32.7417 21.3835Z" fill="#4332FF"/>
<path d="M32.7126 8.93166L33.3129 21.3055L32.7426 21.3841C32.7426 21.3841 29 15.2166 32.7126 8.93164L32.7126 8.93166Z" fill="#641BDC"/>
<path d="M44.1281 9.23155L37.8355 14.4623L40.7065 17.7659L33.3127 21.3055L32.7124 8.93164L40.6138 9.13922L44.1281 9.23155Z" fill="#641AF5"/>
<path d="M42.7656 2.8689L40.5999 9.14347L32.7124 8.93139C32.7124 8.93139 35.8577 3.74298 42.7656 2.8689V2.8689Z" fill="#3A00FD"/>
<path d="M44.1283 9.23115L40.6001 9.14333L42.7658 2.86879L45.0329 2.85938L48.6219 8.8974L44.1283 9.23115Z" fill="#5826FF"/>
<path d="M48.622 8.89722L55.1798 9.30964L50.303 11.748L44.1284 9.23097L48.622 8.89722Z" fill="#3D64FF"/>
<path d="M55.1805 9.30954L50.3037 11.7479L45.0337 2.85962C45.0337 2.85962 52.2309 2.85963 55.1805 9.30954Z" fill="#3F54FC"/>
<path d="M50.3027 11.7483L58.7977 17.333L58.1292 15.7598L50.3027 11.7483Z" fill="#1B53C6"/>
<path d="M50.303 11.748L44.1284 9.23096L52.3088 25.1591L50.303 11.748Z" fill="#269AF2"/>
<path d="M58.7977 17.333L53.2524 24.9234L52.3085 25.1594L50.3027 11.7483L58.7977 17.333Z" fill="#2879FF"/>
<path d="M53.2529 24.9235L58.7983 17.333L61.748 24.5695L53.2529 24.9235Z" fill="#1C96F6"/>
<path d="M65.0614 32.8977L56.1633 32.5142L53.2529 24.9238L61.7479 24.5698L65.0614 32.8977Z" fill="#1496E9"/>
<path d="M66.9788 40.9694V37.8231L65.5236 34.1262L59.585 41.5987L66.9788 40.9694Z" fill="#1C94AD"/>
<path d="M66.9788 40.9697L65.0123 44.6666L62.9279 48.2455L59.585 41.599L66.9788 40.9697Z" fill="#1F91B5"/>
<path d="M68.7876 42.5823L66.9785 42.7396V37.8235L68.7876 42.5823Z" fill="#1D2D89"/>
<path d="M70.4784 47.105L65.0117 44.6666L66.9781 40.9697V42.7395L68.7873 42.5822L70.4784 47.105Z" fill="#2991B5"/>
<path d="M72.3275 52.0994L70.4791 47.1046L65.0124 44.6663L63.8325 46.7114L68.5126 55.4817L72.3275 52.0994Z" fill="#2379B2"/>
<path d="M74.1359 56.9375L68.1973 60.3985L68.5119 55.4824L72.3268 52.1001L74.1359 56.9375Z" fill="#1B408C"/>
<path d="M76.4042 62.8123L74.333 65.9433L74.8836 58.7068L76.4042 62.8123Z" fill="#24309A"/>
<path d="M80.17 54.1218L84.5361 56.291L85.2592 56.4578L80.5872 59.6003L79.9753 59.211L80.2256 62.6594L73.6069 66.9977L76.4043 62.8121L80.17 54.1218Z" fill="#347BBE"/>
<path d="M80.1694 54.1218L88.2942 45.1775L87.1775 47.0025L87.6224 47.4474L88.0674 46.8634L87.2331 51.0071L87.1218 50.1172L86.51 51.6745L85.8426 51.758L84.5355 56.2909L80.1694 54.1218Z" fill="#3477BE"/>
<path d="M95.334 29.4858L93.8395 36.565L91.873 33.6154L95.334 29.4858Z" fill="#3F61B8"/>
<path d="M87.7051 36.1318L93.8404 36.5645L93.0145 36.9578L90.93 44.5482L89.9468 44.0369L88.9303 45.6572L87.7051 36.1318Z" fill="#3C6BBB"/>
<path d="M92.7129 23.4477L100.5 19.4988L107.645 25.7098L92.7129 23.4477Z" fill="#3972BF"/>
<path d="M100.5 19.4991L104.282 12.7135L103.461 4.98242C103.461 4.98242 100.555 5.98357 98.108 10.7112L92.7129 23.448L100.5 19.4991Z" fill="#3B61BB"/>
<path d="M112.089 9.58526L104.281 12.7135L103.46 4.98242L112.089 9.58526Z" fill="#3B61BB"/>
<path d="M111.873 3.59208L117.463 13.5201L112.089 9.58539L103.46 4.98256C103.46 4.98256 106.784 2.98027 111.873 3.59208V3.59208Z" fill="#3A76BE"/>
<path d="M118.685 6.58132L117.462 13.5198L111.872 3.5918C111.872 3.5918 114.597 3.70304 118.685 6.58132Z" fill="#3B8EBF"/>
<path d="M118.686 6.58154L117.462 13.52L120.923 17.0191L122.26 18.206C122.26 18.206 125.193 12.2964 118.686 6.58154Z" fill="#4498C3"/>
<path d="M92.7129 23.4482L99.5436 24.2551L99.6616 28.7386L92.7129 23.4482Z" fill="#3B65BB"/>
<path d="M90.1436 30.1544L95.335 29.4858L99.6611 28.7386L92.7125 23.4482L90.1436 30.1544Z" fill="#3A51BB"/>
<path d="M99.6605 28.738L93.8398 36.5645L95.3343 29.4853L99.6605 28.738Z" fill="#2E78BD"/>
<path d="M95.335 29.4858L91.874 33.6154L90.1436 30.1544L95.335 29.4858Z" fill="#3C49B0"/>
<path d="M90.1435 30.1538L91.8739 33.6147L87.7051 36.1318L90.1435 30.1538Z" fill="#3441B2"/>
<path d="M83.1028 47.1439L88.2942 45.1775L80.1694 54.1218L83.1028 47.1439Z" fill="#415EAF"/>
<path d="M85.0301 42.8572L88.2944 45.1776L83.103 47.144L85.0301 42.8572Z" fill="#37539E"/>
<path d="M87.7046 36.1318L88.9299 45.6572L85.0303 42.8571L87.7046 36.1318Z" fill="#384EAB"/>
<path d="M93.8404 36.5644L91.8739 33.6147L87.7051 36.1318L93.8404 36.5644Z" fill="#3F61B8"/>
<path d="M118.685 6.58132L117.462 13.5198L111.872 3.5918C111.872 3.5918 115.376 4.06454 118.685 6.58132Z" fill="#398BBC"/>
<path d="M74.8833 58.7071L74.3327 65.9435L69.7666 59.4091L74.136 56.9373L74.8833 58.7071Z" fill="#1E2896"/>
<path d="M65.5235 34.1261L59.5849 41.5986L57.9502 32.5137L65.0614 32.8971L65.5235 34.1261Z" fill="#2397C5"/>
<path d="M50.3027 11.7482L58.1292 15.7597C58.1292 15.7597 56.202 10.2537 55.1795 9.30981L50.3027 11.7482Z" fill="#236BFE"/>
<path d="M42.8295 31.5304L45.0123 36.6431L54.8342 30.2888L53.2516 24.9231L51.5605 20.8329L44.1274 9.23096L37.8348 14.4617L40.7058 17.7653L32.7417 21.3835L41.3744 21.4228L42.8295 31.5304Z" fill="#279EF2"/>
<path d="M44.1284 9.23096L50.303 11.748L51.5616 20.8329L44.1284 9.23096Z" fill="#269AF2"/>
<path d="M88.4189 95.6709L82.8636 95.1353L81.6968 91.1084L86.381 80.4017L86.746 79.9758L94.1677 81.8617L88.3885 87.2759L88.4189 95.6709Z" fill="#2599E0"/>
<path d="M88.4201 95.6714L88.3896 87.2764L94.1688 81.8622L94.9293 81.269L88.4201 95.6714Z" fill="#2078AC"/>
<path d="M82.6382 78.5107L86.7463 79.9768L94.168 81.8627L94.9284 81.2695L100.447 69.2192L98.8121 69.6494L94.5966 75.5856L89.9078 77.0481L82.6382 78.5107Z" fill="#2B8DDB"/>
<path d="M98.8121 69.6484L94.5966 75.5846L89.9078 77.0472L82.6382 78.5097L98.8121 69.6484Z" fill="#2BA0DB"/>
<path d="M100.447 69.2182L104.491 59.8838L101.91 63.9703L93.1777 67.7987L98.8128 69.6484L100.447 69.2182Z" fill="#2A9FE3"/>
<path d="M104.49 59.8842L101.909 63.9707L91.7573 67.1538L100.36 54.4211L104.49 59.8842Z" fill="#35A0D1"/>
<path d="M104.49 59.8838L101.909 63.9703L92.0154 68.3149L91.7573 67.1535L101.909 63.9703L104.49 59.8838Z" fill="#35B8D1"/>
<path d="M104.491 59.8843L99.0278 52.7867L107.717 52.7007L104.491 59.8843Z" fill="#3FA6E7"/>
<path d="M107.717 52.7005L99.0278 52.7866L100.103 50.8939L105.695 46.8074L104.792 42.3337L111.33 44.4415L107.717 52.7005Z" fill="#35A1D2"/>
<path d="M111.329 44.4415L104.791 42.3337L113.265 39.9248L111.329 44.4415Z" fill="#349FE4"/>
<path d="M113.265 39.9248L114.426 37.1287L108.576 30.1602L104.791 42.3336L113.265 39.9248Z" fill="#32A0BF"/>
<path d="M114.427 37.1286L117.783 29.4287L108.577 30.16L114.427 37.1286Z" fill="#35A0D8"/>
<path d="M117.783 29.4292L119.46 25.3427L117.094 25.7298L116.535 22.5466L108.577 30.1604L117.783 29.4292Z" fill="#30A0BA"/>
<path d="M119.46 25.3428L117.094 25.73L116.535 22.5468L118.084 20.6111L120.105 23.7082L119.46 25.3428Z" fill="#2B8BAD"/>
<path d="M120.105 23.7082L118.083 20.6111L121.826 19.2776L120.105 23.7082Z" fill="#448FAE"/>
<path d="M121.826 19.2774L122.26 18.2059L120.923 17.019L121.826 19.2774Z" fill="#287296"/>
<path d="M121.826 19.2774L118.083 20.6109L120.923 17.019L121.826 19.2774Z" fill="#47A4B7"/>
<path d="M120.923 17.0188L117.462 13.5198L117.833 18.5342L118.084 20.6106L120.923 17.0188Z" fill="#3391C0"/>
<path d="M116.535 22.5463L113.453 21.6671L117.833 18.5342L118.084 20.6106L116.535 22.5463Z" fill="#3493C2"/>
<path d="M22.3756 20.483C20.2285 20.4869 18.382 20.6208 16.8367 20.9192C15.2914 21.2176 11.1557 22.6168 12.5868 25.4817C13.6007 26.6827 12.5662 24.4686 13.2424 23.9429L14.0547 24.7523C14.0095 24.642 13.9697 24.5341 13.9416 24.4299C13.7515 23.725 13.9391 23.1939 14.4088 22.7843C14.8785 22.3748 15.6865 22.038 16.9693 21.7903C18.252 21.5426 19.9615 21.4065 22.0051 21.4028C26.0922 21.3954 31.5154 21.9035 37.834 22.8804C50.4712 24.8343 66.7148 28.654 83.5114 33.8682C100.308 39.0824 114.48 44.7052 123.786 49.5633C128.439 51.9923 131.874 54.2336 133.803 56.1083C134.767 57.0457 135.233 59.012 135.424 59.7169C135.503 60.0112 135.513 60.2735 135.468 60.5108L136.648 60.8699C136.884 60.3827 137.295 59.6704 137.152 59.1398C137.003 57.8742 136.196 56.4873 135.183 55.5024C133.157 53.5327 129.662 51.2654 124.962 48.8114C115.56 43.9033 101.333 38.2638 84.4732 33.0299C67.6133 27.796 51.3154 23.9596 38.5482 21.9856C32.1645 20.9986 26.6696 20.4752 22.3756 20.483Z" fill="#CCCCCC"/>
<path d="M22.3754 20.483C20.2284 20.4869 18.3818 20.6208 16.8365 20.9192C15.2912 21.2176 13.5695 23.3566 12.7619 24.0606C12.1211 24.6193 13.2154 24.3204 13.2492 24.9822L14.0546 24.7523C14.0094 24.642 13.9696 24.5341 13.9415 24.4299C13.7514 23.725 13.939 23.1939 14.4087 22.7843C14.8784 22.3748 15.6864 22.038 16.9691 21.7903C18.2519 21.5426 19.9614 21.4065 22.0049 21.4028C26.092 21.3954 31.5152 21.9035 37.8338 22.8804C50.471 24.8343 66.7147 28.654 83.5113 33.8682C100.308 39.0824 114.48 44.7052 123.786 49.5633C128.439 51.9923 131.874 54.2336 133.802 56.1083C134.767 57.0457 136.395 58.4984 136.585 59.2033C136.664 59.4976 136.674 59.7599 136.629 59.9972L136.551 60.966C136.788 60.4788 137.146 60.1922 137.003 59.6616C136.774 58.8124 136.196 56.4873 135.183 55.5024C133.157 53.5327 129.662 51.2654 124.961 48.8114C115.56 43.9033 101.333 38.2638 84.4731 33.0299C67.6132 27.796 51.3153 23.9596 38.548 21.9856C32.1644 20.9986 26.6695 20.4752 22.3754 20.483Z" fill="#CCCCCC"/>
<path d="M22.3754 21.1058C20.2284 21.1097 18.3818 21.2436 16.8365 21.542C15.2912 21.8404 13.9977 22.3247 13.1902 23.0287C12.5494 23.5874 12.7171 25.2066 12.7509 25.8685L14.0546 25.3751C14.0094 25.2648 13.9696 25.1569 13.9415 25.0527C13.7514 24.3478 13.939 23.8167 14.4087 23.4071C14.8784 22.9976 15.6864 22.6608 16.9691 22.4131C18.2519 22.1654 19.9614 22.0293 22.0049 22.0256C26.092 22.0182 31.5152 22.5263 37.8338 23.5032C50.471 25.4571 66.7147 29.2768 83.5113 34.491C100.308 39.7052 114.48 45.328 123.786 50.1861C128.439 52.6151 131.874 54.8564 133.802 56.7311C134.766 57.6685 135.217 59.0306 135.407 59.7355C135.486 60.0298 135.496 60.2921 135.451 60.5294L136.551 60.9659C136.788 60.4786 137.086 59.9132 136.943 59.3827C136.714 58.5335 136.196 57.1101 135.183 56.1252C133.157 54.1555 129.662 51.8882 124.961 49.4342C115.56 44.5261 101.333 38.8866 84.4731 33.6527C67.6131 28.4188 51.3153 24.5824 38.548 22.6084C32.1644 21.6214 26.6695 21.098 22.3754 21.1058Z" fill="url(#paint1_linear)"/>
<defs>
<linearGradient id="paint0_linear" x1="12.3892" y1="42.8274" x2="137.003" y2="42.8274" gradientUnits="userSpaceOnUse">
<stop stop-color="#CCCCCC"/>
<stop offset="1" stop-color="#CCCCCC" stop-opacity="0"/>
</linearGradient>
<linearGradient id="paint1_linear" x1="12.6871" y1="24.3762" x2="138.001" y2="60.3882" gradientUnits="userSpaceOnUse">
<stop stop-color="#C5C5C5"/>
<stop offset="1" stop-color="#555555"/>
</linearGradient>
</defs>
</svg>
