<svg width="151" height="100" viewBox="0 0 151 100" fill="none" xmlns="http://www.w3.org/2000/svg">
<path d="M50.0876 98.0736L54.4659 80.5604H78.9843L82.4869 98.0736H50.0876Z" fill="white"/>
<path fill-rule="evenodd" clip-rule="evenodd" d="M5.4292 0H128.021L128.021 59.5447H124.519L124.519 3.50263H8.93183V63.0473H5.42924L5.4292 63.0477V0ZM18.5641 80.5604H94.7462V77.0578H18.5641V80.5604Z" fill="white"/>
<path fill-rule="evenodd" clip-rule="evenodd" d="M92.8196 92.8196C92.8196 96.7854 96.0344 100 100 100H143.783C147.748 100 150.963 96.7854 150.963 92.8196V64.7986C150.963 60.8328 147.748 57.6182 143.783 57.6182H100C96.0344 57.6182 92.8196 60.8328 92.8196 64.7986V92.8196ZM101.751 97.8984C97.9791 97.8984 94.9212 94.8406 94.9212 91.0683V66.5499C94.9212 62.7776 97.9791 59.7198 101.751 59.7198H142.031C145.804 59.7198 148.862 62.7776 148.862 66.5499V91.0683C148.862 94.8406 145.804 97.8984 142.031 97.8984H101.751ZM92.9947 92.8196C92.9947 96.6887 96.1311 99.8249 100 99.8249H143.783C143.904 99.8249 144.024 99.8218 144.143 99.8158C144.024 99.8218 143.904 99.8249 143.783 99.8249H100C96.1312 99.8249 92.9949 96.6887 92.9949 92.8196V64.7986C92.9949 61.0694 95.9086 58.021 99.5837 57.8055C95.9086 58.0209 92.9947 61.0693 92.9947 64.7986V92.8196ZM101.335 59.5568C101.473 59.5488 101.612 59.5447 101.751 59.5447H142.031C145.9 59.5447 149.037 62.6809 149.037 66.5499V91.0683C149.037 94.4537 146.635 97.2781 143.443 97.9312C146.636 97.2781 149.037 94.4538 149.037 91.0683V66.5499C149.037 62.6809 145.901 59.5446 142.032 59.5446H101.751C101.612 59.5446 101.473 59.5487 101.335 59.5568Z" fill="white"/>
<path d="M143.783 77.0578C144.75 77.0578 145.534 77.8419 145.534 78.8091C145.534 79.7763 144.75 80.5604 143.783 80.5604C142.816 80.5604 142.032 79.7763 142.032 78.8091C142.032 77.8419 142.816 77.0578 143.783 77.0578Z" fill="white"/>
<path fill-rule="evenodd" clip-rule="evenodd" d="M3.38587 62.8722C2.42863 62.8722 1.578 63.4112 0.973399 64.2506C0.368618 65.0903 0 66.2416 0 67.5052V95.367C0 96.6306 0.368618 97.7818 0.973399 98.6215C1.578 99.461 2.42863 100 3.38587 100H16.2288C17.1861 100 18.0367 99.461 18.6413 98.6215C19.2461 97.7818 19.6147 96.6306 19.6147 95.367V67.5052C19.6147 66.2416 19.2461 65.0903 18.6413 64.2506C18.0367 63.4112 17.1861 62.8722 16.2288 62.8722H3.38587ZM1.15295 68.6196C1.15295 67.4212 1.50304 66.3435 2.0603 65.5698C2.61775 64.7958 3.37249 64.3369 4.18856 64.3369H15.4262C16.2422 64.3369 16.997 64.7958 17.5544 65.5698C18.1117 66.3435 18.4618 67.4212 18.4618 68.6196V94.2525C18.4618 95.4509 18.1117 96.5286 17.5544 97.3024C16.997 98.0763 16.2422 98.5353 15.4262 98.5353H4.18856C3.37249 98.5353 2.61775 98.0763 2.0603 97.3024C1.50304 96.5286 1.15295 95.4509 1.15295 94.2525V68.6196ZM3.38587 63.0473C1.61256 63.0473 0.175131 65.0432 0.175131 67.5052V95.367C0.175131 97.7641 1.5378 99.7194 3.24641 99.8207C1.53788 99.7192 0.175302 97.7641 0.175302 95.367V67.5052C0.175302 65.0432 1.61273 63.0473 3.38604 63.0473H16.229C16.2792 63.0473 16.3291 63.0489 16.3788 63.0521C16.3291 63.0489 16.2791 63.0473 16.2288 63.0473H3.38587ZM4.04909 98.7063C4.09539 98.709 4.14194 98.7104 4.18873 98.7104H15.4263C17.1996 98.7104 18.6371 96.7145 18.6371 94.2525V68.6197C18.6371 66.273 17.3311 64.3498 15.6732 64.1748C17.3311 64.3499 18.6369 66.273 18.6369 68.6196V94.2525C18.6369 96.7145 17.1995 98.7104 15.4262 98.7104H4.18856C4.14183 98.7104 4.09533 98.709 4.04909 98.7063Z" fill="white"/>
<path d="M11.1608 95.6854C11.1608 96.3009 10.6619 96.7999 10.0464 96.7999C9.43085 96.7999 8.93188 96.3009 8.93188 95.6854C8.93188 95.0699 9.43085 94.5709 10.0464 94.5709C10.6619 94.5709 11.1608 95.0699 11.1608 95.6854Z" fill="white"/>
</svg>
