<svg width="72" height="100" viewBox="0 0 72 100" fill="none" xmlns="http://www.w3.org/2000/svg">
<path fill-rule="evenodd" clip-rule="evenodd" d="M11.6883 15.5844H0V100H71.4286V15.5844H59.7403V19.4805H67.5325V96.1039H3.8961V19.4805H11.6883V15.5844ZM18.1818 19.4805V15.5844H53.2468V19.4805H18.1818Z" fill="white"/>
<rect x="16.8831" y="75.3247" width="37.6623" height="3.8961" fill="white"/>
<rect x="24.6753" y="84.4156" width="20.7792" height="3.8961" fill="white"/>
<path fill-rule="evenodd" clip-rule="evenodd" d="M41.4544 42.8571L57.1429 64.9351H37.5725H25.766H12.9871L25.2798 47.0625L31.7655 56.4921L41.4544 42.8571ZM33.2354 58.6291L41.4544 47.0625L52.6604 62.8324H30.2484L33.2354 58.6291ZM30.5757 58.1666L25.2798 50.4668L16.4994 63.2329H26.9756L30.5757 58.1666Z" fill="white"/>
<path fill-rule="evenodd" clip-rule="evenodd" d="M22.078 10.3896H7.79224V24.6753H22.078V10.3896ZM18.1818 14.2857H11.6883V20.7792H18.1818V14.2857Z" fill="white"/>
<path fill-rule="evenodd" clip-rule="evenodd" d="M63.6363 10.3896H49.3506V24.6753H63.6363V10.3896ZM59.7402 14.2857H53.2467V20.7792H59.7402V14.2857Z" fill="white"/>
<rect x="12.9871" width="3.8961" height="11.6883" fill="white"/>
<rect x="54.5454" width="3.8961" height="11.6883" fill="white"/>
</svg>
